<svg width="228" height="80" viewBox="0 0 228 80" fill="none" xmlns="http://www.w3.org/2000/svg" xmlns:xlink="http://www.w3.org/1999/xlink">
<path d="M58.653,3.783C56.972,5.718 53.236,10.293 50.352,13.951C47.465,17.609 34.955,32.97 22.552,48.086C10.147,63.203 0,76.558 0,77.764C0,79.35 2.997,79.958 10.821,79.958C25.555,79.958 28.072,79.02 33.366,71.562C35.881,68.015 44.884,56.804 53.373,46.649L68.805,28.183L72.891,32.586C75.139,35.006 76.985,37.842 76.992,38.886C77.007,40.783 54.063,70.043 50.363,72.848C49.287,73.664 48.404,75.598 48.404,77.145C48.404,79.739 51.183,79.956 84.158,79.934C103.823,79.92 120.936,79.394 122.19,78.763C123.445,78.131 129.207,72.165 134.998,65.504C140.789,58.843 146.388,53.394 147.44,53.394C152.461,53.394 151.462,57.448 144.155,66.726C139.768,72.3 136.782,77.556 137.524,78.409C139.081,80.197 156.155,80.469 159.695,78.763C162.228,77.542 176.337,60.813 178.896,55.998C180.082,53.768 182.436,55.846 189.519,65.373C194.524,72.106 199.721,78.131 201.07,78.763C205.396,80.789 226.664,80.133 227.852,77.934C228.83,76.127 221.834,67.071 180.727,16.941C174.507,9.354 169.416,2.499 169.416,1.707C169.416,0.916 167.097,0.267 164.265,0.267C160.052,0.267 156.626,3.271 145.458,16.752C137.946,25.818 130.485,33.595 128.877,34.034C127.269,34.472 121.297,34.612 115.605,34.347L105.26,33.862L112.05,27.222C117.636,21.757 120.107,20.581 125.997,20.581C130.448,20.581 134.045,19.546 135.513,17.846C136.811,16.343 140.63,11.744 144.001,7.629L150.133,0.146L129.634,0.597L109.134,1.049L101.031,11.008L92.93,20.968L84.778,10.618C77.229,1.032 76.076,0.267 69.168,0.267C63.804,0.267 60.849,1.255 58.653,3.783ZM116.611,51.483C116.611,52.152 115.068,54.262 113.185,56.171C110.353,59.045 107.671,59.645 97.66,59.645L85.559,59.645L89.458,54.957C93.007,50.69 94.4,50.269 104.985,50.269C111.379,50.269 116.611,50.816 116.611,51.483Z" clip-rule="evenodd" fill-rule="evenodd" fill="url(#pf_0_1_513)"/>
<path d="M58.506,3.783C56.745,5.718 54.99,8.354 54.605,9.643C54.22,10.932 53.41,12.338 52.805,12.768C45.872,17.692 34.904,32.312 36.941,33.916C37.799,34.591 37.381,34.689 36.009,34.133C33.562,33.14 26.946,41.874 28.134,44.525C28.451,45.235 27.769,45.4 26.616,44.894C24.559,43.991 20.658,49.807 21.621,52.338C21.89,53.047 21.168,53.213 20.015,52.707C18.015,51.829 14.053,57.579 14.966,60.035C15.206,60.681 14.438,61.207 13.258,61.207C10.717,61.207 3.507,70.561 5.993,70.629C6.933,70.656 5.967,71.393 3.85,72.27C1.732,73.147 0,75.234 0,76.911C0,79.55 1.567,79.958 11.681,79.958C18.105,79.958 24.897,79.08 26.774,78.005C31.786,75.137 44.132,57.93 42.512,56.069C41.749,55.191 42.125,54.913 43.351,55.451C46.121,56.666 57.727,41.881 55.515,39.953C54.629,39.181 54.807,39.074 55.907,39.713C58.594,41.27 64.481,35.122 62.492,32.837C61.579,31.786 61.887,31.458 63.236,32.05C64.506,32.608 66.12,31.997 66.827,30.694C67.936,28.639 68.653,28.692 72.208,31.092C74.464,32.615 75.914,34.391 75.427,35.034C74.943,35.68 75.487,36.206 76.633,36.206C79.977,36.206 78.457,41.274 74.178,44.392C72.015,45.969 70.836,47.936 71.557,48.763C72.277,49.591 71.977,50.269 70.891,50.269C68.767,50.269 62.785,58.091 63.421,60.035C63.632,60.681 62.651,61.207 61.238,61.207C59.828,61.207 59.317,61.665 60.105,62.224C60.893,62.784 59.819,64.201 57.72,65.373C54.305,67.282 54.534,67.404 59.925,66.535C63.236,66.003 68.433,65.465 71.474,65.34C74.516,65.215 77.13,64.762 77.286,64.332C77.441,63.903 77.801,61.984 78.085,60.07C78.554,56.909 87.993,49.752 89.909,51.102C90.349,51.413 88.602,53.569 86.028,55.894C83.454,58.22 81.843,60.474 82.45,60.906C85.003,62.718 109.022,61.001 111.662,58.816C113.471,57.32 113.511,57.068 111.779,58.088C110.323,58.945 103.828,59.645 97.344,59.645L85.559,59.645L89.458,54.957C93.025,50.671 94.373,50.269 105.22,50.269C115.315,50.269 116.875,50.652 115.695,52.833C114.536,54.979 114.859,55.076 117.66,53.424C122.582,50.524 121.755,48.707 115.511,48.707C112.485,48.707 110.01,48.025 110.01,47.193C110.01,46.361 111.654,46.128 113.665,46.675C116.635,47.485 117.066,46.964 115.973,43.892C114.659,40.197 114.708,40.181 118.116,43.238C120.939,45.768 121.35,45.841 120.276,43.628C119.546,42.125 119.519,39.839 120.215,38.55C121.968,35.306 127.596,35.6 127.682,38.941C127.746,41.442 128.021,41.424 130.912,38.711C132.65,37.08 133.55,35.147 132.912,34.414C132.274,33.681 132.685,33.081 133.825,33.081C134.967,33.081 136.461,31.498 137.147,29.565C138.267,26.406 137.942,26.486 133.92,30.347C129.997,34.114 127.977,34.644 117.528,34.644C104.859,34.644 103.522,33.367 110.639,28.076C112.802,26.468 113.966,24.459 113.227,23.61C112.488,22.76 113.194,22.259 114.798,22.495C116.399,22.731 117.497,22.12 117.238,21.135C116.978,20.153 120.127,19.068 124.234,18.727C128.342,18.387 131.22,18.665 130.628,19.345C130.036,20.024 130.362,20.581 131.352,20.581C134.397,20.581 138.853,14.316 137.235,12.313C136.395,11.274 136.52,10.947 137.513,11.587C138.505,12.226 140.776,11.269 142.558,9.463C145.304,6.679 145.334,5.943 142.756,4.638C140.349,3.419 140.479,3.271 143.381,3.928C145.431,4.391 147.585,3.766 148.263,2.513C149.262,0.664 146.001,0.267 129.794,0.267C111.799,0.267 109.836,0.569 106.91,3.783C105.15,5.718 103.394,8.294 103.009,9.513C102.624,10.73 100.54,13.041 98.38,14.648C96.217,16.255 94.974,18.173 95.616,18.912C96.259,19.649 95.086,20.715 93.014,21.281C90.939,21.846 89.916,21.831 90.739,21.246C92.776,19.798 86.312,11.205 83.185,11.205C81.804,11.205 81.295,10.765 82.052,10.226C82.811,9.687 81.962,7.226 80.162,4.757C75.885,-1.119 63.478,-1.676 58.506,3.783ZM155.114,4.955C153.237,7.533 152.65,9.643 153.81,9.643C154.969,9.643 156.547,8.236 157.314,6.518C158.663,3.5 160.855,2.739 166.665,3.275C168.179,3.416 169.416,2.796 169.416,1.899C169.416,1.002 166.967,0.267 163.972,0.267C160.148,0.267 157.512,1.663 155.114,4.955ZM164.648,9.554C162.001,12.857 161.787,13.913 163.88,13.343C165.475,12.907 167.367,11.018 168.082,9.144C169.167,6.294 171.042,7.783 179.528,18.237C185.11,25.112 189.864,31.545 190.093,32.533C190.322,33.52 191.827,35.455 193.433,36.83C195.041,38.206 195.492,39.353 194.436,39.381C193.382,39.408 194.498,40.536 196.918,41.886C201.23,44.292 201.216,44.321 196.214,43.26C192.144,42.396 190.857,42.864 189.86,45.568C188.982,47.954 187.382,48.73 184.463,48.188C181.314,47.604 179.512,48.783 176.984,53.077C175.154,56.191 171.71,60.024 169.334,61.596C165.475,64.149 165.015,64.179 165.015,61.871C165.015,59.891 163.477,59.451 158.415,59.977C154.784,60.356 151.845,60.26 151.882,59.765C152.085,57.11 162.364,47.327 163.906,48.319C164.905,48.963 165.026,48.629 164.177,47.579C163.328,46.528 164.192,43.978 166.1,41.911C168.938,38.834 169.09,37.409 166.938,34.055C165.493,31.8 163.669,29.956 162.888,29.956C162.106,29.956 154.23,38.745 145.387,49.488C136.545,60.231 128.373,69.02 127.231,69.02C126.087,69.02 125.746,69.703 126.472,70.537C127.198,71.372 125.275,72.501 122.201,73.05C119.126,73.598 116.611,74.673 116.611,75.439C116.611,76.206 101.638,76.833 83.339,76.833C52.572,76.833 50.294,76.637 53.086,74.234C55.674,72.008 55.634,71.747 52.805,72.404C50.99,72.826 49.188,74.698 48.8,76.564C48.105,79.93 48.396,79.958 84.004,79.934C103.753,79.92 120.936,79.394 122.19,78.762C123.445,78.131 129.207,72.165 134.998,65.504C140.789,58.843 146.388,53.394 147.44,53.394C151.449,53.394 151.865,56.616 148.496,61.552C145.449,66.02 145.436,66.287 148.408,63.643C151.264,61.099 151.814,61.02 151.814,63.146C151.814,64.543 149.823,66.132 147.389,66.681C142.445,67.796 135.506,76.091 137.552,78.441C139.088,80.205 156.188,80.453 159.695,78.762C162.118,77.595 175.838,61.434 179.242,55.738C180.269,54.019 180.887,51.661 180.615,50.501C180.199,48.724 180.641,48.724 183.385,50.501C185.38,51.791 185.864,53.19 184.632,54.098C181.752,56.219 182.137,58.476 185.158,57.152C186.696,56.476 187.101,56.721 186.186,57.774C184.663,59.524 196.903,76.625 201.206,78.762C205.298,80.794 226.664,80.13 227.852,77.934C228.454,76.822 220.344,65.395 209.828,52.543C199.314,39.691 186.309,23.726 180.929,17.065C175.55,10.404 170.509,4.96 169.73,4.964C168.954,4.971 166.665,7.035 164.648,9.554ZM147.183,14.677C145.722,16.635 143.084,19.818 141.317,21.753C139.552,23.687 138.635,25.268 139.279,25.268C139.926,25.268 142.6,22.803 145.222,19.79C147.845,16.776 150.894,14.709 152.001,15.195C153.108,15.68 154.014,15.374 154.014,14.515C154.014,11.188 149.706,11.29 147.183,14.677ZM162.815,22.143C162.815,23.003 163.864,23.706 165.145,23.706C166.425,23.706 166.863,23.003 166.115,22.143C165.367,21.284 164.32,20.581 163.785,20.581C163.251,20.581 162.815,21.284 162.815,22.143ZM104.912,39.625C104.21,40.87 103.689,40.5 103.583,38.68C103.489,37.033 104.008,36.111 104.738,36.63C105.469,37.148 105.548,38.497 104.912,39.625ZM115.511,37.769C116.259,38.628 115.821,39.331 114.54,39.331C113.26,39.331 112.21,38.628 112.21,37.769C112.21,36.909 112.646,36.206 113.181,36.206C113.715,36.206 114.763,36.909 115.511,37.769ZM186.736,36.597C185.741,37.981 185.642,43.955 186.626,43.255C187.957,42.31 188.929,36.206 187.75,36.206C187.347,36.206 186.892,36.383 186.736,36.597ZM168.439,45.441C166.716,47.421 169.504,52.071 172.051,51.468C174.876,50.799 173.977,47.804 171.125,48.38C169.889,48.63 169.462,47.75 170.177,46.427C171.592,43.808 170.432,43.15 168.439,45.441ZM197.422,46.525C196.691,47.044 194.793,47.1 193.206,46.649C191.451,46.15 191.972,45.78 194.535,45.705C196.854,45.638 198.152,46.007 197.422,46.525ZM107.214,48.088C106.483,48.607 104.584,48.663 102.998,48.211C101.242,47.713 101.764,47.343 104.327,47.268C106.646,47.2 107.944,47.569 107.214,48.088ZM164.386,56.526C168.21,59.173 171.616,59.212 171.616,56.61C171.616,55.901 169.105,54.98 166.036,54.563C160.698,53.84 160.626,53.924 164.386,56.526ZM72.607,61.207C72.607,62.067 71.557,62.77 70.277,62.77C68.996,62.77 68.558,62.067 69.306,61.207C70.054,60.348 71.102,59.645 71.636,59.645C72.171,59.645 72.607,60.348 72.607,61.207ZM32.143,69.368C26.906,75.714 25.929,76.166 18.728,75.569C14.455,75.214 10.422,74.308 9.767,73.553C9.109,72.798 10.271,72.644 12.348,73.209C15.203,73.987 15.663,73.698 14.24,72.02C12.752,70.268 13.023,70.167 15.529,71.542C19.219,73.565 26.277,73.783 26.677,71.884C26.829,71.168 27.122,69.704 27.327,68.629C27.533,67.556 29.016,66.881 30.622,67.131C32.488,67.421 33.056,66.685 32.198,65.096C31.419,63.656 31.769,63.009 33.027,63.562C34.224,64.087 35.203,63.654 35.203,62.601C35.203,61.548 35.786,61.099 36.497,61.606C37.21,62.11 35.249,65.604 32.143,69.368ZM145.213,71.364C145.213,72.653 144.254,73.708 143.081,73.708C141.911,73.708 141.521,72.653 142.217,71.364C142.914,70.075 143.873,69.02 144.349,69.02C144.824,69.02 145.213,70.075 145.213,71.364ZM110.184,73.056C110.29,74.876 110.811,75.247 111.513,74.001C112.149,72.873 112.07,71.525 111.339,71.006C110.609,70.487 110.089,71.409 110.184,73.056Z" clip-rule="evenodd" fill-rule="evenodd" fill="url(#pf_0_1_514)"/>
<path d="M58.521,3.647C56.688,5.507 55.7,7.616 56.327,8.335C56.952,9.054 56.358,9.643 55.005,9.643C53.652,9.643 53.157,10.346 53.905,11.205C54.653,12.065 54.235,12.768 52.976,12.768C51.718,12.768 50.068,14.526 49.309,16.674C48.55,18.823 47.071,20.581 46.022,20.581C44.974,20.581 42.581,22.69 40.704,25.268C38.827,27.846 37.81,29.956 38.446,29.956C39.082,29.956 37.588,31.387 35.124,33.137C32.658,34.889 31.232,36.998 31.954,37.825C32.673,38.653 32.048,39.331 30.565,39.331C29.082,39.331 28.446,39.742 29.153,40.242C29.859,40.744 28.501,42.528 26.138,44.206C23.775,45.885 22.431,47.936 23.153,48.763C23.872,49.591 23.439,50.269 22.189,50.269C20.937,50.269 18.378,52.379 16.502,54.957C14.625,57.535 13.608,59.645 14.244,59.645C14.88,59.645 13.386,61.076 10.922,62.826C8.455,64.578 7.03,66.687 7.751,67.514C8.471,68.342 7.954,69.02 6.601,69.02C5.247,69.02 4.689,69.65 5.357,70.418C6.029,71.189 5.096,72.22 3.287,72.714C1.479,73.206 0,75.037 0,76.784C0,79.544 1.41,79.958 10.821,79.958C25.965,79.958 28.086,79.058 34.299,69.996C37.32,65.592 38.38,63.24 36.658,64.768C33.877,67.235 33.373,67.271 32.189,65.078C31.417,63.651 31.773,63.01 33.027,63.562C34.224,64.087 35.203,63.854 35.203,63.045C35.203,62.234 37.311,61.181 39.89,60.701C43.093,60.105 44.145,59.035 43.214,57.313C42.466,55.927 42.673,55.154 43.674,55.593C44.675,56.033 47.698,53.608 50.391,50.205C53.084,46.803 54.776,44.019 54.151,44.019C53.527,44.019 55.478,42.131 58.49,39.823C61.5,37.516 63.445,34.667 62.809,33.492C62.176,32.317 62.635,31.786 63.83,32.311C65.027,32.836 66.129,32.52 66.281,31.611C66.433,30.701 66.679,29.311 66.831,28.523C66.983,27.736 68.008,26.506 69.108,25.789C70.272,25.032 70.448,25.306 69.529,26.44C68.66,27.515 69.053,28.393 70.406,28.393C71.76,28.393 72.25,29.101 71.498,29.967C70.743,30.833 71.669,31.961 73.555,32.475C75.441,32.989 76.435,34.037 75.764,34.808C75.095,35.576 75.487,36.206 76.633,36.206C79.643,36.206 78.615,41.445 75.311,42.942C73.773,43.641 73.089,44.871 73.79,45.677C74.492,46.485 73.96,47.144 72.607,47.144C71.254,47.144 70.758,47.847 71.507,48.707C72.255,49.566 71.837,50.269 70.578,50.269C69.32,50.269 67.669,52.027 66.91,54.176C66.151,56.324 64.587,58.082 63.438,58.082C62.288,58.082 61.958,58.785 62.706,59.645C63.454,60.504 62.851,61.207 61.368,61.207C59.885,61.207 59.317,61.665 60.105,62.224C60.893,62.784 59.819,64.201 57.72,65.373C54.305,67.282 54.534,67.404 59.925,66.535C63.236,66.003 68.433,65.465 71.474,65.34C74.516,65.215 77.13,64.762 77.286,64.332C77.441,63.903 77.804,61.946 78.092,59.985C78.378,58.024 78.994,56.26 79.46,56.063C79.927,55.866 82.703,54.305 85.632,52.596C90.948,49.493 90.952,49.493 89.476,52.613C88.048,55.632 88.105,55.638 91.194,52.81C93.865,50.365 96.58,49.994 107.702,50.566C115.022,50.943 121.011,50.677 121.011,49.979C121.011,49.279 118.536,48.707 115.511,48.707C112.485,48.707 110.01,48.025 110.01,47.193C110.01,46.361 111.654,46.128 113.665,46.675C116.635,47.485 117.066,46.964 115.973,43.892C114.659,40.197 114.708,40.181 118.116,43.238C120.938,45.767 121.35,45.841 120.276,43.628C119.546,42.125 119.519,39.839 120.215,38.55C121.968,35.306 127.596,35.6 127.682,38.941C127.746,41.442 128.021,41.424 130.912,38.711C132.65,37.08 133.603,35.206 133.029,34.547C132.454,33.887 133.229,32.992 134.749,32.556C136.727,31.99 136.767,31.729 134.892,31.642C133.451,31.575 131.66,32.222 130.912,33.081C130.164,33.94 124.166,34.644 117.581,34.644C105.266,34.644 102.991,32.9 110.01,28.839C111.825,27.789 112.347,26.907 111.17,26.881C109.995,26.853 111.249,25.728 113.957,24.381C116.668,23.032 118.382,21.351 117.766,20.643C117.15,19.935 120.102,19.07 124.329,18.72C128.679,18.359 132.012,18.776 132.012,19.679C132.012,20.557 133.554,19.712 135.44,17.801C137.326,15.888 138.162,13.515 137.299,12.524C136.421,11.513 136.692,11.143 137.917,11.682C139.119,12.208 142.307,9.857 145,6.454L149.895,0.267L130.078,0.267C112.257,0.267 109.924,0.608 106.925,3.647C105.093,5.507 104.105,7.616 104.732,8.335C105.357,9.054 104.763,9.643 103.409,9.643C102.056,9.643 101.498,10.272 102.166,11.041C102.837,11.812 101.843,12.86 99.957,13.374C98.072,13.888 97.146,15.016 97.9,15.882C98.653,16.748 98.162,17.456 96.809,17.456C95.456,17.456 94.897,18.085 95.566,18.854C96.237,19.624 95.253,20.67 93.381,21.181C91.434,21.712 90.554,21.448 91.324,20.563C92.063,19.713 91.561,19.018 90.208,19.018C88.855,19.018 88.338,18.34 89.058,17.512C89.779,16.685 88.435,14.634 86.072,12.955C83.709,11.277 82.351,9.493 83.058,8.991C83.764,8.49 83.02,8.08 81.407,8.08C79.795,8.08 79.099,7.636 79.863,7.094C80.626,6.55 80.263,4.793 79.053,3.188C75.852,-1.059 62.875,-0.767 58.521,3.647ZM157.405,1.727C156.707,2.528 159.123,3.125 162.775,3.05C166.428,2.977 169.416,2.321 169.416,1.592C169.416,-0.212 158.991,-0.095 157.405,1.727ZM164.648,9.554C162.001,12.857 161.787,13.913 163.88,13.343C165.475,12.907 167.343,11.029 168.027,9.168C169.264,5.81 169.301,5.807 172.766,8.885C176.161,11.901 176.192,11.89 173.86,8.471C170.707,3.852 169.059,4.046 164.648,9.554ZM148.679,12.579C147.997,13.362 148.918,14.405 150.727,14.899C152.536,15.391 154.014,15.155 154.014,14.374C154.014,12.255 150.104,10.94 148.679,12.579ZM180.417,19.018C181.712,20.737 183.266,22.143 183.871,22.143C184.476,22.143 183.913,20.737 182.617,19.018C181.321,17.299 179.768,15.893 179.162,15.893C178.557,15.893 179.121,17.299 180.417,19.018ZM140.813,22.143C139.517,23.862 138.954,25.268 139.559,25.268C140.164,25.268 141.717,23.862 143.013,22.143C144.309,20.424 144.872,19.018 144.267,19.018C143.662,19.018 142.109,20.424 140.813,22.143ZM162.815,22.143C162.815,23.003 163.864,23.706 165.145,23.706C166.425,23.706 166.863,23.003 166.115,22.143C165.367,21.284 164.32,20.581 163.785,20.581C163.251,20.581 162.815,21.284 162.815,22.143ZM190.718,31.519C193.138,34.526 199.853,42.82 205.638,49.949C211.422,57.077 215.574,63.323 214.866,63.827C214.154,64.331 214.522,65.999 215.68,67.537C217.148,69.486 216.96,70.567 215.052,71.114C212.96,71.715 212.948,71.928 215.002,72.022C216.476,72.089 217.112,73.2 216.416,74.489C215.642,75.922 212.306,76.833 207.838,76.833C201.05,76.833 199.937,76.056 192.243,65.939C187.686,59.948 183.567,55.324 183.088,55.665C181.932,56.485 198.201,77.278 201.188,78.8C202.472,79.453 208.964,79.805 215.62,79.581C226.064,79.233 227.72,78.748 227.72,76.051C227.72,73.853 226.416,73.029 223.32,73.272C220.9,73.461 220.158,73.226 221.67,72.751C223.184,72.275 224.42,71.198 224.42,70.361C224.42,69.521 223.276,69.337 221.88,69.95C220.388,70.606 219.934,70.382 220.782,69.409C222.142,67.848 193.836,30.97 188.703,27.612C187.389,26.753 188.295,28.511 190.718,31.519ZM142.798,53.019L123.88,76.051L86.142,76.48C63.469,76.736 48.404,77.515 48.404,78.433C48.404,80.217 118.677,80.531 122.19,78.762C123.445,78.131 129.238,72.129 135.066,65.428C144.903,54.112 151.189,50.752 150.368,57.244C149.891,61.027 152.164,58.927 161.299,47.144C168.868,37.381 169.028,36.852 165.444,33.487C161.752,30.022 161.523,30.22 142.798,53.019ZM104.912,39.625C104.21,40.87 103.689,40.5 103.583,38.68C103.489,37.033 104.008,36.111 104.738,36.63C105.469,37.148 105.548,38.497 104.912,39.625ZM115.511,37.769C116.259,38.628 115.821,39.331 114.54,39.331C113.26,39.331 112.21,38.628 112.21,37.769C112.21,36.909 112.646,36.206 113.181,36.206C113.715,36.206 114.763,36.909 115.511,37.769ZM107.214,48.088C106.483,48.607 104.584,48.663 102.998,48.211C101.242,47.713 101.764,47.343 104.327,47.268C106.646,47.2 107.944,47.569 107.214,48.088ZM82.811,58.863C81.429,61.421 83.058,61.659 99.009,61.232C104.455,61.085 109.607,60.493 110.459,59.915C111.31,59.337 105.997,59.105 98.648,59.402C89.37,59.776 85.744,59.418 86.778,58.23C87.599,57.29 87.326,56.519 86.173,56.519C85.02,56.519 83.509,57.574 82.811,58.863ZM168.423,66.848L159.981,77.095L148.195,76.573C141.004,76.255 136.69,76.661 137.132,77.614C138.01,79.506 156.351,80.472 159.695,78.803C162.604,77.351 178.707,57.909 177.631,57.146C177.209,56.846 173.066,61.212 168.423,66.848ZM72.607,61.207C72.607,62.066 71.557,62.77 70.277,62.77C68.996,62.77 68.558,62.066 69.306,61.207C70.054,60.348 71.102,59.645 71.636,59.645C72.171,59.645 72.607,60.348 72.607,61.207ZM29.94,72.448C27.111,75.515 25.038,76.092 18.715,75.569C14.451,75.214 10.422,74.308 9.767,73.553C9.109,72.798 10.271,72.643 12.348,73.209C15.203,73.987 15.663,73.698 14.24,72.02C12.752,70.268 13.023,70.167 15.529,71.542C19.219,73.565 26.277,73.783 26.677,71.884C26.829,71.168 27.201,69.879 27.503,69.02C27.804,68.16 28.176,66.965 28.328,66.364C28.479,65.762 29.685,66.039 31.007,66.978C32.748,68.214 32.453,69.726 29.94,72.448ZM49.505,73.708C48.756,74.567 49.135,75.27 50.345,75.27C51.555,75.27 53.157,74.567 53.905,73.708C54.653,72.848 54.275,72.145 53.064,72.145C51.854,72.145 50.253,72.848 49.505,73.708Z" clip-rule="evenodd" fill-rule="evenodd" fill="url(#pf_0_1_515)"/>
<path d="M58.666,3.302C56.611,5.11 56.757,5.319 59.406,4.358C61.373,3.644 61.164,4.06 58.891,5.385C56.792,6.607 55.718,8.066 56.506,8.626C57.293,9.185 56.726,9.643 55.243,9.643C53.76,9.643 53.157,10.346 53.905,11.205C54.653,12.065 54.215,12.768 52.935,12.768C51.654,12.768 50.605,13.719 50.605,14.884C50.605,16.048 48.114,18.909 45.069,21.242C42.024,23.574 40.101,26.139 40.798,26.939C41.494,27.739 40.849,28.393 39.366,28.393C37.883,28.393 37.247,28.804 37.954,29.304C38.66,29.806 37.302,31.59 34.939,33.269C32.576,34.947 31.232,36.998 31.954,37.825C32.673,38.653 32.048,39.331 30.565,39.331C29.082,39.331 28.515,39.789 29.302,40.348C30.09,40.908 29.016,42.367 26.917,43.589C24.372,45.074 24.2,45.477 26.403,44.8C28.218,44.242 27.78,44.894 25.432,46.247C23.082,47.6 22.035,48.707 23.102,48.707C24.169,48.707 23.122,49.813 20.772,51.166C18.424,52.519 17.987,53.171 19.802,52.613C22.004,51.936 21.833,52.34 19.287,53.824C17.188,55.046 16.114,56.505 16.902,57.065C17.69,57.624 17.014,58.082 15.401,58.082C13.789,58.082 13.113,58.54 13.901,59.099C14.689,59.659 13.615,61.118 11.516,62.34C8.97,63.824 8.799,64.227 11.001,63.551C13.203,62.874 13.032,63.277 10.486,64.762C8.387,65.984 7.313,67.443 8.101,68.003C8.889,68.562 8.321,69.02 6.838,69.02C5.355,69.02 4.7,69.664 5.384,70.45C6.068,71.236 5.474,72.151 4.066,72.484C2.656,72.818 1.171,74.636 0.766,76.525C0.09,79.666 0.948,79.958 10.834,79.958C25.478,79.958 28.068,79.014 33.258,71.789C35.716,68.367 36.768,65.988 35.595,66.504C34.424,67.018 32.878,66.353 32.158,65.023C31.41,63.64 31.782,63.015 33.027,63.562C34.224,64.087 35.203,63.771 35.203,62.862C35.203,61.952 36.653,61.207 38.427,61.207C40.198,61.207 42.772,59.716 44.147,57.893C46.167,55.213 46.077,54.813 43.674,55.805C42.039,56.479 43.483,55.155 46.878,52.861C50.275,50.569 52.444,47.993 51.698,47.138C50.955,46.282 51.56,45.581 53.043,45.581C54.526,45.581 55.183,45.186 54.504,44.703C53.824,44.22 55.674,41.981 58.616,39.727C61.557,37.473 63.445,34.667 62.809,33.492C62.176,32.317 62.635,31.786 63.83,32.311C65.027,32.836 66.129,32.52 66.281,31.611C66.433,30.701 66.679,29.311 66.831,28.523C66.983,27.736 68.008,26.506 69.108,25.789C70.272,25.032 70.448,25.306 69.529,26.44C68.66,27.515 69.053,28.393 70.407,28.393C71.76,28.393 72.319,29.023 71.65,29.792C70.979,30.562 71.973,31.611 73.859,32.125C75.744,32.639 76.671,33.767 75.916,34.633C75.163,35.498 75.43,36.206 76.51,36.206C79.408,36.206 78.197,42.956 75.17,43.672C73.744,44.01 73.139,44.928 73.823,45.714C74.508,46.5 73.96,47.144 72.607,47.144C71.254,47.144 70.759,47.847 71.507,48.707C72.255,49.566 71.925,50.269 70.774,50.269C69.625,50.269 68.061,52.027 67.302,54.176C66.543,56.324 64.893,58.082 63.634,58.082C62.376,58.082 61.958,58.785 62.706,59.644C63.454,60.504 62.959,61.207 61.606,61.207C60.253,61.207 59.72,61.866 60.422,62.674C61.124,63.481 59.945,64.896 57.802,65.82C54.607,67.198 54.99,67.326 59.925,66.534C63.236,66.003 68.433,65.465 71.474,65.34C74.517,65.215 77.13,64.762 77.287,64.332C77.441,63.902 77.804,61.946 78.092,59.985C78.378,58.024 78.994,56.26 79.46,56.063C79.927,55.866 82.703,54.305 85.632,52.596C90.948,49.493 90.952,49.493 89.476,52.613C88.048,55.632 88.105,55.638 91.194,52.81C93.865,50.364 96.58,49.994 107.702,50.566C115.022,50.943 121.011,50.677 121.011,49.979C121.011,49.278 118.536,48.707 115.511,48.707C112.485,48.707 110.01,48.025 110.01,47.192C110.01,46.361 111.654,46.128 113.665,46.675C116.635,47.485 117.066,46.964 115.973,43.892C114.659,40.197 114.708,40.181 118.116,43.238C120.939,45.767 121.35,45.841 120.276,43.628C119.546,42.125 119.519,39.839 120.215,38.55C121.968,35.306 127.596,35.6 127.682,38.941C127.746,41.442 128.021,41.424 130.912,38.711C132.65,37.08 133.603,35.206 133.029,34.547C132.454,33.887 133.229,32.992 134.749,32.556C136.727,31.99 136.767,31.729 134.892,31.642C133.451,31.575 131.66,32.222 130.912,33.081C130.164,33.94 123.423,34.633 115.931,34.62C106.325,34.603 103.282,34.15 105.61,33.081C107.425,32.248 107.977,31.556 106.84,31.542C105.7,31.529 106.69,30.486 109.04,29.225C111.388,27.962 112.347,26.907 111.17,26.881C109.995,26.853 111.249,25.728 113.957,24.381C116.668,23.032 118.314,21.274 117.619,20.474C116.921,19.673 118.82,19.018 121.838,19.018C131.009,19.018 139.22,16.145 137.761,13.446C137.046,12.124 137.282,11.402 138.283,11.841C139.284,12.282 142.168,10.032 144.692,6.844L149.279,1.049L129.383,1.311C116.917,1.477 108.56,2.291 107,3.494C105.095,4.961 105.286,5.149 107.81,4.288C109.88,3.58 109.687,3.989 107.295,5.385C105.196,6.607 104.122,8.066 104.91,8.626C105.698,9.185 105.13,9.643 103.647,9.643C102.164,9.643 101.566,10.351 102.318,11.216C103.073,12.082 102.147,13.21 100.261,13.724C98.376,14.238 97.381,15.287 98.052,16.057C98.721,16.826 98.219,17.456 96.939,17.456C95.658,17.456 94.855,18.246 95.159,19.213C95.46,20.181 94.334,21.326 92.653,21.76C90.78,22.243 90.191,21.865 91.132,20.784C91.977,19.812 91.562,19.018 90.208,19.018C88.855,19.018 88.36,18.315 89.108,17.456C89.856,16.596 89.361,15.893 88.008,15.893C86.655,15.893 86.164,15.185 86.917,14.319C87.672,13.454 86.745,12.326 84.86,11.812C82.974,11.298 81.98,10.249 82.651,9.479C83.32,8.71 82.761,8.08 81.408,8.08C80.054,8.08 79.559,7.377 80.307,6.518C81.056,5.658 80.618,4.955 79.337,4.955C78.057,4.955 77.256,4.175 77.557,3.222C78.398,0.574 61.687,0.644 58.666,3.302ZM157.433,1.694C156.602,2.65 157.51,3.393 159.515,3.393C161.491,3.393 162.426,4.139 161.614,5.071C160.811,5.993 162.239,5.824 164.784,4.694C167.332,3.564 169.416,2.021 169.416,1.263C169.416,0.505 168.104,0.658 166.503,1.602C164.445,2.814 162.903,2.83 161.251,1.657C159.598,0.483 158.476,0.494 157.433,1.694ZM164.648,9.554C162.001,12.857 161.788,13.913 163.88,13.343C165.475,12.907 167.308,11.124 167.95,9.377C168.69,7.369 170.107,6.636 171.807,7.383C173.526,8.138 173.93,7.913 172.925,6.76C170.492,3.961 168.621,4.593 164.648,9.554ZM147.414,13.382C147.414,13.719 148.899,14.401 150.714,14.896C152.529,15.39 154.014,15.113 154.014,14.282C154.014,13.449 152.529,12.768 150.714,12.768C148.899,12.768 147.414,13.044 147.414,13.382ZM162.815,22.143C162.815,23.003 163.865,23.706 165.145,23.706C166.426,23.706 166.863,23.003 166.115,22.143C165.367,21.284 164.32,20.581 163.785,20.581C163.251,20.581 162.815,21.284 162.815,22.143ZM154.606,38.902C136.927,61.418 134.316,64.915 137.365,61.988C139.156,60.27 142.043,57.483 143.779,55.797C146.36,53.291 147.539,53.085 150.23,54.671C153.009,56.31 154.584,55.272 160.368,47.996C167.964,38.437 168.483,36.472 164.454,32.559C162.001,30.176 160.899,30.887 154.606,38.902ZM194.718,36.206C196.595,38.784 198.626,40.894 199.231,40.894C199.836,40.894 198.795,38.784 196.918,36.206C195.041,33.628 193.011,31.518 192.406,31.518C191.801,31.518 192.841,33.628 194.718,36.206ZM104.912,39.625C104.21,40.87 103.689,40.5 103.583,38.68C103.489,37.033 104.008,36.111 104.739,36.63C105.469,37.148 105.548,38.497 104.912,39.625ZM115.511,37.769C116.259,38.628 115.821,39.331 114.54,39.331C113.26,39.331 112.21,38.628 112.21,37.769C112.21,36.909 112.646,36.206 113.181,36.206C113.715,36.206 114.763,36.909 115.511,37.769ZM203.518,47.144C205.396,49.722 207.426,51.832 208.032,51.832C208.636,51.832 207.596,49.722 205.72,47.144C203.842,44.566 201.812,42.456 201.206,42.456C200.602,42.456 201.642,44.566 203.518,47.144ZM107.214,48.088C106.483,48.607 104.585,48.663 102.998,48.211C101.242,47.713 101.764,47.342 104.327,47.267C106.646,47.2 107.944,47.569 107.214,48.088ZM212.32,58.082C214.196,60.66 216.228,62.77 216.832,62.77C217.438,62.77 216.396,60.66 214.52,58.082C212.644,55.504 210.612,53.394 210.008,53.394C209.402,53.394 210.442,55.504 212.32,58.082ZM175.057,59.187C173.864,61.413 174.115,61.593 176.289,60.062C177.794,59.001 178.47,57.74 177.792,57.26C177.114,56.779 175.884,57.646 175.057,59.187ZM185.917,61.207C187.794,63.785 189.825,65.895 190.43,65.895C191.035,65.895 189.994,63.785 188.117,61.207C186.241,58.629 184.21,56.519 183.605,56.519C183,56.519 184.04,58.629 185.917,61.207ZM72.607,61.207C72.607,62.066 71.557,62.77 70.277,62.77C68.996,62.77 68.558,62.066 69.306,61.207C70.055,60.348 71.102,59.644 71.636,59.644C72.171,59.644 72.607,60.348 72.607,61.207ZM166.12,69.937L160.206,77.105L148.305,76.578C135.407,76.008 132.547,78.808 145.136,79.683C157.304,80.527 161.403,78.897 167.893,70.636C175.618,60.798 174.142,60.216 166.12,69.937ZM222.002,69.89C224.544,72.948 226.62,75.761 226.62,76.14C226.62,76.522 220.706,76.833 213.476,76.833C201.096,76.833 200.133,76.559 196.918,72.145C195.041,69.567 193.011,67.457 192.406,67.457C190.667,67.457 198.359,77.486 201.076,78.762C205.528,80.853 226.668,80.126 227.904,77.84C228.968,75.867 220.926,64.332 218.484,64.332C217.88,64.332 219.464,66.834 222.002,69.89ZM30.251,72.551C27.467,75.57 25.399,76.122 18.904,75.583C14.535,75.222 10.422,74.308 9.767,73.553C9.109,72.798 10.271,72.643 12.348,73.209C15.203,73.987 15.663,73.698 14.24,72.02C12.752,70.268 13.023,70.167 15.529,71.542C19.219,73.565 26.277,73.783 26.678,71.884C26.829,71.168 27.201,69.879 27.503,69.02C27.804,68.16 28.176,66.965 28.328,66.363C28.48,65.762 29.74,66.078 31.131,67.065C33.034,68.417 32.816,69.771 30.251,72.551ZM129.812,69.02C128.516,70.739 127.953,72.145 128.558,72.145C129.163,72.145 130.716,70.739 132.012,69.02C133.308,67.301 133.871,65.895 133.266,65.895C132.661,65.895 131.108,67.301 129.812,69.02ZM50.605,73.708C48.622,74.617 48.35,75.231 49.925,75.247C51.366,75.259 53.157,74.567 53.905,73.708C55.593,71.767 54.831,71.767 50.605,73.708ZM124.312,75.27C123.491,76.212 108.153,76.833 85.678,76.833C62.297,76.833 48.405,77.415 48.405,78.395C48.405,79.373 61.92,79.958 84.552,79.958C114.477,79.958 121.293,79.536 124.155,77.503C126.056,76.151 127.612,74.745 127.612,74.378C127.612,73.162 125.695,73.681 124.312,75.27Z" clip-rule="evenodd" fill-rule="evenodd" fill="url(#pf_0_1_516)"/>
<path d="M58.696,3.28C56.605,5.114 56.744,5.324 59.406,4.358C61.373,3.644 61.164,4.06 58.891,5.385C56.792,6.607 55.719,8.066 56.506,8.626C57.294,9.185 56.726,9.643 55.243,9.643C53.76,9.643 53.158,10.346 53.906,11.205C54.654,12.065 54.216,12.768 52.935,12.768C51.655,12.768 50.605,13.719 50.605,14.884C50.605,16.048 48.115,18.909 45.07,21.242C42.025,23.575 40.102,26.139 40.799,26.939C41.494,27.739 40.85,28.393 39.367,28.393C37.884,28.393 37.248,28.804 37.954,29.304C38.66,29.806 37.303,31.59 34.94,33.269C32.577,34.947 31.233,36.998 31.954,37.825C32.674,38.653 32.049,39.331 30.566,39.331C29.083,39.331 28.515,39.789 29.303,40.349C30.091,40.908 29.017,42.367 26.918,43.589C24.372,45.074 24.201,45.477 26.403,44.8C28.218,44.242 27.78,44.894 25.433,46.247C23.083,47.6 22.036,48.707 23.103,48.707C24.17,48.707 23.123,49.813 20.773,51.166C18.425,52.519 17.987,53.171 19.803,52.613C22.005,51.937 21.833,52.34 19.288,53.824C17.189,55.046 16.115,56.505 16.903,57.065C17.69,57.624 17.015,58.082 15.402,58.082C13.789,58.082 13.114,58.54 13.902,59.099C14.689,59.659 13.616,61.118 11.517,62.34C8.971,63.824 8.799,64.228 11.002,63.551C13.204,62.874 13.032,63.278 10.487,64.762C8.388,65.984 7.314,67.443 8.102,68.003C8.89,68.562 8.322,69.02 6.839,69.02C5.356,69.02 4.689,69.65 5.358,70.418C6.029,71.189 5.176,72.2 3.464,72.665C1.75,73.133 0.61,74.789 0.925,76.345C1.715,80.225 24.203,81.53 24.203,77.695C24.203,76.053 22.115,75.27 17.732,75.27C14.172,75.27 10.656,74.575 9.917,73.725C9.118,72.808 10.106,72.598 12.348,73.209C15.204,73.987 15.664,73.698 14.24,72.02C12.753,70.268 13.024,70.167 15.53,71.542C19.219,73.565 26.278,73.783 26.678,71.884C26.83,71.168 27.202,69.879 27.503,69.02C27.805,68.161 28.21,66.931 28.399,66.285C28.588,65.64 30.08,66.365 31.714,67.893C34.346,70.359 34.834,70.393 36.018,68.203C36.753,66.845 36.478,66.117 35.409,66.586C34.339,67.056 32.878,66.353 32.159,65.023C31.442,63.695 31.653,62.957 32.628,63.387C33.604,63.815 35.754,62.834 37.404,61.207C39.054,59.581 41.112,58.559 41.974,58.938C42.839,59.316 44.13,58.54 44.85,57.21C45.646,55.735 45.243,55.194 43.818,55.821C42.531,56.385 42.742,55.412 44.282,53.658C45.824,51.905 47.877,50.819 48.845,51.244C49.813,51.669 50.729,51.271 50.88,50.361C51.756,45.093 55.177,39.222 56.924,39.989C57.804,40.375 59.787,39.258 61.329,37.505C62.869,35.752 63.081,34.778 61.793,35.342C60.368,35.969 59.965,35.428 60.762,33.953C61.481,32.623 62.953,31.925 64.038,32.401C65.12,32.876 66.13,32.52 66.282,31.611C66.434,30.701 66.68,29.311 66.832,28.523C66.984,27.736 68.009,26.506 69.109,25.789C70.273,25.032 70.449,25.306 69.529,26.44C68.66,27.515 69.054,28.393 70.407,28.393C71.76,28.393 72.319,29.023 71.65,29.792C70.979,30.562 71.974,31.611 73.859,32.125C75.745,32.639 76.671,33.767 75.917,34.633C75.164,35.498 75.591,36.206 76.865,36.206C79.954,36.206 78.409,42.907 75.142,43.68C73.734,44.013 73.14,44.928 73.824,45.714C74.508,46.5 73.961,47.144 72.607,47.144C71.254,47.144 70.759,47.847 71.507,48.707C72.255,49.566 71.925,50.269 70.775,50.269C69.626,50.269 68.062,52.027 67.303,54.176C66.544,56.324 64.893,58.082 63.635,58.082C62.376,58.082 61.958,58.785 62.706,59.645C63.455,60.504 62.96,61.207 61.606,61.207C60.253,61.207 59.721,61.867 60.423,62.674C61.125,63.481 59.945,64.896 57.802,65.82C54.608,67.198 54.99,67.326 59.925,66.534C63.237,66.003 68.434,65.465 71.474,65.34C74.517,65.215 77.131,64.762 77.287,64.332C77.441,63.903 77.802,61.984 78.086,60.07C78.742,55.649 88.389,49.765 90.719,52.365C91.881,53.66 92.352,53.582 92.376,52.09C92.4,50.511 95.894,50.13 106.715,50.527C114.583,50.815 121.018,50.524 121.016,49.879C121.014,49.233 118.537,48.707 115.511,48.707C112.486,48.707 110.011,48.025 110.011,47.193C110.011,46.361 111.654,46.129 113.665,46.675C116.636,47.485 117.067,46.964 115.973,43.892C114.66,40.197 114.708,40.181 118.116,43.238C120.939,45.768 121.351,45.841 120.277,43.628C119.547,42.125 119.52,39.839 120.215,38.55C121.969,35.306 127.597,35.6 127.683,38.941C127.747,41.442 128.022,41.424 130.913,38.711C132.651,37.08 133.551,35.147 132.913,34.414C132.275,33.681 132.968,33.081 134.451,33.081C135.934,33.081 136.51,32.63 135.733,32.076C134.955,31.525 132.893,31.914 131.153,32.941C129.263,34.055 122.86,34.617 115.287,34.334C102.741,33.869 102.64,33.826 106.851,30.848C109.195,29.192 111.234,27.258 111.386,26.551C111.538,25.847 111.784,24.565 111.936,23.706C112.088,22.846 113.45,22.32 114.961,22.534C116.475,22.75 117.465,22.046 117.161,20.971C116.823,19.765 119.073,19.018 123.056,19.018C126.598,19.018 130.937,17.996 132.695,16.749C134.451,15.501 136.554,14.952 137.368,15.529C138.18,16.107 138.129,15.254 137.256,13.635C136.301,11.868 136.517,11.066 137.799,11.629C138.972,12.144 141.194,11.132 142.737,9.379C144.277,7.626 144.64,6.585 143.542,7.066C142.446,7.549 141.546,6.888 141.546,5.6C141.546,4.313 142.785,3.596 144.299,4.008C145.813,4.421 147.502,3.924 148.052,2.903C149.467,0.289 110.429,0.852 107.001,3.494C105.113,4.95 105.214,5.13 107.423,4.239C109.835,3.268 109.839,3.63 107.443,6.354C105.852,8.163 103.742,9.643 102.75,9.643C101.76,9.643 101.566,10.351 102.319,11.216C103.074,12.082 102.147,13.21 100.262,13.724C98.376,14.238 97.382,15.287 98.053,16.057C98.722,16.826 98.22,17.456 96.939,17.456C95.659,17.456 94.856,18.246 95.159,19.213C95.461,20.181 94.334,21.326 92.653,21.76C90.781,22.243 90.191,21.865 91.133,20.784C91.978,19.812 91.562,19.018 90.209,19.018C88.856,19.018 88.361,18.315 89.109,17.456C89.857,16.596 89.362,15.893 88.009,15.893C86.656,15.893 86.123,15.234 86.825,14.426C87.527,13.619 86.647,12.382 84.871,11.676C83.094,10.969 80.35,8.29 78.772,5.721C76.423,1.888 74.594,1.044 68.596,1.027C64.574,1.014 60.119,2.028 58.696,3.28ZM157.434,1.694C156.602,2.65 157.511,3.393 159.515,3.393C161.777,3.393 162.472,4.105 161.423,5.346C160.389,6.568 161.372,6.44 164.043,5.007C170.527,1.527 170.811,1.258 166.934,2.241C164.963,2.739 162.354,2.439 161.133,1.572C159.639,0.511 158.428,0.552 157.434,1.694ZM164.648,9.554C162.49,12.248 162.037,13.84 163.548,13.423C166.4,12.634 172.043,4.949 169.76,4.964C168.965,4.971 166.666,7.035 164.648,9.554ZM147.414,13.382C147.414,13.719 148.899,14.401 150.715,14.896C152.53,15.39 154.015,15.113 154.015,14.282C154.015,13.449 152.53,12.768 150.715,12.768C148.899,12.768 147.414,13.044 147.414,13.382ZM162.816,22.143C162.816,23.003 163.865,23.706 165.146,23.706C166.426,23.706 166.864,23.003 166.116,22.143C165.368,21.284 164.321,20.581 163.786,20.581C163.251,20.581 162.816,21.284 162.816,22.143ZM159.751,32.498C157.982,35.906 151.159,44.661 148.048,47.516C144.07,51.165 143.018,54.859 146.204,53.99C147.834,53.544 149.832,53.944 150.644,54.876C151.456,55.809 153.056,56.159 154.202,55.655C155.348,55.152 155.718,54.088 155.025,53.29C153.238,51.238 160.972,42.428 163.559,43.564C164.767,44.094 164.987,43.688 164.065,42.63C163.17,41.6 163.43,39.906 164.644,38.867C166.142,37.586 165.955,35.786 164.061,33.275C161.478,29.848 161.157,29.789 159.751,32.498ZM193.687,33.862C193.687,34.722 194.646,36.48 195.819,37.769C196.991,39.058 197.951,39.41 197.951,38.55C197.951,37.691 196.991,35.933 195.819,34.644C194.646,33.355 193.687,33.003 193.687,33.862ZM104.913,39.625C104.211,40.87 103.69,40.5 103.584,38.68C103.489,37.033 104.009,36.111 104.739,36.63C105.47,37.148 105.549,38.497 104.913,39.625ZM115.511,37.769C116.259,38.628 115.822,39.331 114.541,39.331C113.261,39.331 112.211,38.628 112.211,37.769C112.211,36.909 112.647,36.206 113.181,36.206C113.716,36.206 114.763,36.909 115.511,37.769ZM107.214,48.088C106.484,48.607 104.585,48.663 102.999,48.211C101.243,47.713 101.764,47.343 104.328,47.268C106.647,47.2 107.945,47.569 107.214,48.088ZM138.569,58.901C137.038,60.21 136.213,61.585 136.732,61.956C137.254,62.324 138.888,61.254 140.365,59.574C143.56,55.941 142.495,55.543 138.569,58.901ZM72.607,61.207C72.607,62.067 71.558,62.77 70.277,62.77C68.997,62.77 68.559,62.067 69.307,61.207C70.055,60.348 71.102,59.645 71.637,59.645C72.172,59.645 72.607,60.348 72.607,61.207ZM170.426,64.437C169.628,65.353 169.447,66.439 170.024,66.848C170.6,67.257 171.658,66.507 172.376,65.181C173.863,62.428 172.596,61.943 170.426,64.437ZM130.823,67.562C130.024,68.478 129.843,69.564 130.42,69.973C130.996,70.383 132.055,69.632 132.772,68.306C134.259,65.553 132.992,65.068 130.823,67.562ZM220.089,66.676C220.089,67.536 221.049,69.293 222.221,70.583C223.395,71.872 224.353,72.223 224.353,71.364C224.353,70.504 223.395,68.747 222.221,67.457C221.049,66.168 220.089,65.817 220.089,66.676ZM28.559,74.526C27.028,75.836 26.333,77.303 27.01,77.786C27.69,78.269 29.351,77.197 30.702,75.405C33.585,71.579 32.515,71.142 28.559,74.526ZM50.605,73.708C48.623,74.617 48.35,75.231 49.926,75.247C51.367,75.259 53.158,74.567 53.906,73.708C55.593,71.767 54.832,71.767 50.605,73.708ZM124.222,75.375C123.423,76.291 123.243,77.377 123.819,77.786C124.396,78.195 125.454,77.445 126.171,76.119C127.659,73.365 126.391,72.881 124.222,75.375ZM136.968,76.833C137.593,78.481 141.069,79.227 148.686,79.345L159.515,79.513L149.65,78.847C144.224,78.48 138.952,77.35 137.931,76.334C136.651,75.059 136.354,75.212 136.968,76.833ZM18.183,77.933C15.477,78.303 10.526,78.312 7.182,77.955C3.838,77.595 6.051,77.292 12.102,77.28C18.152,77.269 20.889,77.562 18.183,77.933ZM50.328,78.827C51.27,79.494 67.807,79.844 87.076,79.603L122.112,79.167L85.362,78.391C65.151,77.964 49.384,78.159 50.328,78.827ZM208.509,79.528C212.463,79.875 218.405,79.869 221.711,79.513C225.017,79.155 221.781,78.87 214.521,78.88C207.261,78.888 204.557,79.18 208.509,79.528Z" clip-rule="evenodd" fill-rule="evenodd" fill="url(#pf_0_1_517)"/>
<path d="M59.124,3.002C56.389,5.48 56.466,5.535 59.955,3.593C63.621,1.55 64.785,0.267 62.974,0.267C62.518,0.267 60.785,1.497 59.124,3.002ZM107.528,3.002C104.793,5.48 104.87,5.535 108.36,3.593C112.025,1.55 113.189,0.267 111.378,0.267C110.923,0.267 109.189,1.497 107.528,3.002ZM146.223,1.935C145.424,2.85 145.244,3.936 145.82,4.346C146.397,4.755 147.455,4.005 148.172,2.678C149.66,-0.075 148.392,-0.559 146.223,1.935ZM140.769,8.899C139.237,10.208 138.412,11.583 138.931,11.954C139.453,12.323 141.088,11.252 142.564,9.572C145.759,5.94 144.694,5.541 140.769,8.899ZM41.804,23.706C40.508,25.425 39.944,26.831 40.549,26.831C41.154,26.831 42.708,25.425 44.004,23.706C45.3,21.987 45.863,20.581 45.258,20.581C44.653,20.581 43.099,21.987 41.804,23.706ZM114.41,22.235C114.41,23.145 115.4,23.456 116.61,22.924C117.821,22.393 118.811,21.649 118.811,21.27C118.811,20.89 117.821,20.581 116.61,20.581C115.4,20.581 114.41,21.326 114.41,22.235ZM65.962,29.212C64.43,30.522 63.605,31.897 64.125,32.267C64.646,32.636 66.281,31.565 67.757,29.886C70.952,26.253 69.887,25.854 65.962,29.212ZM159.75,32.498C157.981,35.906 151.158,44.661 148.047,47.516C144.069,51.165 143.017,54.858 146.203,53.99C147.833,53.544 149.831,53.944 150.643,54.876C151.455,55.808 153.055,56.159 154.201,55.655C155.347,55.152 155.717,54.088 155.024,53.29C153.237,51.238 160.971,42.428 163.558,43.564C164.766,44.094 164.986,43.688 164.064,42.63C163.169,41.6 163.429,39.906 164.643,38.867C166.141,37.586 165.954,35.786 164.06,33.275C161.477,29.848 161.156,29.789 159.75,32.498ZM33.003,34.644C31.707,36.362 31.144,37.769 31.749,37.769C32.354,37.769 33.907,36.362 35.203,34.644C36.499,32.925 37.062,31.519 36.457,31.519C35.852,31.519 34.299,32.925 33.003,34.644ZM193.686,33.862C193.686,34.722 194.645,36.48 195.818,37.769C196.99,39.058 197.95,39.409 197.95,38.55C197.95,37.691 196.99,35.933 195.818,34.644C194.645,33.355 193.686,33.003 193.686,33.862ZM59.361,37.025C57.83,38.334 57.005,39.709 57.524,40.08C58.045,40.449 59.68,39.378 61.157,37.698C64.351,34.066 63.286,33.667 59.361,37.025ZM49.414,48.811C48.615,49.727 48.435,50.813 49.011,51.222C49.588,51.632 50.646,50.882 51.363,49.555C52.851,46.802 51.583,46.318 49.414,48.811ZM42.813,56.624C42.015,57.54 41.834,58.626 42.411,59.035C42.987,59.445 44.046,58.695 44.763,57.368C46.25,54.615 44.983,54.13 42.813,56.624ZM138.568,58.901C137.037,60.21 136.212,61.585 136.731,61.956C137.253,62.324 138.887,61.254 140.364,59.574C143.558,55.941 142.494,55.543 138.568,58.901ZM170.425,64.437C169.626,65.353 169.446,66.439 170.023,66.848C170.599,67.257 171.657,66.507 172.375,65.181C173.862,62.427 172.595,61.943 170.425,64.437ZM34.013,67.562C33.214,68.478 33.034,69.564 33.61,69.973C34.186,70.382 35.245,69.632 35.962,68.306C37.449,65.553 36.182,65.068 34.013,67.562ZM130.822,67.562C130.023,68.478 129.842,69.564 130.419,69.973C130.995,70.382 132.054,69.632 132.771,68.306C134.258,65.553 132.991,65.068 130.822,67.562ZM220.089,66.676C220.089,67.535 221.047,69.293 222.221,70.582C223.393,71.872 224.353,72.223 224.353,71.364C224.353,70.504 223.393,68.746 222.221,67.457C221.047,66.168 220.089,65.817 220.089,66.676ZM28.558,74.526C27.027,75.836 26.332,77.303 27.009,77.786C27.689,78.269 29.35,77.197 30.701,75.405C33.584,71.579 32.514,71.142 28.558,74.526ZM124.221,75.375C123.422,76.29 123.242,77.376 123.818,77.786C124.395,78.195 125.453,77.445 126.17,76.119C127.658,73.365 126.39,72.881 124.221,75.375ZM136.967,76.833C137.592,78.481 141.068,79.227 148.685,79.345L159.514,79.512L149.649,78.847C144.223,78.48 138.951,77.35 137.93,76.334C136.65,75.059 136.353,75.212 136.967,76.833ZM1.441,78.786C2,79.431 7.351,79.958 13.331,79.958C19.311,79.958 24.202,79.431 24.202,78.786C24.202,78.141 18.851,77.614 12.31,77.614C5.771,77.614 0.88,78.141 1.441,78.786ZM50.327,78.827C51.269,79.494 67.806,79.844 87.075,79.603L122.111,79.167L85.361,78.391C65.15,77.964 49.383,78.159 50.327,78.827ZM208.509,79.528C212.463,79.875 218.403,79.869 221.709,79.512C225.017,79.155 221.781,78.87 214.519,78.88C207.259,78.887 204.555,79.18 208.509,79.528Z" clip-rule="evenodd" fill-rule="evenodd" fill="url(#pf_0_1_518)"/>
<defs>
<linearGradient id="pf_0_1_513" x1="113.969" y1="0.146" x2="113.969" y2="79.981" gradientUnits="userSpaceOnUse">
<stop stop-color="#D4CDC5"/>
<stop offset="1" stop-color="#6E6A66"/>
</linearGradient>
<linearGradient id="pf_0_1_514" x1="113.942" y1="0" x2="113.942" y2="79.982" gradientUnits="userSpaceOnUse">
<stop stop-color="#D4CDC5"/>
<stop offset="1" stop-color="#6E6A66"/>
</linearGradient>
<linearGradient id="pf_0_1_515" x1="113.86" y1="0.163" x2="113.86" y2="79.958" gradientUnits="userSpaceOnUse">
<stop stop-color="#D4CDC5"/>
<stop offset="1" stop-color="#6E6A66"/>
</linearGradient>
<linearGradient id="pf_0_1_516" x1="114.295" y1="0.781" x2="114.295" y2="80" gradientUnits="userSpaceOnUse">
<stop stop-color="#D4CDC5"/>
<stop offset="1" stop-color="#6E6A66"/>
</linearGradient>
<linearGradient id="pf_0_1_517" x1="112.613" y1="0.806" x2="112.613" y2="79.997" gradientUnits="userSpaceOnUse">
<stop stop-color="#D4CDC5"/>
<stop offset="1" stop-color="#6E6A66"/>
</linearGradient>
<linearGradient id="pf_0_1_518" x1="112.875" y1="0.267" x2="112.875" y2="79.958" gradientUnits="userSpaceOnUse">
<stop stop-color="#D4CDC5"/>
<stop offset="1" stop-color="#6E6A66"/>
</linearGradient>
</defs>
</svg>
