<svg width="88" height="88" viewBox="0 0 88 88" fill="none" xmlns="http://www.w3.org/2000/svg" xmlns:xlink="http://www.w3.org/1999/xlink">
<mask id="mask_0_i_1_3622;18_230" style="mask-type:alpha" maskUnits="userSpaceOnUse" x="0" y="0" width="44" height="44">
<path d="M44,88C68.301,88 88,68.301 88,44C88,19.699 68.301,0 44,0C19.699,0 0,19.699 0,44C0,68.301 19.699,88 44,88Z" clip-rule="evenodd" fill-rule="evenodd" fill="#91B1E7"/>
</mask>
<path d="M44,88C68.301,88 88,68.301 88,44C88,19.699 68.301,0 44,0C19.699,0 0,19.699 0,44C0,68.301 19.699,88 44,88Z" clip-rule="evenodd" fill-rule="evenodd" fill="#BDC4CD"/>
<path d="M34.302,67.603L22.691,73.847C22.01,74.213 16.624,76.399 16.054,76.89C26.828,85.003 36.338,86.811 45.886,86.811C55.363,86.811 65.79,81.651 72.54,76.1C71.918,75.582 69.497,74.297 68.748,73.93L56.315,67.801C54.708,67.009 53.693,65.39 53.693,63.62L53.693,58.81C54.043,58.418 54.442,57.914 54.87,57.319C56.564,54.959 57.846,52.363 58.735,49.64C60.329,49.155 61.504,47.703 61.504,45.977L61.504,40.843C61.504,39.714 60.995,38.704 60.203,37.998L60.203,30.576C60.203,30.576 61.749,19.027 45.886,19.027C30.022,19.027 31.568,30.576 31.568,30.576L31.568,37.998C30.775,38.704 30.267,39.714 30.267,40.843L30.267,45.977C30.267,47.329 30.988,48.519 32.067,49.207C33.368,54.791 36.775,58.81 36.775,58.81L36.775,63.501C36.774,65.209 35.825,66.783 34.302,67.603Z" fill="#DEE2E7"/>
</svg>
