<svg width="94" height="88" viewBox="0 0 94 88" fill="none" xmlns="http://www.w3.org/2000/svg" xmlns:xlink="http://www.w3.org/1999/xlink">
<mask id="mask_0_i_1_604;18_230" style="mask-type:alpha" maskUnits="userSpaceOnUse" x="0.915283" y="0" width="45.789829" height="44">
<path d="M46.705,88C71.994,88 92.495,68.301 92.495,44C92.495,19.699 71.994,0 46.705,0C21.416,0 0.915,19.699 0.915,44C0.915,68.301 21.416,88 46.705,88Z" clip-rule="evenodd" fill-rule="evenodd" fill="#91B1E7"/>
</mask>
<path d="M46.705,88C71.994,88 92.495,68.301 92.495,44C92.495,19.699 71.994,0 46.705,0C21.416,0 0.915,19.699 0.915,44C0.915,68.301 21.416,88 46.705,88Z" clip-rule="evenodd" fill-rule="evenodd" fill="#C7E1FF"/>
<path d="M36.613,67.602L24.53,73.847C23.821,74.213 18.215,76.399 17.622,76.89C28.835,85.003 38.731,86.811 48.668,86.811C58.531,86.811 69.382,81.651 76.407,76.1C75.759,75.582 73.239,74.297 72.46,73.929L59.521,67.801C57.849,67.009 56.793,65.39 56.793,63.619L56.793,58.81C57.157,58.417 57.572,57.914 58.017,57.319C59.781,54.959 61.115,52.363 62.039,49.639C63.699,49.154 64.921,47.702 64.921,45.976L64.921,40.843C64.921,39.713 64.391,38.704 63.567,37.998L63.567,30.576C63.567,30.576 65.177,19.027 48.668,19.027C32.158,19.027 33.768,30.576 33.768,30.576L33.768,37.998C32.942,38.704 32.414,39.713 32.414,40.843L32.414,45.976C32.414,47.329 33.164,48.519 34.287,49.206C35.641,54.791 39.187,58.81 39.187,58.81L39.187,63.501C39.185,65.209 38.198,66.783 36.613,67.602Z" fill="#FFFFFF"/>
</svg>
