<svg width="76" height="80" viewBox="0 0 76 80" fill="none" xmlns="http://www.w3.org/2000/svg" xmlns:xlink="http://www.w3.org/1999/xlink">
<path d="M0,12C0,5.373 5.373,0 12,0L76,0L76,80L12,80C5.373,80 0,74.627 0,68L0,12Z" clip-rule="evenodd" fill-rule="evenodd" fill="#FFFFFF" stroke="#DEE2E7" stroke-width="1" stroke-miterlimit="3.999327"/>
<path d="M36,22L20,22L20,38L36,38L36,22Z" fill="#1C1C1C"/>
<path d="M36,42L20,42L20,58L36,58L36,42Z" fill="#1C1C1C"/>
<path d="M56,22L40,22L40,38L56,38L56,22Z" fill="#1C1C1C"/>
<path d="M56,42L40,42L40,58L56,58L56,42Z" fill="#1C1C1C"/>
</svg>
