<svg width="88" height="80" viewBox="0 0 88 80" fill="none" xmlns="http://www.w3.org/2000/svg" xmlns:xlink="http://www.w3.org/1999/xlink">
<path d="M0,0L76,0C82.627,0 88,5.373 88,12L88,68C88,74.627 82.627,80 76,80L0,80L0,0Z" clip-rule="evenodd" fill-rule="evenodd" fill="#FFFFFF" stroke="#DEE2E7" stroke-width="1" stroke-miterlimit="3.999327"/>
<path d="M36.711,26.737C35.763,27.715 35.763,29.294 36.711,30.272L46.138,40.002L36.711,49.731C35.763,50.709 35.763,52.289 36.711,53.267C37.658,54.244 39.189,54.244 40.137,53.267L51.289,41.757C52.237,40.779 52.237,39.199 51.289,38.221L40.137,26.712C39.213,25.759 37.658,25.759 36.711,26.737Z" clip-rule="evenodd" fill-rule="evenodd" fill="#1C1C1C"/>
</svg>
