<svg width="88" height="80" viewBox="0 0 88 80" fill="none" xmlns="http://www.w3.org/2000/svg" xmlns:xlink="http://www.w3.org/1999/xlink">
<path d="M0,12C0,5.373 5.373,0 12,0L88,0L88,80L12,80C5.373,80 0,74.627 0,68L0,12Z" clip-rule="evenodd" fill-rule="evenodd" fill="#FFFFFF" stroke="#DEE2E7" stroke-width="1" stroke-miterlimit="3.999327"/>
<path d="M49.289,26.733C48.342,25.756 46.811,25.756 45.863,26.733L34.711,38.234C33.763,39.211 33.763,40.789 34.711,41.766L45.863,53.267C46.811,54.244 48.342,54.244 49.289,53.267C50.237,52.29 50.237,50.711 49.289,49.734L39.862,39.987L49.289,30.266C50.237,29.289 50.213,27.685 49.289,26.733Z" clip-rule="evenodd" fill-rule="evenodd" fill="#8B96A5"/>
</svg>
