<svg width="60" height="60" viewBox="0 0 60 60" fill="none" xmlns="http://www.w3.org/2000/svg" xmlns:xlink="http://www.w3.org/1999/xlink">
<path d="M30.035,35.79C33.221,35.79 35.804,33.213 35.804,30.033C35.804,26.855 33.221,24.279 30.035,24.279C26.849,24.279 24.266,26.855 24.266,30.033C24.266,33.213 26.849,35.79 30.035,35.79ZM36.678,24.139L40.734,24.139C41.197,24.139 41.574,23.764 41.574,23.302L41.574,19.254C41.574,18.793 41.197,18.418 40.734,18.418L36.678,18.418C36.215,18.418 35.838,18.793 35.838,19.254L35.838,23.302C35.838,23.764 36.215,24.139 36.678,24.139ZM45,41.441C45,43.406 43.404,45 41.434,45L18.566,45C16.597,45 15,43.406 15,41.441L15,18.557C15,16.592 16.597,15 18.566,15L41.434,15C43.404,15 45,16.592 45,18.557L45,41.441ZM30,0C13.431,0 0,13.431 0,30C0,46.567 13.431,60 30,60C46.569,60 60,46.567 60,30C60,13.431 46.569,0 30,0ZM39.161,30.034C39.161,35.054 35.068,39.139 30.035,39.139C25.003,39.139 20.91,35.054 20.91,30.034C20.91,29.202 21.022,28.393 21.234,27.627L18.427,27.627L18.427,40.673C18.427,41.136 18.802,41.511 19.265,41.511L40.803,41.511C41.268,41.511 41.643,41.136 41.643,40.673L41.643,27.627L38.837,27.627C39.048,28.393 39.161,29.202 39.161,30.034Z" clip-rule="evenodd" fill-rule="evenodd" fill="#BDC4CD"/>
</svg>
