<svg width="60" height="60" viewBox="0 0 60 60" fill="none" xmlns="http://www.w3.org/2000/svg" xmlns:xlink="http://www.w3.org/1999/xlink">
<path d="M45,31.132C45,33.561 44.7,35.989 44.7,35.989C44.7,35.989 44.408,38.055 43.507,38.966C42.368,40.161 41.089,40.166 40.502,40.236C36.304,40.539 30,40.549 30,40.549C30,40.549 22.2,40.478 19.8,40.249C19.132,40.123 17.632,40.161 16.493,38.966C15.592,38.055 15.3,35.989 15.3,35.989C15.3,35.989 15,33.561 15,31.132L15,28.856C15,26.428 15.3,24.002 15.3,24.002C15.3,24.002 15.592,21.934 16.493,21.023C17.632,19.828 18.911,19.823 19.498,19.753C23.696,19.449 29.994,19.449 29.994,19.449L30.006,19.449C30.006,19.449 36.304,19.449 40.502,19.753C41.089,19.823 42.368,19.828 43.507,21.023C44.408,21.934 44.7,24.002 44.7,24.002C44.7,24.002 45,26.428 45,28.856L45,31.132ZM30,0C13.431,0 0,13.431 0,30C0,46.567 13.431,60 30,60C46.569,60 60,46.567 60,30C60,13.431 46.569,0 30,0ZM26.903,33.891L35.008,29.691L26.901,25.461L26.903,33.891Z" clip-rule="evenodd" fill-rule="evenodd" fill="#BDC4CD"/>
</svg>
