<svg width="64" height="60" viewBox="0 0 64 60" fill="none" xmlns="http://www.w3.org/2000/svg" xmlns:xlink="http://www.w3.org/1999/xlink">
<path d="M47.05,31.132C47.05,33.561 46.735,35.989 46.735,35.989C46.735,35.989 46.428,38.055 45.483,38.966C44.286,40.161 42.943,40.166 42.327,40.236C37.919,40.539 31.3,40.549 31.3,40.549C31.3,40.549 23.11,40.478 20.59,40.249C19.889,40.123 18.314,40.161 17.117,38.966C16.172,38.055 15.865,35.989 15.865,35.989C15.865,35.989 15.55,33.561 15.55,31.132L15.55,28.856C15.55,26.428 15.865,24.002 15.865,24.002C15.865,24.002 16.172,21.934 17.117,21.023C18.314,19.828 19.657,19.823 20.273,19.753C24.681,19.449 31.294,19.449 31.294,19.449L31.306,19.449C31.306,19.449 37.919,19.449 42.327,19.753C42.943,19.823 44.286,19.828 45.483,21.023C46.428,21.934 46.735,24.002 46.735,24.002C46.735,24.002 47.05,26.428 47.05,28.856L47.05,31.132ZM31.3,0C13.902,0 -0.2,13.431 -0.2,30C-0.2,46.567 13.902,60 31.3,60C48.698,60 62.8,46.567 62.8,30C62.8,13.431 48.698,0 31.3,0ZM28.048,33.891L36.559,29.691L28.046,25.461L28.048,33.891Z" clip-rule="evenodd" fill-rule="evenodd" fill="#BDC4CD"/>
</svg>
