<svg width="64" height="60" viewBox="0 0 64 60" fill="none" xmlns="http://www.w3.org/2000/svg" xmlns:xlink="http://www.w3.org/1999/xlink">
<path d="M31.137,35.79C34.482,35.79 37.195,33.213 37.195,30.033C37.195,26.855 34.482,24.279 31.137,24.279C27.792,24.279 25.079,26.855 25.079,30.033C25.079,33.213 27.792,35.79 31.137,35.79ZM38.112,24.139L42.371,24.139C42.857,24.139 43.253,23.764 43.253,23.302L43.253,19.254C43.253,18.793 42.857,18.418 42.371,18.418L38.112,18.418C37.626,18.418 37.23,18.793 37.23,19.254L37.23,23.302C37.23,23.764 37.626,24.139 38.112,24.139ZM46.85,41.441C46.85,43.406 45.175,45 43.105,45L19.095,45C17.027,45 15.35,43.406 15.35,41.441L15.35,18.557C15.35,16.592 17.027,15 19.095,15L43.105,15C45.175,15 46.85,16.592 46.85,18.557L46.85,41.441ZM31.1,0C13.702,0 -0.4,13.431 -0.4,30C-0.4,46.567 13.702,60 31.1,60C48.498,60 62.6,46.567 62.6,30C62.6,13.431 48.498,0 31.1,0ZM40.719,30.034C40.719,35.054 36.421,39.139 31.137,39.139C25.853,39.139 21.555,35.054 21.555,30.034C21.555,29.202 21.673,28.393 21.896,27.627L18.949,27.627L18.949,40.673C18.949,41.136 19.342,41.511 19.829,41.511L42.444,41.511C42.932,41.511 43.326,41.136 43.326,40.673L43.326,27.627L40.378,27.627C40.601,28.393 40.719,29.202 40.719,30.034Z" clip-rule="evenodd" fill-rule="evenodd" fill="#BDC4CD"/>
</svg>
