<svg width="60" height="60" viewBox="0 0 60 60" fill="none" xmlns="http://www.w3.org/2000/svg" xmlns:xlink="http://www.w3.org/1999/xlink">
<path d="M41.929,23.882C41.94,24.146 41.948,24.411 41.948,24.679C41.948,32.811 35.756,42.189 24.435,42.189C20.959,42.189 17.724,41.171 15,39.426C15.482,39.482 15.971,39.51 16.468,39.51C19.352,39.51 22.005,38.528 24.112,36.876C21.418,36.827 19.146,35.048 18.362,32.603C18.739,32.674 19.123,32.711 19.521,32.711C20.081,32.711 20.625,32.636 21.142,32.496C18.326,31.931 16.206,29.443 16.206,26.462C16.206,26.436 16.206,26.409 16.206,26.383C17.034,26.844 17.985,27.122 18.994,27.154C17.342,26.049 16.254,24.165 16.254,22.031C16.254,20.903 16.558,19.845 17.089,18.936C20.124,22.659 24.66,25.11 29.775,25.367C29.67,24.917 29.616,24.446 29.616,23.964C29.616,20.565 32.372,17.809 35.769,17.809C37.541,17.809 39.141,18.557 40.262,19.753C41.664,19.477 42.982,18.966 44.171,18.261C43.712,19.697 42.735,20.903 41.466,21.666C42.711,21.516 43.896,21.186 45,20.696C44.175,21.93 43.131,23.014 41.929,23.882ZM30,0C13.431,0 0,13.431 0,30C0,46.567 13.431,60 30,60C46.569,60 60,46.567 60,30C60,13.431 46.569,0 30,0Z" clip-rule="evenodd" fill-rule="evenodd" fill="#BDC4CD"/>
</svg>
