<svg width="64" height="60" viewBox="0 0 64 60" fill="none" xmlns="http://www.w3.org/2000/svg" xmlns:xlink="http://www.w3.org/1999/xlink">
<path d="M43.225,23.882C43.237,24.146 43.245,24.411 43.245,24.679C43.245,32.811 36.744,42.189 24.857,42.189C21.207,42.189 17.811,41.171 14.95,39.426C15.456,39.482 15.97,39.51 16.491,39.51C19.519,39.51 22.305,38.528 24.518,36.876C21.689,36.827 19.303,35.048 18.48,32.603C18.876,32.674 19.279,32.711 19.697,32.711C20.285,32.711 20.856,32.636 21.4,32.496C18.443,31.931 16.216,29.443 16.216,26.462C16.216,26.436 16.216,26.409 16.216,26.383C17.086,26.844 18.084,27.122 19.143,27.154C17.409,26.049 16.267,24.165 16.267,22.031C16.267,20.903 16.586,19.845 17.143,18.936C20.331,22.659 25.093,25.11 30.464,25.367C30.353,24.917 30.296,24.446 30.296,23.964C30.296,20.565 33.19,17.809 36.758,17.809C38.618,17.809 40.298,18.557 41.475,19.753C42.948,19.477 44.332,18.966 45.58,18.261C45.097,19.697 44.072,20.903 42.739,21.666C44.046,21.516 45.29,21.186 46.45,20.696C45.584,21.93 44.487,23.014 43.225,23.882ZM30.7,0C13.302,0 -0.8,13.431 -0.8,30C-0.8,46.567 13.302,60 30.7,60C48.098,60 62.2,46.567 62.2,30C62.2,13.431 48.098,0 30.7,0Z" clip-rule="evenodd" fill-rule="evenodd" fill="#BDC4CD"/>
</svg>
