<svg width="62" height="60" viewBox="0 0 62 60" fill="none" xmlns="http://www.w3.org/2000/svg" xmlns:xlink="http://www.w3.org/1999/xlink">
<path d="M38.68,19.98L35.715,19.982C33.39,19.982 32.939,21.034 32.939,22.577L32.939,25.982L38.485,25.982L37.763,31.316L32.939,31.316L32.939,45L27.157,45L27.157,31.316L22.322,31.316L22.322,25.982L27.157,25.982L27.157,22.05C27.157,17.484 30.085,15 34.359,15C36.406,15 38.166,15.144 38.68,15.21L38.68,19.98ZM30.5,0C13.104,0 -1,13.431 -1,30C-1,46.567 13.104,60 30.5,60C47.898,60 62,46.567 62,30C62,13.431 47.898,0 30.5,0Z" clip-rule="evenodd" fill-rule="evenodd" fill="#BDC4CD"/>
</svg>
