<svg width="64" height="60" viewBox="0 0 64 60" fill="none" xmlns="http://www.w3.org/2000/svg" xmlns:xlink="http://www.w3.org/1999/xlink">
<path d="M40.68,19.98L37.715,19.982C35.39,19.982 34.939,21.034 34.939,22.577L34.939,25.982L40.485,25.982L39.763,31.316L34.939,31.316L34.939,45L29.157,45L29.157,31.316L24.322,31.316L24.322,25.982L29.157,25.982L29.157,22.05C29.157,17.484 32.085,15 36.359,15C38.406,15 40.166,15.144 40.68,15.21L40.68,19.98ZM32.5,0C15.104,0 1,13.431 1,30C1,46.567 15.104,60 32.5,60C49.898,60 64,46.567 64,30C64,13.431 49.898,0 32.5,0Z" clip-rule="evenodd" fill-rule="evenodd" fill="#BDC4CD"/>
</svg>
