<svg width="60" height="60" viewBox="0 0 60 60" fill="none" xmlns="http://www.w3.org/2000/svg" xmlns:xlink="http://www.w3.org/1999/xlink">
<path d="M37.791,19.98L34.967,19.982C32.752,19.982 32.323,21.034 32.323,22.577L32.323,25.982L37.605,25.982L36.917,31.316L32.323,31.316L32.323,45L26.816,45L26.816,31.316L22.211,31.316L22.211,25.982L26.816,25.982L26.816,22.05C26.816,17.484 29.604,15 33.675,15C35.625,15 37.301,15.144 37.791,15.21L37.791,19.98ZM30,0C13.432,0 0,13.431 0,30C0,46.567 13.432,60 30,60C46.569,60 60,46.567 60,30C60,13.431 46.569,0 30,0Z" clip-rule="evenodd" fill-rule="evenodd" fill="#BDC4CD"/>
</svg>
