<svg width="460" height="40" viewBox="0 0 460 40" fill="none" xmlns="http://www.w3.org/2000/svg" xmlns:xlink="http://www.w3.org/1999/xlink">
<rect  x="0" y="16" width="460" height="8" rx="4" fill="#AFD0FF"/>
<rect  x="107.5" y="16" width="215" height="8" rx="4" fill="#0D6EFD"/>
<g filter="url(#filterI1_1534;3_174)">
<path d="M116,40C127.046,40 136,31.046 136,20C136,8.954 127.046,0 116,0C104.954,0 96,8.954 96,20C96,31.046 104.954,40 116,40Z" clip-rule="evenodd" fill-rule="evenodd" fill="#FFFFFF" stroke="#AFD0FF" stroke-width="1" stroke-miterlimit="3.999327"/>
</g>
<g filter="url(#filterI1_1534;3_175)">
<path d="M312,40C323.046,40 332,31.046 332,20C332,8.954 323.046,0 312,0C300.954,0 292,8.954 292,20C292,31.046 300.954,40 312,40Z" clip-rule="evenodd" fill-rule="evenodd" fill="#FFFFFF" stroke="#AFD0FF" stroke-width="1" stroke-miterlimit="3.999327"/>
</g>
<defs>
<filter id="filterI1_1534;3_174" x="92" y="-4" width="28" height="28" filterUnits="userSpaceOnUse" color-interpolation-filters="sRGB">
<feFlood flood-opacity="0" result="BackgroundImageFix"/>
<feColorMatrix in="SourceAlpha" type="matrix" values="0 0 0 0 0 0 0 0 0 0 0 0 0 0 0 0 0 0 127 0" result="hardAlpha"/>
<feMorphology radius="0" operator="dilate" in="SourceAlpha" result="0dropshadow"/>
<feOffset dx="0" dy="2"/>
<feGaussianBlur stdDeviation="2"/>
<feComposite in2="hardAlpha" operator="out"/>
<feColorMatrix type="matrix" values="0 0 0 0 0.062745 0 0 0 0 0 0 0 0 0 0 0 0 0 0.1 0"/>
<feBlend mode="normal" in2="BackgroundImageFix" result="0dropshadow"/>
<feBlend mode="normal" in="SourceGraphic" in2="0dropshadow" result="shape"/>
</filter>
<filter id="filterI1_1534;3_175" x="288" y="-4" width="28" height="28" filterUnits="userSpaceOnUse" color-interpolation-filters="sRGB">
<feFlood flood-opacity="0" result="BackgroundImageFix"/>
<feColorMatrix in="SourceAlpha" type="matrix" values="0 0 0 0 0 0 0 0 0 0 0 0 0 0 0 0 0 0 127 0" result="hardAlpha"/>
<feMorphology radius="0" operator="dilate" in="SourceAlpha" result="0dropshadow"/>
<feOffset dx="0" dy="2"/>
<feGaussianBlur stdDeviation="2"/>
<feComposite in2="hardAlpha" operator="out"/>
<feColorMatrix type="matrix" values="0 0 0 0 0.062745 0 0 0 0 0 0 0 0 0 0 0 0 0 0.1 0"/>
<feBlend mode="normal" in2="BackgroundImageFix" result="0dropshadow"/>
<feBlend mode="normal" in="SourceGraphic" in2="0dropshadow" result="shape"/>
</filter>
</defs>
</svg>
