<svg width="1172" height="610" viewBox="0 0 1172 610" fill="none" xmlns="http://www.w3.org/2000/svg" xmlns:xlink="http://www.w3.org/1999/xlink">
<rect  x="0" y="0" width="610" height="610" fill="#F0F0F0"/>
<rect  x="30" y="16" width="550" height="550" fill="url(#pattern_0_1_3486)" style="mix-blend-mode:multiply"/>
<path d="M183.333,414.522L193.633,418.507L190.9,410.996L200,405.942L188.017,405.291L183.333,398.207L178.65,405.291L166.667,405.942L175.767,410.996L173.033,418.507L183.333,414.522Z" clip-rule="evenodd" fill-rule="evenodd" fill="#D4CDC5"/>
<path d="M150,414.522L160.3,418.507L157.567,410.996L166.667,405.942L154.683,405.291L150,398.207L145.317,405.291L133.333,405.942L142.433,410.996L139.7,418.507L150,414.522Z" clip-rule="evenodd" fill-rule="evenodd" fill="#FF9017"/>
<path d="M116.667,414.522L126.967,418.507L124.233,410.996L133.333,405.942L121.35,405.291L116.667,398.207L111.983,405.291L100,405.942L109.1,410.996L106.367,418.507L116.667,414.522Z" clip-rule="evenodd" fill-rule="evenodd" fill="#FF9017"/>
<path d="M83.333,414.522L93.633,418.507L90.9,410.996L100,405.942L88.017,405.291L83.333,398.207L78.65,405.291L66.667,405.942L75.767,410.996L73.033,418.507L83.333,414.522Z" clip-rule="evenodd" fill-rule="evenodd" fill="#FF9017"/>
<path d="M50,414.522L60.3,418.507L57.567,410.996L66.667,405.942L54.683,405.291L50,398.207L45.317,405.291L33.333,405.942L42.433,410.996L39.7,418.507L50,414.522Z" clip-rule="evenodd" fill-rule="evenodd" fill="#FF9017"/>
<rect  x="614" y="0" width="558" height="610" fill="#E7E7E7"/>
<rect  x="582" y="534" width="118" height="56" rx="60" fill="#000000" fill-opacity="0.25"/>
<path d="M624.667,560.666L608.44,560.666L615.893,553.213L614,551.333L603.333,562L614,572.666L615.88,570.786L608.44,563.333L624.667,563.333L624.667,560.666Z" fill="#FFFFFF"/>
<path d="M668,551.333L666.12,553.213L673.56,560.666L657.333,560.666L657.333,563.333L673.56,563.333L666.12,570.786L668,572.666L678.667,562L668,551.333Z" fill="#FFFFFF"/>
</svg>
