<svg width="200" height="156" viewBox="0 0 200 156" fill="none" xmlns="http://www.w3.org/2000/svg" xmlns:xlink="http://www.w3.org/1999/xlink">
<path d="M51.45,7.43C49.975,11.191 46.698,20.089 44.168,27.202C41.636,34.316 30.662,64.189 19.783,93.585C8.901,122.981 0,148.953 0,151.299C0,154.383 2.629,155.565 9.492,155.565C22.417,155.565 24.625,153.742 29.268,139.238C31.474,132.34 39.372,110.538 46.818,90.789L60.355,54.878L63.939,63.441C65.911,68.148 67.531,73.663 67.537,75.693C67.55,79.382 47.424,136.284 44.178,141.739C43.234,143.325 42.46,147.087 42.46,150.095C42.46,155.139 44.898,155.562 73.823,155.519C91.073,155.492 106.084,154.468 107.185,153.24C108.285,152.013 113.339,140.411 118.419,127.457C123.499,114.503 128.411,103.907 129.333,103.907C133.738,103.907 132.861,111.79 126.452,129.833C122.603,140.672 119.984,150.894 120.635,152.554C122.001,156.03 136.978,156.559 140.083,153.24C142.305,150.867 154.682,118.335 156.927,108.97C157.967,104.634 160.032,108.675 166.245,127.202C170.635,140.296 175.194,152.013 176.377,153.24C180.171,157.181 198.829,155.905 199.871,151.63C200.728,148.114 194.591,130.505 158.532,33.018C153.076,18.262 148.61,4.932 148.61,3.391C148.61,1.854 146.576,0.592 144.092,0.592C140.396,0.592 137.391,6.433 127.594,32.65C121.005,50.281 114.461,65.404 113.05,66.258C111.639,67.109 106.401,67.382 101.408,66.866L92.333,65.924L98.289,53.01C103.189,42.383 105.357,40.095 110.523,40.095C114.428,40.095 117.583,38.084 118.871,34.778C120.009,31.854 123.36,22.911 126.317,14.908L131.696,0.355L113.714,1.234L95.732,2.112L88.624,21.48L81.517,40.849L74.367,20.721C67.745,2.078 66.734,0.592 60.673,0.592C55.968,0.592 53.376,2.513 51.45,7.43ZM102.29,100.191C102.29,101.492 100.937,105.594 99.285,109.307C96.801,114.895 94.449,116.062 85.667,116.062L75.052,116.062L78.472,106.946C81.585,98.647 82.807,97.83 92.092,97.83C97.701,97.83 102.29,98.894 102.29,100.191Z" clip-rule="evenodd" fill-rule="evenodd" fill="url(#pf_0_1_715)"/>
<path d="M51.321,7.429C49.777,11.191 48.237,16.317 47.899,18.824C47.561,21.331 46.851,24.066 46.32,24.902C40.239,34.477 30.618,62.909 32.405,66.027C33.157,67.34 32.791,67.531 31.586,66.449C29.44,64.52 23.637,81.503 24.679,86.66C24.957,88.039 24.359,88.361 23.347,87.377C21.543,85.62 18.121,96.93 18.966,101.853C19.202,103.233 18.569,103.555 17.557,102.57C15.803,100.862 12.327,112.045 13.128,116.822C13.338,118.077 12.665,119.101 11.63,119.101C9.401,119.101 3.076,137.29 5.257,137.424C6.081,137.475 5.234,138.91 3.378,140.614C1.519,142.319 0,146.379 0,149.639C0,154.772 1.374,155.565 10.246,155.565C15.882,155.565 21.84,153.857 23.486,151.766C27.883,146.19 38.712,112.729 37.291,109.109C36.622,107.402 36.952,106.861 38.027,107.906C40.457,110.27 50.637,81.518 48.698,77.769C47.92,76.267 48.076,76.058 49.041,77.301C51.398,80.33 56.563,68.373 54.818,63.93C54.017,61.885 54.287,61.247 55.47,62.399C56.584,63.484 58,62.296 58.62,59.761C59.593,55.765 60.222,55.869 63.341,60.536C65.319,63.499 66.591,66.951 66.164,68.203C65.74,69.458 66.216,70.482 67.222,70.482C70.156,70.482 68.822,80.336 65.068,86.401C63.171,89.467 62.136,93.293 62.769,94.901C63.401,96.511 63.138,97.83 62.185,97.83C60.322,97.83 55.075,113.041 55.632,116.822C55.818,118.077 54.957,119.101 53.718,119.101C52.481,119.101 52.033,119.991 52.724,121.079C53.415,122.167 52.473,124.923 50.632,127.202C47.636,130.915 47.837,131.152 52.566,129.463C55.47,128.426 60.029,127.381 62.696,127.138C65.365,126.895 67.658,126.014 67.795,125.178C67.93,124.342 68.247,120.611 68.496,116.888C68.907,110.741 77.187,96.824 78.868,99.45C79.254,100.054 77.721,104.248 75.463,108.769C73.205,113.291 71.792,117.675 72.325,118.514C74.564,122.039 95.634,118.7 97.95,114.451C99.536,111.54 99.571,111.051 98.052,113.035C96.774,114.701 91.077,116.062 85.389,116.062L75.052,116.062L78.472,106.946C81.6,98.611 82.784,97.83 92.298,97.83C101.153,97.83 102.522,98.574 101.487,102.816C100.47,106.988 100.754,107.177 103.211,103.965C107.528,98.325 106.802,94.791 101.325,94.791C98.671,94.791 96.5,93.466 96.5,91.847C96.5,90.23 97.942,89.777 99.706,90.841C102.311,92.415 102.69,91.403 101.73,85.429C100.578,78.243 100.621,78.212 103.61,84.156C106.086,89.075 106.447,89.218 105.505,84.916C104.865,81.992 104.842,77.547 105.451,75.04C106.99,68.732 111.927,69.303 112.002,75.799C112.058,80.664 112.299,80.628 114.835,75.353C116.36,72.18 117.149,68.422 116.589,66.996C116.03,65.571 116.391,64.404 117.39,64.404C118.392,64.404 119.703,61.326 120.305,57.567C121.287,51.423 121.001,51.578 117.473,59.087C114.032,66.413 112.26,67.443 103.095,67.443C91.982,67.443 90.809,64.961 97.052,54.672C98.949,51.545 99.97,47.637 99.322,45.987C98.673,44.334 99.293,43.359 100.7,43.817C102.105,44.276 103.068,43.088 102.84,41.174C102.612,39.262 105.374,37.154 108.978,36.491C112.581,35.829 115.105,36.37 114.586,37.691C114.067,39.013 114.353,40.095 115.221,40.095C117.892,40.095 121.8,27.913 120.382,24.017C119.645,21.997 119.755,21.362 120.625,22.604C121.496,23.847 123.487,21.988 125.051,18.475C127.459,13.06 127.486,11.629 125.224,9.091C123.113,6.721 123.227,6.433 125.772,7.712C127.571,8.611 129.461,7.396 130.055,4.959C130.931,1.364 128.071,0.592 113.855,0.592C98.069,0.592 96.348,1.179 93.781,7.429C92.237,11.191 90.697,16.202 90.359,18.572C90.021,20.939 88.193,25.433 86.298,28.557C84.401,31.684 83.31,35.412 83.874,36.85C84.438,38.284 83.409,40.356 81.591,41.456C79.771,42.556 78.873,42.526 79.595,41.39C81.382,38.573 75.712,21.863 72.97,21.863C71.757,21.863 71.312,21.006 71.976,19.958C72.641,18.909 71.896,14.124 70.318,9.322C66.566,-2.103 55.682,-3.188 51.321,7.429ZM136.065,9.708C134.419,14.722 133.904,18.824 134.921,18.824C135.938,18.824 137.322,16.09 137.995,12.747C139.178,6.879 141.101,5.4 146.198,6.442C147.525,6.715 148.61,5.509 148.61,3.765C148.61,2.02 146.462,0.592 143.835,0.592C140.481,0.592 138.169,3.306 136.065,9.708ZM144.428,18.651C142.106,25.075 141.919,27.129 143.754,26.02C145.154,25.172 146.813,21.498 147.441,17.855C148.392,12.312 150.036,15.208 157.48,35.537C162.377,48.907 166.548,61.417 166.748,63.338C166.949,65.258 168.269,69.02 169.678,71.694C171.089,74.371 171.485,76.602 170.558,76.656C169.634,76.708 170.612,78.902 172.735,81.527C176.518,86.207 176.504,86.262 172.118,84.198C168.547,82.518 167.418,83.43 166.544,88.687C165.774,93.327 164.371,94.837 161.809,93.782C159.048,92.646 157.467,94.94 155.249,103.29C153.644,109.346 150.623,116.8 148.539,119.857C145.154,124.822 144.75,124.88 144.75,120.392C144.75,116.542 143.401,115.685 138.96,116.709C135.776,117.445 133.197,117.259 133.23,116.296C133.408,111.133 142.424,92.108 143.777,94.038C144.654,95.29 144.76,94.639 144.015,92.597C143.27,90.555 144.028,85.596 145.702,81.576C148.191,75.593 148.325,72.822 146.437,66.298C145.169,61.913 143.569,58.327 142.884,58.327C142.199,58.327 135.289,75.42 127.533,96.311C119.776,117.201 112.608,134.294 111.606,134.294C110.603,134.294 110.303,135.622 110.94,137.245C111.577,138.867 109.89,141.064 107.194,142.131C104.496,143.197 102.29,145.288 102.29,146.777C102.29,148.269 89.156,149.487 73.105,149.487C46.115,149.487 44.118,149.108 46.567,144.434C48.837,140.104 48.802,139.596 46.32,140.876C44.728,141.696 43.147,145.337 42.807,148.965C42.198,155.51 42.452,155.565 73.687,155.519C91.011,155.492 106.084,154.468 107.185,153.24C108.285,152.013 113.339,140.411 118.419,127.457C123.499,114.503 128.411,103.907 129.333,103.907C132.85,103.907 133.215,110.173 130.26,119.772C127.587,128.46 127.575,128.979 130.182,123.838C132.688,118.891 133.17,118.736 133.17,122.872C133.17,125.588 131.423,128.679 129.289,129.745C124.952,131.915 118.865,148.044 120.66,152.614C122.007,156.045 137.007,156.528 140.083,153.24C142.208,150.97 154.244,119.541 157.23,108.465C158.131,105.123 158.673,100.537 158.434,98.28C158.069,94.825 158.457,94.825 160.864,98.28C162.614,100.79 163.039,103.509 161.958,105.275C159.432,109.401 159.769,113.789 162.419,111.215C163.768,109.9 164.124,110.377 163.321,112.425C161.985,115.828 172.722,149.083 176.497,153.24C180.087,157.19 198.829,155.899 199.871,151.63C200.398,149.466 193.284,127.244 184.06,102.251C174.837,77.258 163.429,46.212 158.71,33.258C153.991,20.304 149.569,9.717 148.886,9.727C148.205,9.739 146.198,13.753 144.428,18.651ZM129.107,28.615C127.826,32.422 125.512,38.612 123.962,42.374C122.414,46.136 121.609,49.211 122.175,49.211C122.742,49.211 125.087,44.416 127.388,38.557C129.688,32.696 132.363,28.676 133.334,29.621C134.305,30.566 135.1,29.97 135.1,28.299C135.1,21.83 131.321,22.027 129.107,28.615ZM142.82,43.134C142.82,44.805 143.741,46.172 144.864,46.172C145.987,46.172 146.371,44.805 145.715,43.134C145.059,41.462 144.14,40.095 143.671,40.095C143.202,40.095 142.82,41.462 142.82,43.134ZM92.028,77.13C91.413,79.552 90.955,78.832 90.863,75.292C90.78,72.089 91.235,70.296 91.876,71.305C92.517,72.314 92.586,74.936 92.028,77.13ZM101.325,73.52C101.981,75.192 101.597,76.559 100.474,76.559C99.351,76.559 98.43,75.192 98.43,73.52C98.43,71.849 98.812,70.482 99.281,70.482C99.75,70.482 100.669,71.849 101.325,73.52ZM163.803,71.241C162.931,73.934 162.844,85.551 163.707,84.189C164.874,82.351 165.727,70.482 164.693,70.482C164.34,70.482 163.94,70.825 163.803,71.241ZM147.753,88.44C146.242,92.29 148.687,101.333 150.922,100.161C153.4,98.86 152.611,93.035 150.11,94.156C149.025,94.642 148.651,92.932 149.278,90.358C150.519,85.265 149.502,83.986 147.753,88.44ZM173.177,90.549C172.536,91.558 170.871,91.667 169.479,90.789C167.939,89.82 168.397,89.1 170.645,88.954C172.679,88.823 173.818,89.54 173.177,90.549ZM94.047,93.588C93.406,94.597 91.741,94.706 90.349,93.828C88.809,92.859 89.266,92.138 91.515,91.993C93.549,91.862 94.688,92.579 94.047,93.588ZM144.198,109.997C147.552,115.144 150.54,115.22 150.54,110.161C150.54,108.781 148.338,106.991 145.646,106.18C140.963,104.773 140.9,104.937 144.198,109.997ZM63.69,119.101C63.69,120.772 62.769,122.139 61.646,122.139C60.523,122.139 60.139,120.772 60.795,119.101C61.451,117.429 62.37,116.062 62.839,116.062C63.308,116.062 63.69,117.429 63.69,119.101ZM28.195,134.972C23.602,147.312 22.745,148.19 16.428,147.029C12.68,146.339 9.142,144.577 8.567,143.109C7.99,141.642 9.009,141.341 10.831,142.441C13.336,143.954 13.74,143.392 12.491,140.128C11.186,136.722 11.424,136.524 13.622,139.198C16.859,143.133 23.05,143.556 23.401,139.864C23.534,138.472 23.791,135.625 23.971,133.534C24.152,131.447 25.453,130.134 26.862,130.62C28.498,131.185 28.996,129.754 28.244,126.664C27.56,123.862 27.867,122.604 28.971,123.68C30.021,124.701 30.88,123.859 30.88,121.811C30.88,119.763 31.391,118.891 32.015,119.875C32.64,120.857 30.921,127.651 28.195,134.972ZM127.38,138.852C127.38,141.359 126.539,143.41 125.51,143.41C124.483,143.41 124.142,141.359 124.751,138.852C125.363,136.345 126.205,134.294 126.622,134.294C127.039,134.294 127.38,136.345 127.38,138.852ZM96.653,142.143C96.745,145.683 97.203,146.403 97.818,143.981C98.376,141.787 98.307,139.165 97.666,138.156C97.025,137.147 96.57,138.94 96.653,142.143Z" clip-rule="evenodd" fill-rule="evenodd" fill="url(#pf_0_1_716)"/>
<path d="M51.334,7.165C49.726,10.781 48.86,14.884 49.41,16.281C49.958,17.679 49.437,18.825 48.25,18.825C47.063,18.825 46.629,20.192 47.285,21.864C47.941,23.535 47.575,24.902 46.471,24.902C45.367,24.902 43.919,28.321 43.253,32.499C42.587,36.677 41.29,40.096 40.37,40.096C39.451,40.096 37.351,44.198 35.705,49.212C34.059,54.225 33.167,58.328 33.725,58.328C34.283,58.328 32.972,61.111 30.811,64.514C28.647,67.921 27.396,72.023 28.029,73.63C28.661,75.241 28.112,76.56 26.812,76.56C25.511,76.56 24.953,77.359 25.573,78.331C26.192,79.307 25.001,82.777 22.928,86.04C20.856,89.304 19.676,93.294 20.309,94.901C20.941,96.512 20.56,97.83 19.464,97.83C18.366,97.83 16.121,101.933 14.475,106.946C12.829,111.96 11.937,116.062 12.495,116.062C13.053,116.062 11.742,118.846 9.581,122.249C7.417,125.656 6.166,129.758 6.799,131.365C7.431,132.976 6.977,134.295 5.79,134.295C4.603,134.295 4.113,135.519 4.7,137.014C5.288,138.512 4.47,140.518 2.883,141.478C1.297,142.435 0,145.996 0,149.394C0,154.76 1.237,155.565 9.492,155.565C22.776,155.565 24.636,153.815 30.087,136.194C32.737,127.628 33.667,123.054 32.156,126.026C29.716,130.824 29.274,130.894 28.236,126.628C27.558,123.854 27.871,122.608 28.971,123.68C30.021,124.701 30.88,124.249 30.88,122.675C30.88,121.098 32.729,119.049 34.991,118.117C37.801,116.959 38.724,114.877 37.907,111.529C37.251,108.833 37.432,107.329 38.311,108.183C39.189,109.04 41.841,104.324 44.203,97.706C46.565,91.091 48.049,85.676 47.501,85.676C46.953,85.676 48.665,82.005 51.307,77.517C53.947,73.029 55.654,67.489 55.096,65.204C54.54,62.919 54.943,61.886 55.991,62.907C57.041,63.928 58.008,63.314 58.141,61.546C58.274,59.777 58.491,57.073 58.624,55.541C58.757,54.01 59.656,51.618 60.621,50.223C61.642,48.753 61.797,49.285 60.99,51.491C60.228,53.581 60.573,55.289 61.76,55.289C62.947,55.289 63.377,56.665 62.717,58.349C62.055,60.032 62.868,62.226 64.522,63.226C66.176,64.226 67.048,66.265 66.46,67.763C65.873,69.258 66.216,70.482 67.222,70.482C69.862,70.482 68.961,80.671 66.062,83.582C64.713,84.94 64.113,87.332 64.728,88.9C65.344,90.471 64.877,91.753 63.69,91.753C62.503,91.753 62.069,93.12 62.725,94.792C63.381,96.463 63.015,97.83 61.911,97.83C60.807,97.83 59.359,101.249 58.693,105.427C58.027,109.605 56.655,113.024 55.648,113.024C54.638,113.024 54.349,114.391 55.005,116.062C55.661,117.734 55.132,119.101 53.832,119.101C52.531,119.101 52.033,119.991 52.724,121.079C53.415,122.167 52.473,124.923 50.632,127.202C47.636,130.915 47.837,131.153 52.566,129.463C55.47,128.427 60.029,127.382 62.696,127.138C65.365,126.895 67.658,126.014 67.795,125.178C67.93,124.343 68.249,120.538 68.502,116.725C68.752,112.911 69.293,109.481 69.702,109.098C70.111,108.715 72.547,105.679 75.116,102.355C79.779,96.32 79.782,96.32 78.487,102.388C77.235,108.259 77.285,108.271 79.995,102.771C82.338,98.016 84.719,97.296 94.476,98.408C100.897,99.14 106.15,98.623 106.15,97.265C106.15,95.904 103.979,94.792 101.325,94.792C98.671,94.792 96.5,93.467 96.5,91.847C96.5,90.231 97.942,89.778 99.706,90.841C102.311,92.415 102.69,91.404 101.73,85.43C100.578,78.243 100.621,78.213 103.61,84.156C106.086,89.076 106.447,89.219 105.505,84.916C104.865,81.993 104.842,77.547 105.451,75.04C106.99,68.732 111.927,69.303 112.002,75.8C112.058,80.665 112.299,80.628 114.835,75.353C116.36,72.181 117.195,68.538 116.692,67.255C116.188,65.973 116.867,64.232 118.201,63.384C119.936,62.284 119.971,61.777 118.326,61.606C117.062,61.476 115.491,62.734 114.835,64.405C114.179,66.076 108.918,67.444 103.141,67.444C92.339,67.444 90.343,64.052 96.5,56.155C98.092,54.113 98.55,52.399 97.517,52.347C96.487,52.293 97.587,50.105 99.963,47.486C102.34,44.863 103.844,41.594 103.303,40.217C102.763,38.841 105.353,37.157 109.061,36.476C112.876,35.775 115.8,36.586 115.8,38.342C115.8,40.05 117.153,38.406 118.807,34.69C120.461,30.97 121.194,26.355 120.438,24.428C119.668,22.462 119.905,21.742 120.98,22.79C122.034,23.814 124.831,19.241 127.193,12.623L131.487,0.593L114.104,0.593C98.471,0.593 96.425,1.255 93.794,7.165C92.187,10.781 91.32,14.884 91.87,16.281C92.418,17.679 91.897,18.825 90.71,18.825C89.523,18.825 89.033,20.049 89.62,21.544C90.208,23.043 89.336,25.081 87.682,26.081C86.028,27.081 85.215,29.275 85.877,30.958C86.537,32.642 86.107,34.018 84.92,34.018C83.733,34.018 83.243,35.243 83.83,36.738C84.418,38.236 83.556,40.269 81.913,41.262C80.205,42.296 79.433,41.782 80.109,40.062C80.757,38.409 80.317,37.057 79.13,37.057C77.943,37.057 77.49,35.738 78.121,34.128C78.754,32.52 77.574,28.53 75.502,25.267C73.429,22.003 72.238,18.533 72.858,17.558C73.477,16.582 72.825,15.786 71.41,15.786C69.995,15.786 69.385,14.923 70.055,13.869C70.725,12.811 70.406,9.393 69.345,6.272C66.537,-1.987 55.154,-1.419 51.334,7.165ZM138.074,3.431C137.462,4.99 139.582,6.151 142.785,6.005C145.989,5.862 148.61,4.586 148.61,3.17C148.61,-0.34 139.466,-0.112 138.074,3.431ZM144.428,18.652C142.106,25.075 141.919,27.13 143.754,26.02C145.154,25.173 146.792,21.52 147.392,17.901C148.477,11.371 148.51,11.365 151.55,17.351C154.528,23.216 154.555,23.194 152.509,16.546C149.743,7.564 148.297,7.94 144.428,18.652ZM130.42,24.535C129.822,26.057 130.63,28.087 132.217,29.047C133.803,30.004 135.1,29.545 135.1,28.026C135.1,23.905 131.671,21.347 130.42,24.535ZM158.26,37.057C159.397,40.399 160.76,43.134 161.29,43.134C161.821,43.134 161.327,40.399 160.19,37.057C159.053,33.714 157.691,30.98 157.16,30.98C156.629,30.98 157.123,33.714 158.26,37.057ZM123.52,43.134C122.383,46.477 121.889,49.212 122.42,49.212C122.951,49.212 124.313,46.477 125.45,43.134C126.587,39.792 127.081,37.057 126.55,37.057C126.019,37.057 124.657,39.792 123.52,43.134ZM142.82,43.134C142.82,44.806 143.741,46.173 144.864,46.173C145.987,46.173 146.371,44.806 145.715,43.134C145.059,41.463 144.14,40.096 143.671,40.096C143.202,40.096 142.82,41.463 142.82,43.134ZM167.296,61.366C169.419,67.216 175.31,83.345 180.384,97.207C185.458,111.07 189.1,123.215 188.478,124.197C187.855,125.175 188.177,128.421 189.192,131.411C190.482,135.2 190.316,137.303 188.642,138.366C186.807,139.536 186.797,139.949 188.598,140.132C189.891,140.262 190.449,142.423 189.839,144.93C189.159,147.716 186.234,149.488 182.314,149.488C176.36,149.488 175.383,147.978 168.634,128.302C164.637,116.652 161.024,107.661 160.603,108.323C159.59,109.918 173.86,150.354 176.481,153.314C177.606,154.584 183.302,155.267 189.14,154.833C198.302,154.155 199.755,153.213 199.755,147.969C199.755,143.693 198.611,142.092 195.895,142.563C193.772,142.93 193.122,142.475 194.448,141.551C195.776,140.624 196.86,138.53 196.86,136.902C196.86,135.27 195.857,134.911 194.631,136.103C193.322,137.379 192.925,136.944 193.668,135.051C194.861,132.015 170.031,60.3 165.529,53.77C164.376,52.098 165.171,55.517 167.296,61.366ZM125.261,103.178L108.667,147.969L75.563,148.801C55.675,149.299 42.46,150.816 42.46,152.599C42.46,156.07 104.102,156.68 107.185,153.241C108.285,152.013 113.366,140.341 118.479,127.309C127.108,105.302 132.622,98.769 131.902,111.395C131.483,118.752 133.477,114.668 141.49,91.753C148.13,72.767 148.27,71.737 145.126,65.195C141.888,58.455 141.687,58.841 125.261,103.178ZM92.028,77.131C91.413,79.553 90.955,78.833 90.863,75.293C90.78,72.09 91.235,70.297 91.876,71.306C92.517,72.315 92.586,74.937 92.028,77.131ZM101.325,73.521C101.981,75.192 101.597,76.56 100.474,76.56C99.351,76.56 98.43,75.192 98.43,73.521C98.43,71.85 98.812,70.482 99.281,70.482C99.75,70.482 100.669,71.85 101.325,73.521ZM94.047,93.588C93.406,94.597 91.741,94.707 90.349,93.828C88.809,92.859 89.266,92.139 91.515,91.993C93.549,91.862 94.688,92.58 94.047,93.588ZM72.641,114.543C71.429,119.517 72.858,119.979 86.85,119.15C91.627,118.864 96.147,117.712 96.894,116.588C97.641,115.464 92.98,115.014 86.534,115.591C78.395,116.318 75.214,115.622 76.121,113.312C76.841,111.483 76.602,109.985 75.59,109.985C74.579,109.985 73.253,112.036 72.641,114.543ZM147.74,130.071L140.334,149.998L129.995,148.983C123.688,148.364 119.903,149.154 120.291,151.007C121.061,154.687 137.15,156.565 140.083,153.32C142.635,150.497 156.761,112.686 155.817,111.204C155.446,110.62 151.812,119.11 147.74,130.071ZM63.69,119.101C63.69,120.772 62.769,122.14 61.646,122.14C60.523,122.14 60.139,120.772 60.795,119.101C61.451,117.43 62.37,116.062 62.839,116.062C63.308,116.062 63.69,117.43 63.69,119.101ZM26.263,140.961C23.781,146.926 21.963,148.048 16.417,147.03C12.676,146.34 9.142,144.577 8.567,143.11C7.99,141.642 9.009,141.341 10.831,142.441C13.336,143.954 13.74,143.392 12.491,140.129C11.186,136.722 11.424,136.525 13.622,139.199C16.859,143.134 23.05,143.556 23.401,139.864C23.534,138.473 23.861,135.966 24.125,134.295C24.389,132.623 24.716,130.299 24.849,129.129C24.982,127.959 26.04,128.497 27.2,130.323C28.726,132.727 28.468,135.668 26.263,140.961ZM43.425,143.411C42.769,145.082 43.101,146.449 44.162,146.449C45.224,146.449 46.629,145.082 47.285,143.411C47.941,141.739 47.609,140.372 46.548,140.372C45.486,140.372 44.081,141.739 43.425,143.411Z" clip-rule="evenodd" fill-rule="evenodd" fill="url(#pf_0_1_717)"/>
<path d="M51.462,6.493C49.659,10.009 49.786,10.416 52.11,8.548C53.836,7.159 53.652,7.967 51.659,10.544C49.817,12.92 48.876,15.758 49.566,16.846C50.257,17.934 49.759,18.824 48.459,18.824C47.158,18.824 46.629,20.192 47.285,21.863C47.941,23.534 47.557,24.902 46.434,24.902C45.311,24.902 44.39,26.752 44.39,29.016C44.39,31.28 42.205,36.844 39.534,41.38C36.863,45.917 35.176,50.904 35.788,52.459C36.398,54.015 35.833,55.288 34.532,55.288C33.231,55.288 32.673,56.088 33.293,57.06C33.912,58.035 32.721,61.506 30.649,64.769C28.576,68.033 27.397,72.022 28.03,73.63C28.661,75.24 28.113,76.559 26.812,76.559C25.511,76.559 25.013,77.449 25.704,78.537C26.395,79.625 25.453,82.463 23.612,84.84C21.379,87.726 21.228,88.51 23.16,87.194C24.752,86.11 24.368,87.377 22.309,90.008C20.248,92.64 19.329,94.791 20.265,94.791C21.201,94.791 20.283,96.943 18.221,99.574C16.162,102.206 15.778,103.473 17.37,102.388C19.302,101.072 19.152,101.856 16.919,104.743C15.077,107.119 14.135,109.957 14.826,111.045C15.517,112.133 14.925,113.023 13.51,113.023C12.095,113.023 11.503,113.914 12.194,115.001C12.885,116.089 11.943,118.927 10.102,121.304C7.869,124.19 7.718,124.974 9.65,123.659C11.582,122.343 11.432,123.127 9.198,126.014C7.357,128.39 6.415,131.228 7.106,132.316C7.797,133.404 7.299,134.294 5.999,134.294C4.698,134.294 4.123,135.546 4.723,137.074C5.323,138.603 4.802,140.383 3.567,141.031C2.33,141.681 1.027,145.215 0.672,148.889C0.079,154.996 0.832,155.565 9.503,155.565C22.35,155.565 24.621,153.729 29.174,139.678C31.33,133.024 32.252,128.399 31.224,129.402C30.197,130.401 28.84,129.107 28.209,126.521C27.553,123.832 27.879,122.616 28.971,123.68C30.021,124.701 30.88,124.087 30.88,122.319C30.88,120.55 32.152,119.101 33.708,119.101C35.261,119.101 37.519,116.202 38.726,112.656C40.497,107.444 40.418,106.666 38.311,108.596C36.877,109.906 38.143,107.332 41.121,102.871C44.101,98.413 46.004,93.403 45.349,91.74C44.697,90.075 45.228,88.714 46.529,88.714C47.829,88.714 48.407,87.945 47.81,87.006C47.214,86.067 48.837,81.713 51.417,77.328C53.998,72.946 55.654,67.489 55.096,65.204C54.54,62.919 54.943,61.885 55.991,62.906C57.041,63.927 58.008,63.314 58.141,61.545C58.275,59.777 58.491,57.072 58.624,55.541C58.757,54.009 59.657,51.618 60.622,50.223C61.642,48.752 61.797,49.284 60.99,51.49C60.228,53.581 60.573,55.288 61.76,55.288C62.947,55.288 63.437,56.513 62.851,58.008C62.262,59.506 63.134,61.545 64.788,62.545C66.442,63.544 67.255,65.738 66.593,67.422C65.933,69.105 66.166,70.482 67.114,70.482C69.656,70.482 68.594,83.609 65.939,85.001C64.688,85.657 64.157,87.444 64.757,88.972C65.358,90.501 64.877,91.753 63.69,91.753C62.503,91.753 62.069,93.12 62.725,94.791C63.381,96.462 63.092,97.83 62.083,97.83C61.075,97.83 59.703,101.248 59.037,105.427C58.371,109.605 56.924,113.023 55.82,113.023C54.716,113.023 54.349,114.391 55.005,116.062C55.661,117.733 55.227,119.101 54.04,119.101C52.853,119.101 52.386,120.383 53.002,121.954C53.618,123.522 52.583,126.275 50.703,128.071C47.901,130.751 48.237,131 52.566,129.459C55.47,128.426 60.029,127.381 62.696,127.138C65.365,126.895 67.658,126.014 67.795,125.178C67.93,124.342 68.249,120.538 68.502,116.724C68.753,112.911 69.293,109.48 69.702,109.097C70.111,108.714 72.547,105.679 75.116,102.354C79.779,96.32 79.783,96.32 78.488,102.388C77.235,108.259 77.285,108.271 79.995,102.771C82.338,98.015 84.72,97.295 94.476,98.407C100.897,99.14 106.15,98.623 106.15,97.265C106.15,95.903 103.979,94.791 101.325,94.791C98.671,94.791 96.5,93.466 96.5,91.847C96.5,90.23 97.942,89.777 99.706,90.841C102.311,92.415 102.69,91.403 101.731,85.429C100.578,78.243 100.621,78.212 103.61,84.156C106.087,89.075 106.447,89.218 105.506,84.915C104.865,81.992 104.842,77.547 105.452,75.04C106.99,68.732 111.927,69.303 112.002,75.799C112.058,80.664 112.299,80.628 114.835,75.353C116.36,72.18 117.196,68.537 116.692,67.255C116.188,65.972 116.868,64.231 118.201,63.383C119.936,62.283 119.971,61.776 118.327,61.606C117.062,61.475 115.491,62.733 114.835,64.404C114.179,66.076 108.266,67.422 101.694,67.398C93.267,67.364 90.598,66.483 92.64,64.404C94.232,62.785 94.717,61.439 93.719,61.411C92.719,61.387 93.588,59.357 95.649,56.905C97.708,54.45 98.55,52.399 97.517,52.347C96.487,52.292 97.587,50.104 99.963,47.485C102.34,44.863 103.784,41.444 103.174,39.888C102.562,38.33 104.228,37.056 106.876,37.056C114.92,37.056 122.123,31.468 120.843,26.22C120.216,23.65 120.423,22.246 121.301,23.1C122.179,23.957 124.709,19.581 126.923,13.382L130.947,2.112L113.494,2.622C102.559,2.944 95.228,4.527 93.86,6.867C92.189,9.72 92.357,10.085 94.57,8.411C96.386,7.034 96.217,7.83 94.119,10.544C92.277,12.92 91.336,15.758 92.026,16.846C92.717,17.934 92.22,18.824 90.919,18.824C89.618,18.824 89.093,20.201 89.753,21.884C90.415,23.568 89.602,25.762 87.948,26.761C86.294,27.761 85.422,29.8 86.011,31.298C86.597,32.793 86.157,34.018 85.034,34.018C83.911,34.018 83.206,35.555 83.473,37.436C83.737,39.317 82.749,41.544 81.274,42.389C79.632,43.328 79.115,42.593 79.941,40.49C80.682,38.6 80.317,37.056 79.13,37.056C77.943,37.056 77.509,35.689 78.165,34.018C78.821,32.346 78.387,30.979 77.2,30.979C76.013,30.979 75.583,29.602 76.243,27.919C76.905,26.236 76.092,24.042 74.438,23.042C72.784,22.042 71.912,20.003 72.501,18.505C73.087,17.01 72.597,15.786 71.41,15.786C70.223,15.786 69.789,14.418 70.445,12.747C71.101,11.076 70.717,9.708 69.594,9.708C68.471,9.708 67.768,8.192 68.033,6.338C68.77,1.188 54.112,1.325 51.462,6.493ZM138.1,3.367C137.37,5.226 138.167,6.67 139.925,6.67C141.658,6.67 142.479,8.122 141.767,9.933C141.062,11.726 142.315,11.398 144.548,9.201C146.783,7.004 148.61,4.002 148.61,2.528C148.61,1.054 147.46,1.352 146.055,3.187C144.25,5.545 142.897,5.576 141.448,3.294C139.999,1.012 139.014,1.033 138.1,3.367ZM144.428,18.651C142.106,25.075 141.919,27.129 143.754,26.02C145.154,25.172 146.761,21.705 147.325,18.308C147.973,14.403 149.216,12.978 150.708,14.43C152.216,15.898 152.571,15.461 151.689,13.218C149.554,7.776 147.914,9.003 144.428,18.651ZM129.31,26.096C129.31,26.752 130.613,28.077 132.205,29.04C133.798,30.001 135.1,29.463 135.1,27.846C135.1,26.227 133.798,24.902 132.205,24.902C130.613,24.902 129.31,25.439 129.31,26.096ZM142.82,43.134C142.82,44.805 143.741,46.172 144.864,46.172C145.987,46.172 146.371,44.805 145.715,43.134C145.059,41.462 144.14,40.095 143.671,40.095C143.202,40.095 142.82,41.462 142.82,43.134ZM135.619,75.723C120.112,119.511 117.821,126.311 120.496,120.62C122.067,117.277 124.599,111.859 126.122,108.581C128.386,103.707 129.42,103.306 131.781,106.39C134.218,109.577 135.6,107.56 140.674,93.409C147.336,74.821 147.792,70.998 144.258,63.39C142.106,58.756 141.139,60.138 135.619,75.723ZM170.805,70.482C172.452,75.496 174.233,79.598 174.764,79.598C175.295,79.598 174.382,75.496 172.735,70.482C171.089,65.468 169.308,61.366 168.777,61.366C168.246,61.366 169.159,65.468 170.805,70.482ZM92.028,77.13C91.413,79.552 90.955,78.832 90.863,75.292C90.78,72.089 91.235,70.296 91.876,71.305C92.517,72.314 92.586,74.936 92.028,77.13ZM101.325,73.52C101.981,75.192 101.597,76.559 100.474,76.559C99.351,76.559 98.43,75.192 98.43,73.52C98.43,71.849 98.812,70.482 99.281,70.482C99.75,70.482 100.669,71.849 101.325,73.52ZM178.525,91.753C180.172,96.766 181.953,100.869 182.484,100.869C183.015,100.869 182.102,96.766 180.455,91.753C178.809,86.739 177.028,82.636 176.497,82.636C175.966,82.636 176.879,86.739 178.525,91.753ZM94.047,93.588C93.406,94.597 91.741,94.706 90.349,93.828C88.809,92.859 89.267,92.138 91.515,91.993C93.549,91.862 94.688,92.579 94.047,93.588ZM186.245,113.023C187.892,118.037 189.673,122.139 190.204,122.139C190.735,122.139 189.822,118.037 188.175,113.023C186.529,108.009 184.748,103.907 184.217,103.907C183.686,103.907 184.599,108.009 186.245,113.023ZM153.559,115.172C152.513,119.502 152.733,119.851 154.64,116.873C155.96,114.81 156.552,112.358 155.958,111.425C155.363,110.489 154.285,112.175 153.559,115.172ZM163.085,119.101C164.732,124.114 166.513,128.217 167.044,128.217C167.575,128.217 166.662,124.114 165.015,119.101C163.369,114.087 161.588,109.985 161.057,109.985C160.526,109.985 161.439,114.087 163.085,119.101ZM63.69,119.101C63.69,120.772 62.77,122.139 61.646,122.139C60.523,122.139 60.139,120.772 60.795,119.101C61.451,117.429 62.37,116.062 62.839,116.062C63.308,116.062 63.69,117.429 63.69,119.101ZM145.719,136.078L140.531,150.016L130.092,148.992C118.778,147.883 116.269,153.328 127.313,155.03C137.986,156.671 141.581,153.501 147.275,137.436C154.051,118.304 152.756,117.174 145.719,136.078ZM194.739,135.986C196.968,141.933 198.79,147.403 198.79,148.141C198.79,148.883 193.602,149.487 187.261,149.487C176.4,149.487 175.555,148.956 172.735,140.371C171.089,135.357 169.308,131.255 168.777,131.255C167.252,131.255 173.999,150.758 176.383,153.24C180.287,157.306 198.831,155.893 199.916,151.447C200.85,147.609 193.796,125.178 191.653,125.178C191.122,125.178 192.512,130.043 194.739,135.986ZM26.536,141.161C24.094,147.032 22.28,148.105 16.583,147.056C12.75,146.354 9.143,144.577 8.567,143.109C7.99,141.641 9.009,141.341 10.831,142.441C13.336,143.954 13.74,143.392 12.491,140.128C11.186,136.722 11.424,136.524 13.622,139.198C16.859,143.133 23.05,143.556 23.401,139.864C23.535,138.472 23.861,135.965 24.125,134.294C24.39,132.623 24.716,130.298 24.849,129.128C24.982,127.958 26.088,128.572 27.308,130.493C28.977,133.121 28.786,135.756 26.536,141.161ZM113.87,134.294C112.733,137.637 112.239,140.371 112.77,140.371C113.301,140.371 114.663,137.637 115.8,134.294C116.937,130.951 117.431,128.217 116.9,128.217C116.37,128.217 115.007,130.951 113.87,134.294ZM44.39,143.41C42.651,145.178 42.412,146.373 43.794,146.403C45.058,146.427 46.629,145.081 47.285,143.41C48.765,139.636 48.098,139.636 44.39,143.41ZM109.045,146.449C108.325,148.281 94.871,149.487 75.156,149.487C54.646,149.487 42.46,150.621 42.46,152.526C42.46,154.428 54.316,155.565 74.168,155.565C100.418,155.565 106.397,154.744 108.908,150.791C110.576,148.162 111.94,145.428 111.94,144.714C111.94,142.349 110.259,143.358 109.045,146.449Z" clip-rule="evenodd" fill-rule="evenodd" fill="url(#pf_0_1_718)"/>
<path d="M51.487,6.451C49.654,10.018 49.775,10.425 52.111,8.548C53.836,7.159 53.653,7.967 51.659,10.544C49.818,12.92 48.876,15.758 49.567,16.846C50.258,17.934 49.76,18.824 48.459,18.824C47.158,18.824 46.629,20.192 47.286,21.863C47.942,23.534 47.558,24.902 46.435,24.902C45.311,24.902 44.391,26.752 44.391,29.016C44.391,31.28 42.206,36.844 39.535,41.38C36.864,45.917 35.177,50.904 35.789,52.459C36.399,54.015 35.833,55.288 34.532,55.288C33.231,55.288 32.674,56.088 33.293,57.06C33.913,58.035 32.722,61.506 30.649,64.769C28.576,68.033 27.397,72.022 28.03,73.63C28.661,75.24 28.113,76.559 26.812,76.559C25.511,76.559 25.013,77.449 25.704,78.537C26.395,79.625 25.453,82.463 23.612,84.84C21.379,87.726 21.229,88.51 23.161,87.195C24.753,86.11 24.369,87.377 22.309,90.008C20.248,92.64 19.33,94.791 20.266,94.791C21.202,94.791 20.283,96.943 18.222,99.574C16.162,102.206 15.778,103.473 17.371,102.388C19.303,101.072 19.152,101.856 16.919,104.743C15.078,107.119 14.136,109.957 14.827,111.045C15.518,112.133 14.925,113.023 13.511,113.023C12.096,113.023 11.503,113.914 12.194,115.001C12.885,116.089 11.943,118.927 10.102,121.304C7.869,124.19 7.719,124.974 9.651,123.659C11.583,122.343 11.432,123.127 9.199,126.014C7.358,128.39 6.416,131.228 7.107,132.316C7.798,133.404 7.3,134.294 5.999,134.294C4.698,134.294 4.113,135.519 4.7,137.014C5.289,138.512 4.54,140.478 3.038,141.383C1.535,142.292 0.535,145.513 0.811,148.539C1.504,156.084 21.231,158.622 21.231,151.165C21.231,147.971 19.399,146.449 15.554,146.449C12.432,146.449 9.348,145.096 8.699,143.443C7.999,141.66 8.865,141.253 10.832,142.441C13.337,143.954 13.74,143.392 12.492,140.128C11.187,136.722 11.424,136.524 13.623,139.198C16.859,143.133 23.051,143.556 23.402,139.864C23.535,138.472 23.861,135.965 24.126,134.294C24.39,132.623 24.745,130.231 24.911,128.976C25.077,127.721 26.386,129.131 27.82,132.103C30.128,136.898 30.556,136.965 31.595,132.705C32.239,130.064 31.998,128.648 31.06,129.56C30.122,130.474 28.841,129.107 28.21,126.521C27.58,123.938 27.766,122.504 28.621,123.34C29.478,124.172 31.363,122.264 32.811,119.101C34.258,115.937 36.063,113.95 36.819,114.688C37.578,115.424 38.711,113.914 39.342,111.328C40.04,108.459 39.687,107.408 38.437,108.626C37.308,109.723 37.493,107.83 38.844,104.421C40.197,101.011 41.997,98.9 42.847,99.726C43.696,100.553 44.499,99.778 44.632,98.009C45.4,87.763 48.401,76.346 49.934,77.838C50.706,78.589 52.445,76.416 53.797,73.007C55.148,69.598 55.334,67.704 54.205,68.801C52.954,70.02 52.601,68.969 53.3,66.1C53.931,63.514 55.222,62.156 56.173,63.083C57.123,64.006 58.009,63.314 58.142,61.545C58.275,59.777 58.491,57.072 58.624,55.541C58.758,54.009 59.657,51.618 60.622,50.223C61.643,48.752 61.797,49.284 60.991,51.49C60.228,53.581 60.574,55.288 61.761,55.288C62.948,55.288 63.438,56.513 62.851,58.008C62.262,59.506 63.135,61.545 64.789,62.545C66.443,63.545 67.255,65.738 66.593,67.422C65.933,69.105 66.308,70.482 67.425,70.482C70.135,70.482 68.78,83.512 65.914,85.016C64.679,85.663 64.158,87.444 64.758,88.972C65.358,90.501 64.878,91.753 63.691,91.753C62.504,91.753 62.069,93.12 62.726,94.791C63.382,96.462 63.092,97.83 62.083,97.83C61.076,97.83 59.703,101.248 59.037,105.427C58.372,109.605 56.924,113.023 55.82,113.023C54.716,113.023 54.349,114.391 55.006,116.062C55.662,117.733 55.228,119.101 54.041,119.101C52.854,119.101 52.387,120.383 53.002,121.954C53.618,123.522 52.584,126.275 50.704,128.071C47.901,130.751 48.237,131 52.566,129.459C55.471,128.426 60.029,127.381 62.697,127.138C65.366,126.895 67.659,126.014 67.796,125.178C67.931,124.342 68.247,120.611 68.496,116.888C69.072,108.292 77.535,96.848 79.578,101.905C80.597,104.424 81.011,104.272 81.032,101.37C81.053,98.301 84.118,97.559 93.61,98.331C100.511,98.89 106.157,98.325 106.155,97.07C106.153,95.815 103.979,94.791 101.326,94.791C98.672,94.791 96.501,93.466 96.501,91.847C96.501,90.23 97.942,89.777 99.706,90.841C102.312,92.415 102.69,91.403 101.731,85.429C100.579,78.243 100.621,78.212 103.611,84.156C106.087,89.075 106.448,89.218 105.506,84.916C104.865,81.992 104.842,77.547 105.452,75.04C106.99,68.732 111.927,69.303 112.002,75.8C112.058,80.664 112.3,80.628 114.836,75.353C116.36,72.18 117.15,68.422 116.59,66.996C116.03,65.571 116.638,64.404 117.939,64.404C119.24,64.404 119.746,63.526 119.064,62.451C118.381,61.378 116.573,62.135 115.046,64.131C113.388,66.298 107.772,67.391 101.129,66.841C90.124,65.936 90.035,65.854 93.729,60.062C95.785,56.841 97.574,53.079 97.707,51.706C97.84,50.335 98.056,47.844 98.189,46.172C98.323,44.501 99.517,43.477 100.843,43.893C102.171,44.313 103.04,42.945 102.773,40.855C102.476,38.509 104.45,37.056 107.944,37.056C111.051,37.056 114.857,35.069 116.399,32.644C117.939,30.216 119.784,29.15 120.498,30.271C121.211,31.395 121.166,29.736 120.4,26.588C119.562,23.151 119.751,21.593 120.877,22.686C121.905,23.689 123.855,21.72 125.208,18.311C126.559,14.901 126.877,12.878 125.914,13.814C124.953,14.752 124.163,13.467 124.163,10.963C124.163,8.459 125.25,7.065 126.578,7.867C127.906,8.669 129.388,7.703 129.87,5.718C131.111,0.635 96.867,1.729 93.86,6.867C92.205,9.699 92.293,10.049 94.231,8.317C96.346,6.427 96.35,7.131 94.248,12.428C92.853,15.947 91.002,18.824 90.132,18.824C89.263,18.824 89.093,20.201 89.753,21.884C90.415,23.568 89.603,25.762 87.949,26.761C86.295,27.761 85.422,29.8 86.011,31.298C86.598,32.793 86.158,34.018 85.035,34.018C83.911,34.018 83.207,35.555 83.473,37.436C83.738,39.317 82.749,41.545 81.275,42.389C79.632,43.328 79.115,42.593 79.941,40.49C80.682,38.6 80.318,37.056 79.131,37.056C77.944,37.056 77.509,35.689 78.166,34.018C78.822,32.346 78.388,30.979 77.201,30.979C76.014,30.979 75.547,29.697 76.162,28.126C76.778,26.558 76.006,24.151 74.449,22.778C72.889,21.404 70.482,16.193 69.099,11.197C67.037,3.743 65.433,2.102 60.172,2.069C56.644,2.045 52.736,4.017 51.487,6.451ZM138.1,3.367C137.37,5.226 138.168,6.67 139.926,6.67C141.91,6.67 142.52,8.055 141.599,10.468C140.692,12.844 141.555,12.595 143.898,9.809C149.585,3.041 149.834,2.519 146.434,4.43C144.704,5.399 142.415,4.816 141.344,3.13C140.034,1.066 138.972,1.145 138.1,3.367ZM144.428,18.651C142.535,23.89 142.138,26.986 143.463,26.175C145.965,24.64 150.915,9.696 148.912,9.727C148.215,9.739 146.198,13.753 144.428,18.651ZM129.311,26.096C129.311,26.752 130.613,28.077 132.206,29.04C133.798,30.001 135.101,29.463 135.101,27.846C135.101,26.227 133.798,24.902 132.206,24.902C130.613,24.902 129.311,25.44 129.311,26.096ZM142.821,43.134C142.821,44.805 143.741,46.172 144.865,46.172C145.988,46.172 146.372,44.805 145.716,43.134C145.06,41.462 144.141,40.095 143.672,40.095C143.203,40.095 142.821,41.462 142.821,43.134ZM140.132,63.271C138.581,69.898 132.596,86.924 129.867,92.476C126.377,99.571 125.455,106.754 128.249,105.065C129.679,104.199 131.432,104.977 132.144,106.788C132.856,108.602 134.259,109.283 135.265,108.304C136.27,107.326 136.595,105.256 135.987,103.704C134.419,99.714 141.203,82.582 143.473,84.791C144.533,85.821 144.726,85.031 143.917,82.974C143.131,80.971 143.359,77.677 144.425,75.657C145.739,73.165 145.575,69.664 143.913,64.781C141.647,58.117 141.366,58.002 140.132,63.271ZM169.901,65.924C169.901,67.595 170.742,71.014 171.771,73.52C172.799,76.027 173.641,76.711 173.641,75.04C173.641,73.369 172.799,69.95 171.771,67.443C170.742,64.936 169.901,64.253 169.901,65.924ZM92.029,77.13C91.413,79.552 90.956,78.832 90.863,75.292C90.78,72.089 91.236,70.296 91.876,71.305C92.517,72.314 92.587,74.937 92.029,77.13ZM101.326,73.52C101.982,75.192 101.598,76.559 100.475,76.559C99.351,76.559 98.431,75.192 98.431,73.52C98.431,71.849 98.813,70.482 99.282,70.482C99.751,70.482 100.67,71.849 101.326,73.52ZM94.048,93.588C93.407,94.597 91.741,94.706 90.35,93.828C88.81,92.859 89.267,92.138 91.516,91.993C93.55,91.862 94.688,92.579 94.048,93.588ZM121.552,114.616C120.209,117.162 119.485,119.836 119.941,120.556C120.398,121.273 121.832,119.192 123.127,115.925C125.929,108.86 124.995,108.085 121.552,114.616ZM63.691,119.101C63.691,120.772 62.77,122.139 61.647,122.139C60.524,122.139 60.139,120.772 60.796,119.101C61.452,117.429 62.371,116.062 62.84,116.062C63.309,116.062 63.691,117.429 63.691,119.101ZM149.497,125.382C148.796,127.162 148.638,129.274 149.143,130.07C149.649,130.866 150.577,129.408 151.207,126.828C152.511,121.474 151.4,120.532 149.497,125.382ZM114.757,131.459C114.056,133.24 113.898,135.351 114.403,136.148C114.909,136.944 115.837,135.485 116.467,132.905C117.771,127.551 116.66,126.609 114.757,131.459ZM193.061,129.736C193.061,131.407 193.902,134.826 194.931,137.333C195.96,139.84 196.801,140.523 196.801,138.852C196.801,137.181 195.96,133.762 194.931,131.255C193.902,128.748 193.061,128.065 193.061,129.736ZM25.052,145.002C23.709,147.549 23.099,150.402 23.693,151.341C24.29,152.28 25.747,150.195 26.932,146.71C29.46,139.271 28.522,138.421 25.052,145.002ZM44.391,143.41C42.652,145.179 42.412,146.373 43.794,146.403C45.058,146.427 46.629,145.081 47.286,143.41C48.766,139.636 48.098,139.636 44.391,143.41ZM108.967,146.652C108.266,148.433 108.108,150.545 108.613,151.341C109.119,152.137 110.047,150.679 110.677,148.099C111.981,142.745 110.87,141.803 108.967,146.652ZM120.147,149.487C120.695,152.693 123.745,154.143 130.426,154.374L139.926,154.699L131.272,153.404C126.512,152.69 121.888,150.493 120.992,148.518C119.869,146.038 119.609,146.336 120.147,149.487ZM15.95,151.627C13.576,152.347 9.234,152.365 6.3,151.669C3.367,150.97 5.308,150.381 10.616,150.356C15.923,150.335 18.324,150.906 15.95,151.627ZM44.147,153.365C44.974,154.662 59.479,155.343 76.382,154.875L107.116,154.027L74.879,152.517C57.15,151.687 43.32,152.067 44.147,153.365ZM182.903,154.729C186.371,155.404 191.582,155.392 194.483,154.699C197.384,154.003 194.545,153.45 188.176,153.468C181.807,153.483 179.435,154.051 182.903,154.729Z" clip-rule="evenodd" fill-rule="evenodd" fill="url(#pf_0_1_719)"/>
<path d="M51.863,5.91C49.464,10.73 49.531,10.836 52.592,7.059C55.808,3.088 56.829,0.593 55.24,0.593C54.841,0.593 53.32,2.984 51.863,5.91ZM94.323,5.91C91.924,10.73 91.992,10.836 95.052,7.059C98.268,3.088 99.289,0.593 97.7,0.593C97.301,0.593 95.78,2.984 94.323,5.91ZM128.266,3.835C127.565,5.616 127.407,7.728 127.913,8.524C128.418,9.32 129.347,7.861 129.976,5.281C131.281,-0.073 130.169,-1.015 128.266,3.835ZM123.481,17.378C122.138,19.925 121.414,22.599 121.87,23.319C122.327,24.036 123.761,21.955 125.056,18.688C127.859,11.623 126.925,10.848 123.481,17.378ZM36.67,46.173C35.533,49.515 35.039,52.25 35.57,52.25C36.101,52.25 37.463,49.515 38.6,46.173C39.737,42.83 40.231,40.096 39.7,40.096C39.169,40.096 37.807,42.83 36.67,46.173ZM100.36,43.314C100.36,45.082 101.228,45.687 102.29,44.654C103.352,43.62 104.22,42.174 104.22,41.436C104.22,40.697 103.352,40.096 102.29,40.096C101.228,40.096 100.36,41.545 100.36,43.314ZM57.861,56.881C56.518,59.428 55.794,62.102 56.25,62.822C56.707,63.539 58.141,61.457 59.436,58.191C62.239,51.126 61.304,50.351 57.861,56.881ZM140.132,63.272C138.58,69.899 132.595,86.925 129.866,92.476C126.376,99.572 125.454,106.755 128.249,105.065C129.679,104.199 131.431,104.977 132.143,106.788C132.855,108.603 134.259,109.283 135.264,108.305C136.27,107.326 136.594,105.257 135.986,103.704C134.419,99.714 141.203,82.582 143.472,84.791C144.532,85.822 144.725,85.032 143.916,82.974C143.131,80.972 143.359,77.678 144.424,75.657C145.738,73.165 145.574,69.665 143.912,64.782C141.647,58.118 141.365,58.002 140.132,63.272ZM28.95,67.444C27.813,70.786 27.319,73.521 27.85,73.521C28.381,73.521 29.743,70.786 30.88,67.444C32.017,64.101 32.511,61.366 31.98,61.366C31.449,61.366 30.087,64.101 28.95,67.444ZM169.9,65.924C169.9,67.596 170.741,71.014 171.77,73.521C172.799,76.028 173.64,76.712 173.64,75.04C173.64,73.369 172.799,69.951 171.77,67.444C170.741,64.937 169.9,64.253 169.9,65.924ZM52.071,72.075C50.728,74.621 50.004,77.295 50.46,78.015C50.917,78.732 52.351,76.651 53.646,73.384C56.449,66.319 55.514,65.544 52.071,72.075ZM43.346,94.995C42.645,96.776 42.487,98.888 42.993,99.684C43.498,100.48 44.427,99.022 45.056,96.442C46.36,91.088 45.249,90.146 43.346,94.995ZM37.556,110.189C36.855,111.969 36.697,114.081 37.203,114.877C37.708,115.674 38.637,114.215 39.266,111.635C40.57,106.281 39.459,105.339 37.556,110.189ZM121.551,114.616C120.208,117.162 119.484,119.836 119.94,120.557C120.397,121.274 121.831,119.192 123.126,115.926C125.929,108.861 124.995,108.086 121.551,114.616ZM149.496,125.382C148.795,127.163 148.637,129.275 149.143,130.071C149.648,130.867 150.577,129.408 151.206,126.828C152.511,121.474 151.399,120.532 149.496,125.382ZM29.836,131.459C29.135,133.24 28.977,135.352 29.483,136.148C29.988,136.944 30.917,135.486 31.546,132.906C32.85,127.552 31.739,126.61 29.836,131.459ZM114.756,131.459C114.055,133.24 113.897,135.352 114.403,136.148C114.908,136.944 115.837,135.486 116.466,132.906C117.771,127.552 116.659,126.61 114.756,131.459ZM193.06,129.737C193.06,131.408 193.901,134.826 194.93,137.333C195.959,139.84 196.8,140.524 196.8,138.853C196.8,137.181 195.959,133.763 194.93,131.256C193.901,128.749 193.06,128.065 193.06,129.737ZM25.051,145.003C23.708,147.549 23.098,150.403 23.693,151.341C24.289,152.28 25.746,150.196 26.931,146.711C29.459,139.272 28.521,138.421 25.051,145.003ZM108.966,146.653C108.265,148.433 108.107,150.545 108.613,151.341C109.118,152.138 110.047,150.679 110.676,148.099C111.981,142.745 110.869,141.803 108.966,146.653ZM120.146,149.488C120.694,152.694 123.744,154.143 130.426,154.374L139.925,154.699L131.271,153.405C126.512,152.691 121.887,150.494 120.992,148.519C119.868,146.039 119.608,146.337 120.146,149.488ZM1.264,153.286C1.754,154.541 6.448,155.565 11.694,155.565C16.94,155.565 21.23,154.541 21.23,153.286C21.23,152.031 16.536,151.007 10.798,151.007C5.062,151.007 0.772,152.031 1.264,153.286ZM44.147,153.365C44.973,154.663 59.479,155.343 76.382,154.875L107.115,154.028L74.878,152.517C57.149,151.688 43.319,152.068 44.147,153.365ZM182.902,154.73C186.371,155.404 191.582,155.392 194.482,154.699C197.383,154.003 194.544,153.45 188.175,153.469C181.806,153.484 179.434,154.052 182.902,154.73Z" clip-rule="evenodd" fill-rule="evenodd" fill="url(#pf_0_1_720)"/>
<defs>
<linearGradient id="pf_0_1_715" x1="99.973" y1="0.355" x2="99.973" y2="155.61" gradientUnits="userSpaceOnUse">
<stop stop-color="#D4CDC5"/>
<stop offset="1" stop-color="#6E6A66"/>
</linearGradient>
<linearGradient id="pf_0_1_716" x1="99.949" y1="0.072" x2="99.949" y2="155.612" gradientUnits="userSpaceOnUse">
<stop stop-color="#D4CDC5"/>
<stop offset="1" stop-color="#6E6A66"/>
</linearGradient>
<linearGradient id="pf_0_1_717" x1="99.878" y1="0.391" x2="99.878" y2="155.565" gradientUnits="userSpaceOnUse">
<stop stop-color="#D4CDC5"/>
<stop offset="1" stop-color="#6E6A66"/>
</linearGradient>
<linearGradient id="pf_0_1_718" x1="100.259" y1="1.591" x2="100.259" y2="155.647" gradientUnits="userSpaceOnUse">
<stop stop-color="#D4CDC5"/>
<stop offset="1" stop-color="#6E6A66"/>
</linearGradient>
<linearGradient id="pf_0_1_719" x1="98.783" y1="1.639" x2="98.783" y2="155.641" gradientUnits="userSpaceOnUse">
<stop stop-color="#D4CDC5"/>
<stop offset="1" stop-color="#6E6A66"/>
</linearGradient>
<linearGradient id="pf_0_1_720" x1="99.013" y1="0.593" x2="99.013" y2="155.565" gradientUnits="userSpaceOnUse">
<stop stop-color="#D4CDC5"/>
<stop offset="1" stop-color="#6E6A66"/>
</linearGradient>
</defs>
</svg>
