<svg width="160" height="80" viewBox="0 0 160 80" fill="none" xmlns="http://www.w3.org/2000/svg" xmlns:xlink="http://www.w3.org/1999/xlink">
<path d="M41.16,3.783C39.98,5.718 37.359,10.293 35.334,13.951C33.309,17.609 24.53,32.97 15.826,48.086C7.121,63.203 0,76.558 0,77.764C0,79.35 2.103,79.958 7.593,79.958C17.934,79.958 19.7,79.02 23.415,71.562C25.18,68.015 31.498,56.804 37.454,46.649L48.284,28.183L51.151,32.586C52.729,35.006 54.025,37.842 54.029,38.886C54.04,40.783 37.939,70.043 35.342,72.848C34.587,73.664 33.968,75.598 33.968,77.145C33.968,79.739 35.918,79.956 59.058,79.934C72.858,79.92 84.868,79.394 85.748,78.763C86.628,78.131 90.671,72.165 94.735,65.504C98.799,58.843 102.729,53.394 103.467,53.394C106.99,53.394 106.289,57.448 101.161,66.726C98.083,72.3 95.987,77.556 96.508,78.409C97.601,80.197 109.582,80.469 112.067,78.763C113.844,77.542 123.746,60.813 125.541,55.998C126.373,53.768 128.026,55.846 132.996,65.373C136.508,72.106 140.155,78.131 141.102,78.763C144.137,80.789 159.063,80.133 159.897,77.934C160.582,76.127 155.672,67.071 126.826,16.941C122.461,9.354 118.888,2.499 118.888,1.707C118.888,0.916 117.261,0.267 115.274,0.267C112.317,0.267 109.913,3.271 102.075,16.752C96.804,25.818 91.569,33.595 90.44,34.034C89.311,34.472 85.121,34.612 81.126,34.347L73.867,33.862L78.631,27.222C82.552,21.757 84.285,20.581 88.419,20.581C91.542,20.581 94.067,19.546 95.097,17.846C96.008,16.343 98.688,11.744 101.053,7.629L105.356,0.146L90.971,0.597L76.586,1.049L70.899,11.008L65.214,20.968L59.493,10.618C54.196,1.031 53.387,0.267 48.539,0.267C44.775,0.267 42.701,1.255 41.16,3.783ZM81.832,51.483C81.832,52.152 80.75,54.262 79.428,56.171C77.441,59.045 75.559,59.645 68.534,59.645L60.042,59.645L62.778,54.957C65.268,50.69 66.245,50.269 73.674,50.269C78.16,50.269 81.832,50.816 81.832,51.483Z" clip-rule="evenodd" fill-rule="evenodd" fill="url(#pf_0_1_3322)"/>
<path d="M41.057,3.783C39.821,5.718 38.589,8.354 38.319,9.643C38.049,10.932 37.481,12.338 37.056,12.768C32.191,17.692 24.494,32.312 25.924,33.916C26.526,34.591 26.233,34.689 25.269,34.133C23.552,33.14 18.909,41.874 19.743,44.525C19.965,45.235 19.487,45.4 18.678,44.894C17.234,43.991 14.497,49.807 15.173,52.338C15.361,53.047 14.855,53.213 14.046,52.707C12.642,51.829 9.862,57.579 10.502,60.035C10.671,60.681 10.132,61.207 9.304,61.207C7.521,61.207 2.461,70.561 4.206,70.629C4.865,70.656 4.187,71.393 2.702,72.27C1.215,73.147 0,75.234 0,76.911C0,79.55 1.099,79.958 8.197,79.958C12.706,79.958 17.472,79.08 18.789,78.005C22.306,75.137 30.97,57.93 29.833,56.069C29.297,55.191 29.561,54.913 30.421,55.451C32.365,56.666 40.51,41.881 38.958,39.953C38.336,39.181 38.461,39.074 39.233,39.713C41.118,41.27 45.25,35.122 43.854,32.837C43.214,31.786 43.43,31.458 44.376,32.05C45.267,32.608 46.4,31.997 46.896,30.694C47.674,28.639 48.177,28.692 50.673,31.092C52.255,32.615 53.273,34.391 52.931,35.034C52.592,35.68 52.973,36.206 53.778,36.206C56.124,36.206 55.058,41.274 52.054,44.392C50.537,45.969 49.709,47.936 50.216,48.763C50.72,49.591 50.51,50.269 49.748,50.269C48.258,50.269 44.06,58.091 44.506,60.035C44.654,60.681 43.965,61.207 42.974,61.207C41.984,61.207 41.626,61.665 42.179,62.224C42.732,62.784 41.978,64.201 40.505,65.373C38.109,67.282 38.27,67.404 42.052,66.535C44.376,66.003 48.023,65.465 50.157,65.34C52.292,65.215 54.127,64.762 54.236,64.332C54.344,63.903 54.597,61.984 54.797,60.07C55.125,56.909 61.749,49.752 63.094,51.102C63.403,51.413 62.177,53.569 60.37,55.894C58.564,58.22 57.434,60.474 57.86,60.906C59.651,62.718 76.507,61.001 78.36,58.816C79.629,57.32 79.657,57.068 78.441,58.088C77.419,58.945 72.861,59.645 68.311,59.645L60.042,59.645L62.778,54.957C65.28,50.671 66.227,50.269 73.839,50.269C80.923,50.269 82.017,50.652 81.19,52.833C80.376,54.979 80.603,55.076 82.569,53.424C86.023,50.524 85.442,48.707 81.06,48.707C78.937,48.707 77.2,48.025 77.2,47.193C77.2,46.361 78.353,46.128 79.765,46.675C81.849,47.485 82.152,46.964 81.384,43.892C80.463,40.197 80.497,40.181 82.888,43.238C84.869,45.768 85.158,45.841 84.404,43.628C83.892,42.125 83.873,39.839 84.361,38.55C85.592,35.306 89.541,35.6 89.601,38.941C89.646,41.442 89.839,41.424 91.868,38.711C93.088,37.08 93.719,35.147 93.272,34.414C92.824,33.681 93.113,33.081 93.912,33.081C94.714,33.081 95.762,31.498 96.244,29.565C97.03,26.406 96.801,26.486 93.979,30.347C91.226,34.114 89.808,34.644 82.476,34.644C73.586,34.644 72.647,33.367 77.642,28.076C79.159,26.468 79.976,24.459 79.457,23.61C78.939,22.76 79.434,22.259 80.56,22.495C81.684,22.731 82.454,22.12 82.272,21.135C82.09,20.153 84.299,19.068 87.182,18.727C90.065,18.387 92.084,18.665 91.669,19.345C91.254,20.024 91.482,20.581 92.177,20.581C94.314,20.581 97.44,14.316 96.306,12.313C95.716,11.274 95.804,10.948 96.5,11.587C97.196,12.226 98.79,11.269 100.04,9.463C101.967,6.679 101.989,5.943 100.179,4.638C98.49,3.419 98.581,3.271 100.618,3.928C102.057,4.391 103.569,3.766 104.044,2.513C104.745,0.664 102.457,0.267 91.084,0.267C78.455,0.267 77.078,0.569 75.025,3.783C73.789,5.718 72.557,8.294 72.287,9.513C72.017,10.73 70.555,13.041 69.038,14.648C67.521,16.255 66.648,18.173 67.099,18.912C67.55,19.649 66.727,20.715 65.273,21.281C63.817,21.846 63.099,21.831 63.676,21.246C65.106,19.798 60.57,11.205 58.376,11.205C57.406,11.205 57.049,10.765 57.58,10.226C58.113,9.687 57.517,7.226 56.254,4.757C53.253,-1.119 44.546,-1.676 41.057,3.783ZM108.852,4.955C107.535,7.533 107.123,9.643 107.937,9.643C108.75,9.643 109.857,8.236 110.396,6.518C111.343,3.5 112.88,2.739 116.958,3.275C118.02,3.416 118.888,2.796 118.888,1.899C118.888,1.002 117.17,0.267 115.068,0.267C112.385,0.267 110.535,1.663 108.852,4.955ZM115.542,9.554C113.685,12.857 113.535,13.913 115.003,13.343C116.123,12.907 117.451,11.018 117.952,9.144C118.714,6.294 120.029,7.783 125.984,18.237C129.901,25.112 133.238,31.545 133.399,32.533C133.559,33.52 134.615,35.455 135.742,36.83C136.871,38.206 137.188,39.353 136.447,39.381C135.707,39.408 136.49,40.536 138.188,41.886C141.214,44.292 141.204,44.321 137.694,43.26C134.838,42.396 133.934,42.864 133.235,45.568C132.619,47.954 131.496,48.73 129.448,48.188C127.238,47.604 125.974,48.783 124.199,53.077C122.915,56.191 120.499,60.024 118.831,61.596C116.123,64.149 115.8,64.179 115.8,61.871C115.8,59.891 114.721,59.451 111.168,59.977C108.621,60.356 106.558,60.26 106.584,59.765C106.726,57.11 113.94,47.327 115.022,48.319C115.723,48.963 115.808,48.629 115.212,47.579C114.616,46.528 115.223,43.978 116.561,41.911C118.553,38.834 118.66,37.409 117.15,34.055C116.135,31.8 114.855,29.956 114.307,29.956C113.759,29.956 108.231,38.745 102.026,49.488C95.821,60.231 90.086,69.02 89.285,69.02C88.482,69.02 88.243,69.703 88.752,70.537C89.262,71.372 87.912,72.501 85.755,73.05C83.597,73.598 81.832,74.673 81.832,75.439C81.832,76.206 71.325,76.833 58.484,76.833C36.892,76.833 35.294,76.637 37.254,74.234C39.069,72.008 39.042,71.747 37.056,72.404C35.782,72.826 34.518,74.698 34.246,76.564C33.758,79.93 33.962,79.958 58.95,79.934C72.809,79.92 84.868,79.394 85.748,78.762C86.628,78.131 90.671,72.165 94.735,65.504C98.799,58.843 102.729,53.394 103.467,53.394C106.28,53.394 106.572,56.616 104.208,61.552C102.069,66.02 102.06,66.287 104.146,63.643C106.15,61.099 106.536,61.02 106.536,63.146C106.536,64.543 105.139,66.132 103.431,66.681C99.962,67.796 95.092,76.091 96.528,78.441C97.606,80.205 109.606,80.453 112.067,78.762C113.767,77.595 123.395,61.434 125.784,55.738C126.505,54.019 126.939,51.661 126.747,50.501C126.455,48.724 126.766,48.724 128.691,50.501C130.091,51.791 130.431,53.19 129.566,54.098C127.545,56.219 127.816,58.476 129.935,57.152C131.015,56.476 131.299,56.721 130.657,57.774C129.588,59.524 138.177,76.625 141.197,78.762C144.069,80.794 159.063,80.13 159.897,77.934C160.318,76.822 154.627,65.395 147.248,52.543C139.87,39.691 130.743,23.726 126.968,17.065C123.193,10.404 119.655,4.96 119.109,4.964C118.564,4.971 116.958,7.035 115.542,9.554ZM103.286,14.677C102.261,16.635 100.41,19.818 99.17,21.753C97.931,23.687 97.288,25.268 97.74,25.268C98.194,25.268 100.07,22.803 101.91,19.79C103.751,16.776 105.891,14.709 106.667,15.195C107.444,15.68 108.08,15.374 108.08,14.515C108.08,11.188 105.057,11.29 103.286,14.677ZM114.256,22.143C114.256,23.003 114.993,23.706 115.891,23.706C116.79,23.706 117.097,23.003 116.572,22.143C116.047,21.284 115.312,20.581 114.937,20.581C114.562,20.581 114.256,21.284 114.256,22.143ZM73.623,39.625C73.13,40.87 72.764,40.5 72.69,38.68C72.624,37.033 72.988,36.111 73.501,36.63C74.013,37.148 74.069,38.497 73.623,39.625ZM81.06,37.769C81.585,38.628 81.278,39.331 80.379,39.331C79.481,39.331 78.744,38.628 78.744,37.769C78.744,36.909 79.05,36.206 79.425,36.206C79.8,36.206 80.535,36.909 81.06,37.769ZM131.043,36.597C130.345,37.981 130.275,43.955 130.965,43.255C131.899,42.31 132.582,36.206 131.754,36.206C131.472,36.206 131.152,36.383 131.043,36.597ZM118.203,45.441C116.994,47.421 118.95,52.071 120.738,51.468C122.72,50.799 122.089,47.804 120.088,48.38C119.22,48.63 118.921,47.75 119.422,46.427C120.415,43.808 119.601,43.15 118.203,45.441ZM138.542,46.525C138.029,47.044 136.697,47.1 135.583,46.649C134.351,46.15 134.717,45.78 136.516,45.705C138.143,45.638 139.054,46.007 138.542,46.525ZM75.238,48.088C74.725,48.607 73.393,48.663 72.279,48.211C71.047,47.713 71.413,47.343 73.212,47.268C74.839,47.2 75.75,47.569 75.238,48.088ZM115.359,56.526C118.042,59.173 120.432,59.212 120.432,56.61C120.432,55.901 118.67,54.98 116.517,54.563C112.771,53.84 112.72,53.924 115.359,56.526ZM50.952,61.207C50.952,62.067 50.216,62.77 49.317,62.77C48.418,62.77 48.111,62.067 48.636,61.207C49.161,60.348 49.896,59.645 50.271,59.645C50.646,59.645 50.952,60.348 50.952,61.207ZM22.556,69.368C18.882,75.714 18.196,76.166 13.143,75.569C10.144,75.214 7.314,74.308 6.854,73.553C6.392,72.798 7.207,72.644 8.665,73.209C10.669,73.987 10.992,73.698 9.993,72.02C8.949,70.268 9.139,70.167 10.898,71.542C13.487,73.565 18.44,73.783 18.721,71.884C18.828,71.168 19.033,69.704 19.177,68.629C19.322,67.556 20.362,66.881 21.489,67.131C22.799,67.421 23.197,66.685 22.595,65.096C22.048,63.656 22.294,63.009 23.177,63.562C24.017,64.087 24.704,63.654 24.704,62.601C24.704,61.548 25.113,61.099 25.612,61.606C26.112,62.11 24.736,65.604 22.556,69.368ZM101.904,71.364C101.904,72.653 101.231,73.708 100.408,73.708C99.587,73.708 99.313,72.653 99.801,71.364C100.291,70.075 100.964,69.02 101.297,69.02C101.631,69.02 101.904,70.075 101.904,71.364ZM77.322,73.056C77.396,74.876 77.762,75.247 78.255,74.001C78.701,72.873 78.645,71.525 78.133,71.006C77.62,70.487 77.256,71.409 77.322,73.056Z" clip-rule="evenodd" fill-rule="evenodd" fill="url(#pf_0_1_3323)"/>
<path d="M41.067,3.647C39.781,5.506 39.088,7.616 39.528,8.335C39.966,9.053 39.55,9.642 38.6,9.642C37.65,9.642 37.303,10.346 37.828,11.205C38.353,12.064 38.06,12.768 37.176,12.768C36.293,12.768 35.135,14.525 34.603,16.674C34.07,18.822 33.032,20.58 32.296,20.58C31.561,20.58 29.881,22.69 28.564,25.268C27.247,27.846 26.534,29.956 26.98,29.956C27.426,29.956 26.378,31.387 24.648,33.137C22.918,34.889 21.917,36.998 22.424,37.825C22.928,38.653 22.49,39.331 21.449,39.331C20.409,39.331 19.962,39.742 20.458,40.242C20.954,40.743 20.001,42.528 18.343,44.206C16.684,45.884 15.741,47.936 16.248,48.762C16.752,49.591 16.448,50.269 15.571,50.269C14.693,50.269 12.897,52.378 11.58,54.956C10.263,57.535 9.55,59.644 9.996,59.644C10.442,59.644 9.394,61.075 7.664,62.826C5.934,64.577 4.933,66.687 5.44,67.513C5.944,68.341 5.582,69.019 4.632,69.019C3.682,69.019 3.29,69.649 3.76,70.418C4.231,71.188 3.576,72.22 2.307,72.713C1.038,73.206 0,75.037 0,76.784C0,79.543 0.99,79.957 7.593,79.957C18.221,79.957 19.709,79.057 24.069,69.996C26.189,65.591 26.934,63.24 25.725,64.768C23.773,67.235 23.419,67.271 22.589,65.077C22.047,63.651 22.297,63.01 23.177,63.561C24.017,64.086 24.704,63.854 24.704,63.044C24.704,62.233 26.183,61.18 27.993,60.7C30.241,60.105 30.979,59.035 30.326,57.313C29.801,55.927 29.946,55.153 30.648,55.592C31.351,56.033 33.472,53.608 35.362,50.205C37.252,46.803 38.439,44.019 38.001,44.019C37.562,44.019 38.932,42.131 41.046,39.823C43.158,37.515 44.523,34.667 44.077,33.492C43.632,32.317 43.955,31.785 44.793,32.31C45.633,32.835 46.407,32.52 46.513,31.61C46.62,30.701 46.793,29.31 46.899,28.523C47.006,27.735 47.725,26.505 48.497,25.788C49.314,25.032 49.437,25.305 48.792,26.44C48.182,27.515 48.458,28.393 49.408,28.393C50.358,28.393 50.702,29.101 50.174,29.966C49.644,30.832 50.294,31.96 51.618,32.474C52.941,32.988 53.639,34.037 53.168,34.807C52.698,35.576 52.973,36.206 53.778,36.206C55.89,36.206 55.169,41.445 52.85,42.942C51.77,43.64 51.29,44.87 51.783,45.676C52.275,46.484 51.902,47.144 50.952,47.144C50.002,47.144 49.655,47.847 50.18,48.706C50.705,49.566 50.412,50.269 49.528,50.269C48.645,50.269 47.487,52.027 46.955,54.175C46.422,56.324 45.324,58.082 44.518,58.082C43.711,58.082 43.479,58.785 44.004,59.644C44.529,60.504 44.106,61.207 43.065,61.207C42.025,61.207 41.626,61.665 42.179,62.224C42.732,62.783 41.978,64.201 40.505,65.372C38.109,67.282 38.27,67.404 42.052,66.535C44.376,66.002 48.023,65.465 50.157,65.34C52.292,65.215 54.127,64.762 54.236,64.332C54.344,63.902 54.599,61.946 54.801,59.985C55.002,58.024 55.434,56.26 55.762,56.063C56.089,55.866 58.037,54.305 60.093,52.595C63.823,49.492 63.826,49.492 62.79,52.613C61.788,55.631 61.828,55.638 63.996,52.81C65.87,50.364 67.775,49.994 75.58,50.566C80.717,50.942 84.92,50.677 84.92,49.978C84.92,49.278 83.183,48.706 81.06,48.706C78.937,48.706 77.2,48.025 77.2,47.192C77.2,46.361 78.353,46.128 79.765,46.675C81.849,47.484 82.152,46.964 81.384,43.892C80.463,40.197 80.497,40.181 82.888,43.237C84.869,45.767 85.158,45.841 84.404,43.628C83.892,42.125 83.873,39.839 84.361,38.55C85.592,35.306 89.541,35.6 89.601,38.94C89.646,41.442 89.839,41.423 91.868,38.711C93.088,37.079 93.756,35.206 93.353,34.546C92.95,33.887 93.494,32.992 94.561,32.556C95.949,31.99 95.977,31.729 94.661,31.642C93.65,31.574 92.393,32.221 91.868,33.081C91.343,33.94 87.134,34.643 82.513,34.643C73.871,34.643 72.275,32.899 77.2,28.838C78.474,27.788 78.84,26.907 78.014,26.88C77.189,26.852 78.069,25.727 79.97,24.38C81.872,23.032 83.075,21.351 82.643,20.643C82.21,19.935 84.282,19.069 87.248,18.719C90.301,18.358 92.64,18.776 92.64,19.679C92.64,20.557 93.722,19.712 95.046,17.801C96.369,15.888 96.956,13.514 96.35,12.524C95.734,11.513 95.924,11.142 96.784,11.682C97.627,12.208 99.864,9.856 101.754,6.453L105.19,0.267L91.283,0.267C78.777,0.267 77.14,0.608 75.035,3.647C73.749,5.506 73.056,7.616 73.496,8.335C73.935,9.053 73.518,9.642 72.568,9.642C71.619,9.642 71.226,10.272 71.696,11.041C72.167,11.811 71.469,12.86 70.146,13.374C68.822,13.888 68.172,15.016 68.702,15.882C69.23,16.747 68.886,17.455 67.936,17.455C66.987,17.455 66.594,18.085 67.064,18.854C67.535,19.624 66.844,20.669 65.531,21.18C64.164,21.712 63.546,21.447 64.087,20.563C64.606,19.713 64.254,19.018 63.304,19.018C62.354,19.018 61.992,18.34 62.497,17.511C63.003,16.685 62.06,14.633 60.401,12.955C58.743,11.277 57.79,9.492 58.286,8.991C58.782,8.489 58.26,8.08 57.128,8.08C55.996,8.08 55.508,7.636 56.044,7.094C56.58,6.55 56.325,4.792 55.476,3.187C53.229,-1.06 44.123,-0.767 41.067,3.647ZM110.459,1.726C109.97,2.528 111.665,3.125 114.228,3.05C116.791,2.977 118.888,2.32 118.888,1.592C118.888,-0.213 111.573,-0.095 110.459,1.726ZM115.542,9.553C113.685,12.857 113.535,13.913 115.003,13.343C116.123,12.907 117.434,11.028 117.914,9.167C118.782,5.809 118.808,5.806 121.24,8.885C123.622,11.9 123.644,11.889 122.007,8.47C119.794,3.852 118.638,4.045 115.542,9.553ZM104.336,12.578C103.857,13.361 104.504,14.405 105.773,14.899C107.043,15.391 108.08,15.155 108.08,14.374C108.08,12.255 105.336,10.939 104.336,12.578ZM126.608,19.018C127.518,20.736 128.608,22.143 129.032,22.143C129.457,22.143 129.062,20.736 128.152,19.018C127.243,17.299 126.153,15.893 125.728,15.893C125.303,15.893 125.699,17.299 126.608,19.018ZM98.816,22.143C97.907,23.862 97.511,25.268 97.936,25.268C98.361,25.268 99.451,23.862 100.36,22.143C101.27,20.424 101.665,19.018 101.24,19.018C100.816,19.018 99.726,20.424 98.816,22.143ZM114.256,22.143C114.256,23.002 114.993,23.705 115.891,23.705C116.79,23.705 117.097,23.002 116.572,22.143C116.047,21.283 115.312,20.58 114.937,20.58C114.562,20.58 114.256,21.283 114.256,22.143ZM133.837,31.518C135.536,34.526 140.248,42.82 144.307,49.948C148.366,57.077 151.28,63.322 150.783,63.827C150.284,64.33 150.542,65.999 151.354,67.537C152.385,69.485 152.252,70.566 150.914,71.113C149.445,71.715 149.438,71.927 150.878,72.021C151.913,72.088 152.359,73.199 151.871,74.488C151.328,75.921 148.987,76.832 145.851,76.832C141.088,76.832 140.307,76.056 134.907,65.938C131.71,59.947 128.819,55.324 128.483,55.664C127.672,56.485 139.088,77.278 141.185,78.8C142.085,79.453 146.642,79.804 151.312,79.581C158.642,79.232 159.804,78.748 159.804,76.051C159.804,73.852 158.889,73.029 156.716,73.271C155.018,73.46 154.497,73.226 155.558,72.751C156.62,72.274 157.488,71.198 157.488,70.36C157.488,69.521 156.685,69.337 155.705,69.949C154.658,70.605 154.34,70.382 154.934,69.409C155.889,67.848 136.025,30.97 132.423,27.612C131.501,26.752 132.137,28.51 133.837,31.518ZM100.209,53.019L86.933,76.051L60.451,76.479C44.54,76.735 33.968,77.515 33.968,78.432C33.968,80.217 83.282,80.531 85.748,78.762C86.628,78.131 90.693,72.129 94.783,65.427C101.686,54.111 106.098,50.752 105.522,57.244C105.187,61.027 106.782,58.927 113.192,47.144C118.504,37.381 118.616,36.851 116.101,33.487C113.51,30.021 113.35,30.22 100.209,53.019ZM73.623,39.625C73.13,40.87 72.764,40.5 72.69,38.679C72.624,37.032 72.988,36.11 73.501,36.629C74.013,37.148 74.069,38.496 73.623,39.625ZM81.06,37.768C81.585,38.628 81.278,39.331 80.379,39.331C79.481,39.331 78.744,38.628 78.744,37.768C78.744,36.909 79.05,36.206 79.425,36.206C79.8,36.206 80.535,36.909 81.06,37.768ZM75.238,48.087C74.725,48.606 73.393,48.662 72.279,48.211C71.047,47.712 71.413,47.342 73.212,47.267C74.839,47.2 75.75,47.569 75.238,48.087ZM58.113,58.863C57.143,61.421 58.286,61.658 69.48,61.232C73.301,61.085 76.918,60.493 77.515,59.914C78.113,59.336 74.384,59.105 69.227,59.402C62.716,59.775 60.171,59.418 60.897,58.23C61.473,57.289 61.281,56.519 60.472,56.519C59.663,56.519 58.603,57.574 58.113,58.863ZM118.192,66.848L112.267,77.095L103.996,76.573C98.95,76.254 95.923,76.66 96.233,77.614C96.849,79.506 109.72,80.471 112.067,78.803C114.108,77.351 125.408,57.908 124.653,57.146C124.357,56.846 121.45,61.211 118.192,66.848ZM50.952,61.207C50.952,62.066 50.216,62.769 49.317,62.769C48.418,62.769 48.111,62.066 48.636,61.207C49.161,60.347 49.896,59.644 50.271,59.644C50.646,59.644 50.952,60.347 50.952,61.207ZM21.011,72.448C19.025,75.515 17.571,76.092 13.133,75.568C10.141,75.213 7.314,74.307 6.854,73.552C6.392,72.798 7.207,72.643 8.665,73.209C10.669,73.987 10.992,73.698 9.993,72.02C8.949,70.268 9.139,70.166 10.898,71.541C13.487,73.565 18.44,73.782 18.721,71.884C18.828,71.168 19.088,69.879 19.3,69.019C19.512,68.16 19.772,66.965 19.879,66.363C19.986,65.762 20.832,66.038 21.76,66.977C22.981,68.213 22.774,69.726 21.011,72.448ZM34.74,73.707C34.215,74.567 34.481,75.27 35.33,75.27C36.179,75.27 37.303,74.567 37.828,73.707C38.353,72.848 38.087,72.145 37.238,72.145C36.389,72.145 35.265,72.848 34.74,73.707Z" clip-rule="evenodd" fill-rule="evenodd" fill="url(#pf_0_1_3324)"/>
<path d="M41.169,3.302C39.727,5.11 39.829,5.32 41.688,4.359C43.068,3.644 42.922,4.06 41.327,5.385C39.854,6.607 39.1,8.066 39.653,8.626C40.206,9.185 39.807,9.643 38.767,9.643C37.726,9.643 37.303,10.346 37.828,11.206C38.353,12.065 38.046,12.768 37.147,12.768C36.249,12.768 35.512,13.72 35.512,14.884C35.512,16.048 33.764,18.909 31.627,21.242C29.49,23.575 28.141,26.139 28.63,26.939C29.118,27.739 28.666,28.394 27.625,28.394C26.585,28.394 26.138,28.805 26.634,29.305C27.13,29.806 26.177,31.591 24.519,33.269C22.861,34.947 21.917,36.999 22.424,37.825C22.928,38.654 22.49,39.332 21.449,39.332C20.409,39.332 20.01,39.789 20.563,40.349C21.116,40.908 20.362,42.368 18.889,43.59C17.103,45.074 16.983,45.477 18.528,44.801C19.802,44.243 19.495,44.894 17.847,46.248C16.198,47.601 15.463,48.707 16.212,48.707C16.961,48.707 16.226,49.813 14.577,51.166C12.93,52.52 12.622,53.171 13.896,52.613C15.442,51.937 15.321,52.34 13.535,53.824C12.062,55.046 11.308,56.506 11.861,57.065C12.414,57.625 11.94,58.082 10.808,58.082C9.676,58.082 9.202,58.54 9.755,59.1C10.308,59.659 9.554,61.118 8.081,62.34C6.295,63.825 6.175,64.228 7.72,63.551C9.266,62.875 9.145,63.278 7.359,64.762C5.886,65.984 5.132,67.444 5.685,68.003C6.238,68.562 5.84,69.02 4.799,69.02C3.758,69.02 3.298,69.664 3.778,70.45C4.258,71.236 3.842,72.152 2.853,72.484C1.864,72.819 0.822,74.636 0.537,76.525C0.063,79.666 0.666,79.958 7.603,79.958C17.88,79.958 19.697,79.014 23.339,71.789C25.064,68.367 25.802,65.989 24.979,66.505C24.157,67.019 23.072,66.353 22.567,65.023C22.042,63.64 22.303,63.015 23.177,63.562C24.017,64.087 24.704,63.772 24.704,62.862C24.704,61.953 25.722,61.207 26.966,61.207C28.209,61.207 30.015,59.717 30.98,57.893C32.398,55.213 32.335,54.813 30.648,55.806C29.501,56.479 30.514,55.156 32.897,52.862C35.28,50.57 36.803,47.993 36.279,47.138C35.758,46.282 36.182,45.582 37.223,45.582C38.263,45.582 38.725,45.187 38.248,44.704C37.771,44.221 39.069,41.982 41.134,39.727C43.198,37.474 44.523,34.667 44.077,33.492C43.632,32.317 43.955,31.786 44.793,32.311C45.633,32.836 46.407,32.52 46.513,31.611C46.62,30.702 46.793,29.311 46.899,28.523C47.006,27.736 47.725,26.506 48.497,25.789C49.314,25.033 49.437,25.306 48.792,26.441C48.182,27.516 48.459,28.394 49.408,28.394C50.358,28.394 50.75,29.023 50.28,29.792C49.81,30.563 50.507,31.611 51.831,32.125C53.154,32.639 53.804,33.767 53.274,34.633C52.746,35.499 52.933,36.207 53.691,36.207C55.725,36.207 54.875,42.957 52.751,43.672C51.75,44.01 51.326,44.929 51.806,45.715C52.286,46.501 51.902,47.144 50.952,47.144C50.003,47.144 49.655,47.848 50.18,48.707C50.705,49.566 50.473,50.27 49.666,50.27C48.86,50.27 47.762,52.027 47.229,54.176C46.697,56.324 45.539,58.082 44.656,58.082C43.772,58.082 43.479,58.785 44.004,59.645C44.529,60.504 44.182,61.207 43.232,61.207C42.283,61.207 41.909,61.867 42.401,62.675C42.894,63.481 42.066,64.897 40.562,65.82C38.321,67.198 38.589,67.326 42.052,66.534C44.376,66.003 48.023,65.465 50.157,65.34C52.292,65.215 54.127,64.762 54.236,64.333C54.344,63.903 54.599,61.947 54.801,59.986C55.002,58.025 55.434,56.26 55.762,56.064C56.089,55.867 58.038,54.306 60.093,52.596C63.823,49.493 63.826,49.493 62.79,52.613C61.788,55.632 61.828,55.638 63.996,52.81C65.87,50.365 67.776,49.995 75.58,50.566C80.717,50.943 84.92,50.677 84.92,49.979C84.92,49.279 83.183,48.707 81.06,48.707C78.937,48.707 77.2,48.026 77.2,47.193C77.2,46.362 78.353,46.129 79.765,46.676C81.849,47.485 82.152,46.965 81.384,43.893C80.463,40.197 80.497,40.182 82.888,43.238C84.869,45.768 85.158,45.841 84.404,43.629C83.892,42.126 83.873,39.839 84.361,38.55C85.592,35.307 89.541,35.6 89.602,38.941C89.646,41.443 89.839,41.424 91.868,38.711C93.088,37.08 93.756,35.207 93.353,34.547C92.95,33.888 93.494,32.992 94.561,32.556C95.949,31.991 95.977,31.73 94.661,31.642C93.65,31.575 92.393,32.222 91.868,33.081C91.343,33.941 86.612,34.633 81.355,34.621C74.614,34.603 72.479,34.15 74.112,33.081C75.386,32.249 75.773,31.556 74.975,31.542C74.175,31.53 74.87,30.486 76.519,29.225C78.167,27.962 78.84,26.908 78.014,26.881C77.189,26.853 78.069,25.728 79.97,24.381C81.872,23.033 83.027,21.275 82.539,20.475C82.05,19.673 83.382,19.018 85.501,19.018C91.936,19.018 97.698,16.145 96.675,13.446C96.173,12.124 96.338,11.403 97.041,11.842C97.743,12.282 99.767,10.032 101.538,6.845L104.757,1.049L90.795,1.312C82.047,1.477 76.183,2.291 75.088,3.494C73.751,4.962 73.885,5.149 75.656,4.288C77.109,3.58 76.973,3.99 75.295,5.385C73.822,6.607 73.068,8.066 73.621,8.626C74.174,9.185 73.776,9.643 72.735,9.643C71.694,9.643 71.274,10.351 71.802,11.217C72.332,12.082 71.682,13.21 70.359,13.725C69.035,14.239 68.338,15.287 68.808,16.057C69.278,16.826 68.926,17.456 68.027,17.456C67.129,17.456 66.565,18.247 66.778,19.214C66.99,20.181 66.199,21.326 65.019,21.761C63.706,22.244 63.292,21.865 63.953,20.784C64.545,19.812 64.254,19.018 63.304,19.018C62.355,19.018 62.007,18.315 62.532,17.456C63.057,16.596 62.71,15.893 61.76,15.893C60.811,15.893 60.466,15.186 60.994,14.32C61.524,13.454 60.874,12.326 59.551,11.812C58.227,11.298 57.53,10.249 58,9.479C58.47,8.71 58.078,8.081 57.128,8.081C56.179,8.081 55.831,7.377 56.356,6.518C56.881,5.659 56.574,4.955 55.675,4.955C54.777,4.955 54.215,4.176 54.426,3.223C55.016,0.574 43.289,0.644 41.169,3.302ZM110.48,1.694C109.896,2.651 110.534,3.393 111.94,3.393C113.327,3.393 113.983,4.14 113.413,5.071C112.85,5.993 113.852,5.824 115.638,4.694C117.426,3.565 118.888,2.021 118.888,1.263C118.888,0.505 117.968,0.658 116.844,1.602C115.4,2.815 114.318,2.83 113.158,1.657C111.999,0.483 111.211,0.494 110.48,1.694ZM115.542,9.554C113.685,12.857 113.535,13.914 115.003,13.343C116.123,12.907 117.409,11.124 117.86,9.377C118.379,7.37 119.373,6.637 120.566,7.384C121.772,8.138 122.056,7.913 121.351,6.76C119.643,3.962 118.331,4.593 115.542,9.554ZM103.448,13.382C103.448,13.72 104.49,14.401 105.764,14.896C107.038,15.39 108.08,15.114 108.08,14.282C108.08,13.45 107.038,12.768 105.764,12.768C104.49,12.768 103.448,13.045 103.448,13.382ZM114.256,22.144C114.256,23.003 114.993,23.706 115.891,23.706C116.79,23.706 117.097,23.003 116.572,22.144C116.047,21.284 115.312,20.581 114.937,20.581C114.562,20.581 114.256,21.284 114.256,22.144ZM108.495,38.902C96.089,61.418 94.257,64.915 96.397,61.989C97.654,60.27 99.679,57.484 100.897,55.798C102.709,53.292 103.536,53.085 105.424,54.671C107.375,56.31 108.48,55.273 112.539,47.996C117.869,38.438 118.234,36.472 115.406,32.56C113.685,30.177 112.911,30.888 108.495,38.902ZM136.644,36.207C137.961,38.785 139.386,40.894 139.811,40.894C140.236,40.894 139.505,38.785 138.188,36.207C136.871,33.628 135.446,31.519 135.021,31.519C134.597,31.519 135.327,33.628 136.644,36.207ZM73.623,39.625C73.13,40.871 72.764,40.5 72.69,38.68C72.624,37.033 72.988,36.111 73.501,36.63C74.013,37.149 74.069,38.497 73.623,39.625ZM81.06,37.769C81.585,38.629 81.278,39.332 80.379,39.332C79.481,39.332 78.744,38.629 78.744,37.769C78.744,36.91 79.05,36.207 79.425,36.207C79.8,36.207 80.535,36.91 81.06,37.769ZM142.82,47.144C144.137,49.723 145.562,51.832 145.987,51.832C146.412,51.832 145.681,49.723 144.364,47.144C143.047,44.566 141.622,42.457 141.197,42.457C140.773,42.457 141.503,44.566 142.82,47.144ZM75.238,48.088C74.725,48.607 73.393,48.663 72.279,48.212C71.047,47.713 71.413,47.343 73.212,47.268C74.839,47.201 75.75,47.569 75.238,48.088ZM148.996,58.082C150.313,60.661 151.738,62.77 152.163,62.77C152.588,62.77 151.857,60.661 150.54,58.082C149.223,55.504 147.798,53.395 147.373,53.395C146.949,53.395 147.679,55.504 148.996,58.082ZM122.847,59.187C122.01,61.414 122.186,61.593 123.712,60.062C124.768,59.001 125.242,57.74 124.766,57.26C124.291,56.779 123.428,57.646 122.847,59.187ZM130.468,61.207C131.785,63.786 133.21,65.895 133.635,65.895C134.06,65.895 133.329,63.786 132.012,61.207C130.695,58.629 129.27,56.52 128.845,56.52C128.421,56.52 129.151,58.629 130.468,61.207ZM50.952,61.207C50.952,62.067 50.216,62.77 49.317,62.77C48.418,62.77 48.111,62.067 48.636,61.207C49.161,60.348 49.896,59.645 50.271,59.645C50.646,59.645 50.952,60.348 50.952,61.207ZM116.575,69.937L112.425,77.105L104.073,76.578C95.023,76.008 93.015,78.808 101.85,79.683C110.388,80.527 113.265,78.897 117.82,70.636C123.241,60.798 122.205,60.217 116.575,69.937ZM155.791,69.891C157.575,72.949 159.032,75.761 159.032,76.141C159.032,76.522 154.882,76.833 149.808,76.833C141.12,76.833 140.444,76.56 138.188,72.145C136.871,69.567 135.446,67.458 135.021,67.458C133.802,67.458 139.199,77.486 141.106,78.763C144.23,80.853 159.065,80.127 159.932,77.841C160.68,75.867 155.036,64.333 153.322,64.333C152.898,64.333 154.01,66.834 155.791,69.891ZM21.229,72.552C19.275,75.57 17.824,76.122 13.266,75.583C10.2,75.222 7.314,74.308 6.854,73.553C6.392,72.799 7.208,72.644 8.665,73.209C10.669,73.988 10.992,73.699 9.993,72.02C8.949,70.269 9.139,70.167 10.898,71.542C13.487,73.566 18.44,73.783 18.721,71.884C18.828,71.169 19.089,69.88 19.3,69.02C19.512,68.161 19.773,66.965 19.879,66.364C19.986,65.762 20.87,66.078 21.846,67.065C23.182,68.417 23.029,69.772 21.229,72.552ZM91.096,69.02C90.187,70.739 89.791,72.145 90.216,72.145C90.641,72.145 91.731,70.739 92.64,69.02C93.55,67.301 93.945,65.895 93.52,65.895C93.096,65.895 92.006,67.301 91.096,69.02ZM35.512,73.708C34.121,74.617 33.929,75.231 35.035,75.247C36.046,75.26 37.303,74.567 37.828,73.708C39.012,71.767 38.478,71.767 35.512,73.708ZM87.236,75.27C86.66,76.213 75.897,76.833 60.125,76.833C43.717,76.833 33.968,77.416 33.968,78.396C33.968,79.374 43.453,79.958 59.334,79.958C80.334,79.958 85.118,79.536 87.127,77.503C88.461,76.152 89.552,74.745 89.552,74.378C89.552,73.163 88.207,73.681 87.236,75.27Z" clip-rule="evenodd" fill-rule="evenodd" fill="url(#pf_0_1_3325)"/>
<path d="M41.19,3.28C39.723,5.114 39.82,5.324 41.689,4.358C43.069,3.644 42.922,4.06 41.327,5.385C39.854,6.607 39.101,8.066 39.654,8.625C40.206,9.185 39.808,9.643 38.767,9.643C37.727,9.643 37.304,10.346 37.829,11.205C38.354,12.065 38.046,12.768 37.148,12.768C36.249,12.768 35.513,13.719 35.513,14.883C35.513,16.048 33.765,18.909 31.628,21.241C29.491,23.574 28.142,26.139 28.631,26.939C29.119,27.739 28.666,28.393 27.626,28.393C26.585,28.393 26.139,28.804 26.635,29.304C27.13,29.806 26.178,31.59 24.519,33.268C22.861,34.947 21.918,36.998 22.424,37.825C22.929,38.653 22.49,39.331 21.45,39.331C20.409,39.331 20.011,39.789 20.564,40.348C21.116,40.908 20.363,42.367 18.89,43.589C17.104,45.074 16.983,45.477 18.529,44.8C19.802,44.242 19.495,44.894 17.848,46.247C16.199,47.6 15.464,48.707 16.213,48.707C16.962,48.707 16.227,49.813 14.578,51.166C12.93,52.519 12.623,53.171 13.897,52.613C15.442,51.936 15.322,52.339 13.535,53.824C12.062,55.046 11.309,56.505 11.862,57.065C12.414,57.624 11.94,58.082 10.809,58.082C9.677,58.082 9.203,58.54 9.756,59.099C10.308,59.658 9.555,61.118 8.082,62.34C6.296,63.824 6.175,64.227 7.721,63.551C9.266,62.874 9.146,63.277 7.359,64.762C5.886,65.984 5.133,67.443 5.686,68.003C6.238,68.562 5.84,69.02 4.799,69.02C3.759,69.02 3.291,69.649 3.76,70.418C4.231,71.189 3.632,72.2 2.431,72.665C1.228,73.132 0.428,74.789 0.649,76.345C1.203,80.225 16.985,81.53 16.985,77.695C16.985,76.053 15.519,75.27 12.444,75.27C9.946,75.27 7.478,74.575 6.959,73.725C6.399,72.807 7.092,72.598 8.666,73.209C10.67,73.987 10.992,73.698 9.993,72.02C8.95,70.268 9.14,70.167 10.898,71.542C13.488,73.565 18.441,73.782 18.722,71.884C18.828,71.168 19.089,69.879 19.301,69.02C19.512,68.16 19.796,66.931 19.929,66.285C20.062,65.64 21.109,66.365 22.256,67.893C24.102,70.359 24.445,70.393 25.276,68.203C25.792,66.845 25.599,66.117 24.848,66.585C24.098,67.056 23.073,66.352 22.568,65.023C22.064,63.695 22.213,62.957 22.897,63.387C23.582,63.815 25.091,62.834 26.249,61.207C27.407,59.58 28.85,58.558 29.455,58.938C30.062,59.316 30.969,58.54 31.473,57.21C32.032,55.735 31.75,55.194 30.749,55.821C29.846,56.385 29.994,55.411 31.075,53.658C32.157,51.905 33.598,50.819 34.277,51.244C34.957,51.669 35.599,51.271 35.706,50.361C36.32,45.092 38.721,39.222 39.947,39.989C40.565,40.375 41.956,39.258 43.038,37.505C44.119,35.751 44.267,34.778 43.364,35.342C42.363,35.969 42.081,35.428 42.64,33.953C43.145,32.623 44.178,31.925 44.939,32.401C45.698,32.876 46.407,32.52 46.514,31.611C46.62,30.701 46.793,29.311 46.9,28.523C47.006,27.735 47.726,26.506 48.498,25.788C49.314,25.032 49.438,25.306 48.793,26.44C48.183,27.515 48.459,28.393 49.409,28.393C50.358,28.393 50.75,29.023 50.281,29.792C49.81,30.562 50.508,31.611 51.831,32.125C53.154,32.639 53.804,33.767 53.275,34.633C52.747,35.498 53.046,36.206 53.94,36.206C56.108,36.206 55.024,42.906 52.731,43.68C51.743,44.013 51.326,44.928 51.806,45.714C52.287,46.5 51.902,47.144 50.953,47.144C50.003,47.144 49.656,47.847 50.181,48.707C50.706,49.566 50.474,50.269 49.666,50.269C48.86,50.269 47.763,52.027 47.23,54.175C46.697,56.324 45.539,58.082 44.656,58.082C43.773,58.082 43.48,58.785 44.005,59.644C44.53,60.504 44.182,61.207 43.233,61.207C42.283,61.207 41.909,61.866 42.402,62.674C42.894,63.48 42.067,64.896 40.563,65.82C38.321,67.198 38.59,67.326 42.053,66.534C44.377,66.002 48.024,65.465 50.157,65.34C52.293,65.215 54.127,64.762 54.237,64.332C54.345,63.902 54.598,61.984 54.797,60.069C55.257,55.649 62.028,49.764 63.663,52.364C64.478,53.66 64.808,53.582 64.825,52.089C64.842,50.511 67.294,50.13 74.888,50.527C80.409,50.814 84.925,50.524 84.924,49.878C84.922,49.233 83.184,48.707 81.061,48.707C78.938,48.707 77.201,48.025 77.201,47.192C77.201,46.361 78.354,46.128 79.765,46.675C81.85,47.485 82.152,46.964 81.385,43.892C80.463,40.197 80.497,40.181 82.889,43.238C84.87,45.767 85.158,45.841 84.405,43.628C83.892,42.125 83.874,39.839 84.362,38.55C85.592,35.306 89.542,35.6 89.602,38.941C89.647,41.442 89.84,41.423 91.869,38.711C93.088,37.08 93.72,35.147 93.272,34.414C92.824,33.681 93.311,33.081 94.351,33.081C95.392,33.081 95.797,32.629 95.252,32.076C94.705,31.525 93.258,31.914 92.037,32.94C90.711,34.054 86.218,34.617 80.903,34.334C72.099,33.868 72.028,33.826 74.983,30.848C76.628,29.192 78.059,27.257 78.166,26.551C78.272,25.846 78.445,24.565 78.552,23.706C78.658,22.846 79.614,22.32 80.675,22.534C81.737,22.749 82.432,22.046 82.219,20.971C81.981,19.765 83.56,19.018 86.355,19.018C88.841,19.018 91.886,17.996 93.119,16.749C94.351,15.501 95.827,14.952 96.399,15.529C96.968,16.107 96.933,15.254 96.32,13.635C95.65,11.868 95.801,11.066 96.701,11.629C97.524,12.144 99.084,11.132 100.166,9.379C101.247,7.625 101.502,6.585 100.731,7.066C99.962,7.549 99.331,6.888 99.331,5.6C99.331,4.313 100.2,3.596 101.262,4.008C102.325,4.421 103.51,3.924 103.896,2.903C104.889,0.289 77.494,0.852 75.088,3.494C73.764,4.95 73.835,5.13 75.385,4.239C77.077,3.267 77.08,3.63 75.399,6.353C74.282,8.163 72.802,9.643 72.105,9.643C71.411,9.643 71.275,10.351 71.803,11.216C72.332,12.082 71.682,13.21 70.359,13.724C69.036,14.238 68.338,15.287 68.809,16.057C69.278,16.826 68.926,17.455 68.028,17.455C67.129,17.455 66.566,18.246 66.779,19.213C66.99,20.181 66.2,21.326 65.02,21.76C63.706,22.243 63.292,21.865 63.953,20.784C64.546,19.812 64.254,19.018 63.305,19.018C62.355,19.018 62.008,18.315 62.533,17.455C63.058,16.596 62.71,15.893 61.761,15.893C60.811,15.893 60.437,15.233 60.93,14.426C61.422,13.619 60.805,12.382 59.559,11.676C58.311,10.969 56.386,8.289 55.279,5.721C53.63,1.888 52.347,1.044 48.138,1.027C45.315,1.014 42.189,2.028 41.19,3.28ZM110.48,1.694C109.896,2.65 110.534,3.392 111.941,3.392C113.528,3.392 114.016,4.105 113.279,5.346C112.554,6.568 113.244,6.439 115.118,5.007C119.668,1.527 119.868,1.258 117.147,2.241C115.764,2.739 113.932,2.439 113.076,1.572C112.027,0.511 111.178,0.552 110.48,1.694ZM115.543,9.554C114.028,12.247 113.71,13.84 114.771,13.422C116.772,12.633 120.732,4.949 119.13,4.964C118.572,4.971 116.959,7.035 115.543,9.554ZM103.449,13.382C103.449,13.719 104.491,14.401 105.765,14.896C107.038,15.39 108.081,15.113 108.081,14.282C108.081,13.449 107.038,12.768 105.765,12.768C104.491,12.768 103.449,13.044 103.449,13.382ZM114.257,22.143C114.257,23.002 114.993,23.706 115.892,23.706C116.79,23.706 117.098,23.002 116.573,22.143C116.048,21.284 115.313,20.581 114.938,20.581C114.562,20.581 114.257,21.284 114.257,22.143ZM112.106,32.498C110.865,35.906 106.077,44.661 103.893,47.516C101.102,51.164 100.364,54.858 102.599,53.99C103.744,53.544 105.146,53.944 105.715,54.875C106.285,55.808 107.407,56.158 108.212,55.655C109.016,55.152 109.276,54.088 108.789,53.289C107.536,51.238 112.963,42.428 114.779,43.564C115.626,44.094 115.781,43.688 115.134,42.63C114.505,41.6 114.687,39.906 115.54,38.867C116.591,37.586 116.46,35.786 115.131,33.275C113.318,29.848 113.093,29.789 112.106,32.498ZM135.921,33.862C135.921,34.722 136.594,36.48 137.417,37.769C138.24,39.058 138.913,39.409 138.913,38.55C138.913,37.69 138.24,35.933 137.417,34.644C136.594,33.354 135.921,33.003 135.921,33.862ZM73.623,39.625C73.131,40.87 72.765,40.5 72.691,38.68C72.624,37.033 72.989,36.111 73.501,36.63C74.014,37.148 74.069,38.497 73.623,39.625ZM81.061,37.769C81.586,38.628 81.278,39.331 80.38,39.331C79.481,39.331 78.745,38.628 78.745,37.769C78.745,36.909 79.05,36.206 79.426,36.206C79.801,36.206 80.536,36.909 81.061,37.769ZM75.238,48.088C74.726,48.607 73.393,48.663 72.28,48.211C71.048,47.713 71.414,47.342 73.212,47.267C74.84,47.2 75.751,47.569 75.238,48.088ZM97.242,58.901C96.167,60.21 95.588,61.585 95.953,61.955C96.318,62.324 97.466,61.254 98.502,59.574C100.744,55.941 99.996,55.543 97.242,58.901ZM50.953,61.207C50.953,62.066 50.216,62.77 49.318,62.77C48.419,62.77 48.112,62.066 48.637,61.207C49.162,60.348 49.897,59.644 50.272,59.644C50.647,59.644 50.953,60.348 50.953,61.207ZM119.597,64.437C119.037,65.352 118.91,66.438 119.315,66.848C119.719,67.257 120.462,66.507 120.965,65.181C122.009,62.427 121.12,61.943 119.597,64.437ZM91.805,67.562C91.245,68.478 91.118,69.564 91.523,69.973C91.927,70.382 92.67,69.632 93.173,68.306C94.217,65.552 93.328,65.068 91.805,67.562ZM154.449,66.676C154.449,67.535 155.122,69.293 155.945,70.582C156.768,71.871 157.441,72.223 157.441,71.364C157.441,70.504 156.768,68.746 155.945,67.457C155.122,66.168 154.449,65.817 154.449,66.676ZM20.042,74.526C18.967,75.836 18.479,77.303 18.955,77.786C19.432,78.269 20.598,77.197 21.546,75.404C23.568,71.579 22.818,71.142 20.042,74.526ZM35.513,73.707C34.121,74.617 33.93,75.231 35.036,75.247C36.047,75.259 37.304,74.567 37.829,73.707C39.013,71.767 38.479,71.767 35.513,73.707ZM87.173,75.375C86.613,76.29 86.486,77.376 86.891,77.786C87.295,78.195 88.038,77.445 88.541,76.118C89.585,73.365 88.696,72.881 87.173,75.375ZM96.118,76.833C96.556,78.481 98.996,79.226 104.341,79.345L111.941,79.512L105.017,78.847C101.21,78.479 97.51,77.35 96.794,76.334C95.895,75.059 95.687,75.212 96.118,76.833ZM12.76,77.933C10.861,78.303 7.387,78.312 5.04,77.954C2.693,77.595 4.247,77.292 8.493,77.279C12.739,77.268 14.659,77.562 12.76,77.933ZM35.318,78.826C35.979,79.494 47.584,79.844 61.106,79.603L85.693,79.167L59.903,78.39C45.72,77.964 34.656,78.159 35.318,78.826ZM146.322,79.528C149.097,79.875 153.266,79.869 155.587,79.512C157.907,79.155 155.636,78.87 150.541,78.879C145.445,78.887 143.548,79.18 146.322,79.528Z" clip-rule="evenodd" fill-rule="evenodd" fill="url(#pf_0_1_3326)"/>
<path d="M41.489,3.002C39.57,5.48 39.624,5.535 42.073,3.593C44.645,1.55 45.462,0.268 44.191,0.268C43.872,0.268 42.655,1.497 41.489,3.002ZM75.457,3.002C73.538,5.48 73.592,5.535 76.041,3.593C78.613,1.55 79.43,0.268 78.159,0.268C77.84,0.268 76.623,1.497 75.457,3.002ZM102.612,1.935C102.051,2.85 101.925,3.936 102.329,4.346C102.734,4.755 103.476,4.005 103.98,2.679C105.024,-0.075 104.134,-0.559 102.612,1.935ZM98.784,8.899C97.71,10.209 97.131,11.584 97.495,11.954C97.861,12.323 99.008,11.252 100.044,9.573C102.286,5.94 101.539,5.541 98.784,8.899ZM29.335,23.706C28.426,25.425 28.03,26.831 28.455,26.831C28.88,26.831 29.97,25.425 30.879,23.706C31.788,21.987 32.184,20.581 31.759,20.581C31.335,20.581 30.244,21.987 29.335,23.706ZM80.287,22.236C80.287,23.145 80.982,23.456 81.831,22.925C82.68,22.393 83.375,21.65 83.375,21.27C83.375,20.89 82.68,20.581 81.831,20.581C80.982,20.581 80.287,21.326 80.287,22.236ZM46.288,29.212C45.214,30.522 44.635,31.897 44.999,32.267C45.365,32.636 46.512,31.566 47.548,29.886C49.79,26.253 49.043,25.854 46.288,29.212ZM112.104,32.498C110.863,35.906 106.075,44.661 103.892,47.516C101.1,51.165 100.362,54.859 102.598,53.99C103.742,53.545 105.144,53.945 105.714,54.876C106.283,55.809 107.406,56.159 108.21,55.656C109.015,55.152 109.274,54.088 108.788,53.29C107.534,51.238 112.961,42.429 114.777,43.564C115.625,44.094 115.779,43.688 115.132,42.63C114.504,41.6 114.686,39.907 115.538,38.867C116.59,37.586 116.458,35.786 115.129,33.275C113.316,29.848 113.091,29.789 112.104,32.498ZM23.159,34.644C22.25,36.363 21.854,37.769 22.279,37.769C22.704,37.769 23.794,36.363 24.703,34.644C25.612,32.925 26.008,31.519 25.583,31.519C25.159,31.519 24.068,32.925 23.159,34.644ZM135.919,33.863C135.919,34.722 136.592,36.48 137.415,37.769C138.238,39.058 138.911,39.41 138.911,38.55C138.911,37.691 138.238,35.933 137.415,34.644C136.592,33.355 135.919,33.003 135.919,33.863ZM41.656,37.025C40.582,38.335 40.003,39.71 40.367,40.08C40.733,40.449 41.88,39.378 42.916,37.699C45.158,34.066 44.411,33.667 41.656,37.025ZM34.676,48.812C34.115,49.727 33.989,50.813 34.393,51.223C34.798,51.632 35.54,50.882 36.044,49.555C37.088,46.802 36.198,46.318 34.676,48.812ZM30.044,56.624C29.483,57.54 29.357,58.626 29.761,59.035C30.166,59.445 30.908,58.695 31.412,57.368C32.455,54.615 31.566,54.131 30.044,56.624ZM97.24,58.901C96.166,60.21 95.587,61.585 95.951,61.956C96.317,62.325 97.464,61.254 98.5,59.574C100.742,55.942 99.995,55.543 97.24,58.901ZM119.596,64.437C119.035,65.353 118.909,66.439 119.313,66.848C119.718,67.258 120.461,66.508 120.964,65.181C122.008,62.428 121.118,61.943 119.596,64.437ZM23.868,67.562C23.307,68.478 23.181,69.564 23.585,69.973C23.99,70.383 24.732,69.633 25.236,68.306C26.279,65.553 25.39,65.068 23.868,67.562ZM91.804,67.562C91.243,68.478 91.117,69.564 91.521,69.973C91.926,70.383 92.668,69.633 93.172,68.306C94.216,65.553 93.326,65.068 91.804,67.562ZM154.447,66.676C154.447,67.536 155.12,69.294 155.943,70.583C156.766,71.872 157.439,72.223 157.439,71.364C157.439,70.505 156.766,68.747 155.943,67.458C155.12,66.168 154.447,65.817 154.447,66.676ZM20.04,74.527C18.966,75.836 18.478,77.303 18.953,77.786C19.43,78.269 20.596,77.197 21.544,75.405C23.567,71.58 22.816,71.142 20.04,74.527ZM87.172,75.375C86.611,76.291 86.485,77.377 86.889,77.786C87.294,78.195 88.036,77.445 88.54,76.119C89.584,73.366 88.694,72.881 87.172,75.375ZM96.116,76.833C96.555,78.481 98.994,79.227 104.34,79.345L111.939,79.513L105.016,78.847C101.208,78.48 97.509,77.35 96.793,76.334C95.894,75.059 95.685,75.213 96.116,76.833ZM1.01,78.786C1.403,79.431 5.158,79.958 9.354,79.958C13.551,79.958 16.983,79.431 16.983,78.786C16.983,78.141 13.228,77.614 8.638,77.614C4.049,77.614 0.617,78.141 1.01,78.786ZM35.317,78.827C35.977,79.494 47.582,79.844 61.104,79.603L85.691,79.167L59.902,78.391C45.718,77.964 34.654,78.16 35.317,78.827ZM146.321,79.528C149.096,79.875 153.264,79.869 155.585,79.513C157.906,79.155 155.634,78.87 150.539,78.88C145.444,78.888 143.546,79.18 146.321,79.528Z" clip-rule="evenodd" fill-rule="evenodd" fill="url(#pf_0_1_3327)"/>
<defs>
<linearGradient id="pf_0_1_3322" x1="79.978" y1="0.146" x2="79.978" y2="79.981" gradientUnits="userSpaceOnUse">
<stop stop-color="#D4CDC5"/>
<stop offset="1" stop-color="#6E6A66"/>
</linearGradient>
<linearGradient id="pf_0_1_3323" x1="79.959" y1="0" x2="79.959" y2="79.982" gradientUnits="userSpaceOnUse">
<stop stop-color="#D4CDC5"/>
<stop offset="1" stop-color="#6E6A66"/>
</linearGradient>
<linearGradient id="pf_0_1_3324" x1="79.902" y1="0.163" x2="79.902" y2="79.957" gradientUnits="userSpaceOnUse">
<stop stop-color="#D4CDC5"/>
<stop offset="1" stop-color="#6E6A66"/>
</linearGradient>
<linearGradient id="pf_0_1_3325" x1="80.207" y1="0.781" x2="80.207" y2="80" gradientUnits="userSpaceOnUse">
<stop stop-color="#D4CDC5"/>
<stop offset="1" stop-color="#6E6A66"/>
</linearGradient>
<linearGradient id="pf_0_1_3326" x1="79.027" y1="0.806" x2="79.027" y2="79.997" gradientUnits="userSpaceOnUse">
<stop stop-color="#D4CDC5"/>
<stop offset="1" stop-color="#6E6A66"/>
</linearGradient>
<linearGradient id="pf_0_1_3327" x1="79.21" y1="0.268" x2="79.21" y2="79.958" gradientUnits="userSpaceOnUse">
<stop stop-color="#D4CDC5"/>
<stop offset="1" stop-color="#6E6A66"/>
</linearGradient>
</defs>
</svg>
