<svg width="200" height="166" viewBox="0 0 200 166" fill="none" xmlns="http://www.w3.org/2000/svg" xmlns:xlink="http://www.w3.org/1999/xlink">
<path d="M51.45,7.85C49.975,11.864 46.698,21.358 44.168,28.948C41.636,36.538 30.662,68.413 19.783,99.779C8.901,131.145 0,158.857 0,161.36C0,164.651 2.629,165.913 9.492,165.913C22.417,165.913 24.625,163.967 29.268,148.492C31.474,141.132 39.372,117.868 46.818,96.796L60.355,58.479L63.939,67.616C65.911,72.638 67.531,78.523 67.537,80.688C67.55,84.625 47.424,145.34 44.178,151.16C43.234,152.852 42.46,156.866 42.46,160.076C42.46,165.459 44.898,165.909 73.823,165.864C91.073,165.835 106.084,164.742 107.185,163.432C108.285,162.122 113.339,149.743 118.419,135.921C123.499,122.099 128.411,110.793 129.333,110.793C133.738,110.793 132.861,119.204 126.452,138.457C122.603,150.022 119.984,160.929 120.635,162.699C122.001,166.409 136.978,166.973 140.083,163.432C142.305,160.9 154.682,126.188 156.927,116.195C157.967,111.568 160.032,115.88 166.245,135.649C170.635,149.62 175.194,162.122 176.377,163.432C180.171,167.637 198.829,166.276 199.871,161.714C200.728,157.962 194.591,139.173 158.532,35.154C153.076,19.409 148.61,5.185 148.61,3.541C148.61,1.9 146.576,0.555 144.092,0.555C140.396,0.555 137.391,6.787 127.594,34.761C121.005,53.573 114.461,69.71 113.05,70.621C111.639,71.529 106.401,71.821 101.408,71.27L92.333,70.264L98.289,56.485C103.189,45.146 105.357,42.705 110.523,42.705C114.428,42.705 117.583,40.558 118.871,37.031C120.009,33.912 123.36,24.37 126.317,15.829L131.696,0.302L113.714,1.239L95.732,2.176L88.624,22.843L81.517,43.509L74.367,22.032C67.745,2.14 66.734,0.555 60.673,0.555C55.968,0.555 53.376,2.604 51.45,7.85ZM102.29,106.828C102.29,108.216 100.937,112.593 99.285,116.555C96.801,122.517 94.449,123.763 85.667,123.763L75.052,123.763L78.472,114.036C81.585,105.181 82.807,104.309 92.092,104.309C97.701,104.309 102.29,105.443 102.29,106.828Z" clip-rule="evenodd" fill-rule="evenodd" fill="url(#pf_0_1_3082)"/>
<path d="M51.321,7.85C49.777,11.864 48.237,17.334 47.899,20.009C47.561,22.684 46.851,25.602 46.32,26.493C40.239,36.71 30.618,67.048 32.405,70.375C33.157,71.775 32.791,71.98 31.586,70.825C29.44,68.767 23.637,86.888 24.679,92.39C24.957,93.862 24.359,94.206 23.347,93.155C21.543,91.281 18.121,103.349 18.966,108.602C19.202,110.074 18.569,110.417 17.557,109.367C15.803,107.545 12.327,119.476 13.128,124.573C13.338,125.912 12.665,127.005 11.63,127.005C9.401,127.005 3.076,146.413 5.257,146.556C6.081,146.611 5.234,148.141 3.378,149.96C1.519,151.779 0,156.111 0,159.59C0,165.066 1.374,165.913 10.246,165.913C15.882,165.913 21.84,164.09 23.486,161.86C27.883,155.91 38.712,120.206 37.291,116.344C36.622,114.522 36.952,113.945 38.027,115.06C40.457,117.583 50.637,86.904 48.698,82.903C47.92,81.301 48.076,81.078 49.041,82.404C51.398,85.636 56.563,72.878 54.818,68.138C54.017,65.955 54.287,65.275 55.47,66.503C56.584,67.661 58,66.393 58.62,63.689C59.593,59.425 60.222,59.536 63.341,64.516C65.319,67.677 66.591,71.36 66.164,72.696C65.74,74.035 66.216,75.128 67.222,75.128C70.156,75.128 68.822,85.643 65.068,92.114C63.171,95.386 62.136,99.468 62.769,101.183C63.401,102.902 63.138,104.309 62.185,104.309C60.322,104.309 55.075,120.54 55.632,124.573C55.818,125.912 54.957,127.005 53.718,127.005C52.481,127.005 52.033,127.955 52.724,129.116C53.415,130.276 52.473,133.217 50.632,135.649C47.636,139.611 47.837,139.864 52.566,138.061C55.47,136.955 60.029,135.84 62.696,135.581C65.365,135.321 67.658,134.381 67.795,133.489C67.93,132.598 68.247,128.616 68.496,124.644C68.907,118.085 77.187,103.236 78.868,106.037C79.254,106.682 77.721,111.156 75.463,115.981C73.205,120.806 71.792,125.484 72.325,126.379C74.564,130.14 95.634,126.577 97.95,122.044C99.536,118.938 99.571,118.416 98.052,120.533C96.774,122.31 91.077,123.763 85.389,123.763L75.052,123.763L78.472,114.036C81.6,105.142 82.784,104.309 92.298,104.309C101.153,104.309 102.522,105.103 101.487,109.629C100.47,114.081 100.754,114.282 103.211,110.855C107.528,104.837 106.802,101.066 101.325,101.066C98.671,101.066 96.5,99.653 96.5,97.925C96.5,96.2 97.942,95.717 99.706,96.851C102.311,98.531 102.69,97.451 101.73,91.077C100.578,83.409 100.621,83.376 103.61,89.718C106.086,94.968 106.447,95.12 105.505,90.529C104.865,87.41 104.842,82.666 105.451,79.991C106.99,73.26 111.927,73.87 112.002,80.802C112.058,85.993 112.299,85.954 114.835,80.325C116.36,76.94 117.149,72.93 116.589,71.409C116.03,69.888 116.391,68.643 117.39,68.643C118.392,68.643 119.703,65.359 120.305,61.348C121.287,54.792 121.001,54.958 117.473,62.969C114.032,70.786 112.26,71.886 103.095,71.886C91.982,71.886 90.809,69.237 97.052,58.258C98.949,54.922 99.97,50.752 99.322,48.992C98.673,47.228 99.293,46.187 100.7,46.677C102.105,47.166 103.068,45.899 102.84,43.856C102.612,41.816 105.374,39.566 108.978,38.86C112.581,38.153 115.105,38.73 114.586,40.14C114.067,41.551 114.353,42.705 115.221,42.705C117.892,42.705 121.8,29.706 120.382,25.55C119.645,23.394 119.755,22.716 120.625,24.042C121.496,25.368 123.487,23.384 125.051,19.636C127.459,13.858 127.486,12.331 125.224,9.624C123.113,7.095 123.227,6.787 125.772,8.152C127.571,9.111 129.461,7.814 130.055,5.214C130.931,1.378 128.071,0.555 113.855,0.555C98.069,0.555 96.348,1.181 93.781,7.85C92.237,11.864 90.697,17.211 90.359,19.74C90.021,22.265 88.193,27.061 86.298,30.394C84.401,33.73 83.31,37.708 83.874,39.242C84.438,40.772 83.409,42.984 81.591,44.157C79.771,45.331 78.873,45.299 79.595,44.086C81.382,41.08 75.712,23.251 72.97,23.251C71.757,23.251 71.312,22.337 71.976,21.218C72.641,20.1 71.896,14.993 70.318,9.87C66.566,-2.321 55.682,-3.479 51.321,7.85ZM136.065,10.282C134.419,15.632 133.904,20.009 134.921,20.009C135.938,20.009 137.322,17.091 137.995,13.524C139.178,7.263 141.101,5.684 146.198,6.796C147.525,7.088 148.61,5.801 148.61,3.94C148.61,2.079 146.462,0.555 143.835,0.555C140.481,0.555 138.169,3.45 136.065,10.282ZM144.428,19.824C142.106,26.678 141.919,28.87 143.754,27.687C145.154,26.782 146.813,22.862 147.441,18.974C148.392,13.06 150.036,16.15 157.48,37.841C162.377,52.108 166.548,65.456 166.748,67.505C166.949,69.554 168.269,73.568 169.678,76.422C171.089,79.278 171.485,81.658 170.558,81.716C169.634,81.771 170.612,84.112 172.735,86.914C176.518,91.907 176.504,91.965 172.118,89.764C168.547,87.971 167.418,88.943 166.544,94.553C165.774,99.504 164.371,101.115 161.809,99.99C159.048,98.777 157.467,101.225 155.249,110.135C153.644,116.597 150.623,124.55 148.539,127.812C145.154,133.11 144.75,133.172 144.75,128.383C144.75,124.275 143.401,123.361 138.96,124.453C135.776,125.238 133.197,125.04 133.23,124.012C133.408,118.504 142.424,98.203 143.777,100.262C144.654,101.598 144.76,100.904 144.015,98.725C143.27,96.547 144.028,91.255 145.702,86.966C148.191,80.582 148.325,77.625 146.437,70.663C145.169,65.985 143.569,62.159 142.884,62.159C142.199,62.159 135.289,80.397 127.533,102.688C119.776,124.978 112.608,143.216 111.606,143.216C110.603,143.216 110.303,144.633 110.94,146.365C111.577,148.096 109.89,150.44 107.194,151.578C104.496,152.716 102.29,154.947 102.29,156.536C102.29,158.128 89.156,159.428 73.105,159.428C46.115,159.428 44.118,159.023 46.567,154.036C48.837,149.416 48.802,148.874 46.32,150.239C44.728,151.115 43.147,154.999 42.807,158.87C42.198,165.854 42.452,165.913 73.687,165.864C91.011,165.835 106.084,164.742 107.185,163.432C108.285,162.122 113.339,149.743 118.419,135.921C123.499,122.099 128.411,110.793 129.333,110.793C132.85,110.793 133.215,117.479 130.26,127.721C127.587,136.991 127.575,137.546 130.182,132.06C132.688,126.781 133.17,126.616 133.17,131.029C133.17,133.927 131.423,137.225 129.289,138.363C124.952,140.678 118.865,157.888 120.66,162.764C122.007,166.425 137.007,166.94 140.083,163.432C142.208,161.01 154.244,127.475 157.23,115.657C158.131,112.09 158.673,107.198 158.434,104.789C158.069,101.102 158.457,101.102 160.864,104.789C162.614,107.467 163.039,110.369 161.958,112.252C159.432,116.655 159.769,121.337 162.419,118.591C163.768,117.187 164.124,117.696 163.321,119.882C161.985,123.513 172.722,158.997 176.497,163.432C180.087,167.647 198.829,166.269 199.871,161.714C200.398,159.405 193.284,135.694 184.06,109.026C174.837,82.358 163.429,49.232 158.71,35.41C153.991,21.588 149.569,10.292 148.886,10.301C148.205,10.314 146.198,14.597 144.428,19.824ZM129.107,30.455C127.826,34.518 125.512,41.123 123.962,45.137C122.414,49.151 121.609,52.432 122.175,52.432C122.742,52.432 125.087,47.315 127.388,41.064C129.688,34.81 132.363,30.52 133.334,31.529C134.305,32.537 135.1,31.902 135.1,30.118C135.1,23.215 131.321,23.426 129.107,30.455ZM142.82,45.947C142.82,47.73 143.741,49.189 144.864,49.189C145.987,49.189 146.371,47.73 145.715,45.947C145.059,44.164 144.14,42.705 143.671,42.705C143.202,42.705 142.82,44.164 142.82,45.947ZM92.028,82.222C91.413,84.806 90.955,84.038 90.863,80.261C90.78,76.843 91.235,74.93 91.876,76.007C92.517,77.083 92.586,79.881 92.028,82.222ZM101.325,78.37C101.981,80.154 101.597,81.613 100.474,81.613C99.351,81.613 98.43,80.154 98.43,78.37C98.43,76.587 98.812,75.128 99.281,75.128C99.75,75.128 100.669,76.587 101.325,78.37ZM163.803,75.939C162.931,78.811 162.844,91.207 163.707,89.754C164.874,87.792 165.727,75.128 164.693,75.128C164.34,75.128 163.94,75.494 163.803,75.939ZM147.753,94.29C146.242,98.398 148.687,108.047 150.922,106.796C153.4,105.408 152.611,99.192 150.11,100.389C149.025,100.908 148.651,99.082 149.278,96.336C150.519,90.902 149.502,89.537 147.753,94.29ZM173.177,96.54C172.536,97.617 170.871,97.733 169.479,96.796C167.939,95.762 168.397,94.994 170.645,94.838C172.679,94.699 173.818,95.464 173.177,96.54ZM94.047,99.782C93.406,100.859 91.741,100.976 90.349,100.039C88.809,99.004 89.266,98.236 91.515,98.08C93.549,97.941 94.688,98.706 94.047,99.782ZM144.198,117.291C147.552,122.783 150.54,122.864 150.54,117.466C150.54,115.994 148.338,114.084 145.646,113.219C140.963,111.717 140.9,111.892 144.198,117.291ZM63.69,127.005C63.69,128.788 62.769,130.247 61.646,130.247C60.523,130.247 60.139,128.788 60.795,127.005C61.451,125.222 62.37,123.763 62.839,123.763C63.308,123.763 63.69,125.222 63.69,127.005ZM28.195,143.939C23.602,157.106 22.745,158.043 16.428,156.805C12.68,156.069 9.142,154.188 8.567,152.622C7.99,151.056 9.009,150.735 10.831,151.909C13.336,153.524 13.74,152.924 12.491,149.442C11.186,145.807 11.424,145.596 13.622,148.449C16.859,152.648 23.05,153.099 23.401,149.16C23.534,147.675 23.791,144.637 23.971,142.406C24.152,140.178 25.453,138.778 26.862,139.296C28.498,139.9 28.996,138.372 28.244,135.075C27.56,132.086 27.867,130.743 28.971,131.891C30.021,132.98 30.88,132.082 30.88,129.897C30.88,127.712 31.391,126.781 32.015,127.832C32.64,128.879 30.921,136.129 28.195,143.939ZM127.38,148.08C127.38,150.755 126.539,152.943 125.51,152.943C124.483,152.943 124.142,150.755 124.751,148.08C125.363,145.405 126.205,143.216 126.622,143.216C127.039,143.216 127.38,145.405 127.38,148.08ZM96.653,151.591C96.745,155.369 97.203,156.137 97.818,153.553C98.376,151.212 98.307,148.414 97.666,147.337C97.025,146.261 96.57,148.174 96.653,151.591Z" clip-rule="evenodd" fill-rule="evenodd" fill="url(#pf_0_1_3083)"/>
<path d="M51.334,7.568C49.726,11.427 48.86,15.804 49.41,17.295C49.958,18.787 49.437,20.009 48.25,20.009C47.063,20.009 46.629,21.468 47.285,23.251C47.941,25.035 47.575,26.494 46.471,26.494C45.367,26.494 43.919,30.141 43.253,34.599C42.587,39.058 41.29,42.705 40.37,42.705C39.451,42.705 37.351,47.082 35.705,52.432C34.059,57.782 33.167,62.159 33.725,62.159C34.283,62.159 32.972,65.129 30.811,68.76C28.647,72.395 27.396,76.772 28.029,78.487C28.661,80.206 28.112,81.613 26.812,81.613C25.511,81.613 24.953,82.466 25.573,83.503C26.192,84.544 25.001,88.247 22.928,91.729C20.856,95.211 19.676,99.468 20.309,101.183C20.941,102.902 20.56,104.309 19.464,104.309C18.366,104.309 16.121,108.686 14.475,114.036C12.829,119.386 11.937,123.763 12.495,123.763C13.053,123.763 11.742,126.733 9.581,130.364C7.417,133.999 6.166,138.376 6.799,140.091C7.431,141.809 6.977,143.217 5.79,143.217C4.603,143.217 4.113,144.523 4.7,146.118C5.288,147.717 4.47,149.857 2.883,150.881C1.297,151.903 0,155.703 0,159.328C0,165.054 1.237,165.913 9.492,165.913C22.776,165.913 24.636,164.045 30.087,145.243C32.737,136.103 33.667,131.223 32.156,134.394C29.716,139.514 29.274,139.588 28.236,135.036C27.558,132.076 27.871,130.747 28.971,131.891C30.021,132.981 30.88,132.498 30.88,130.818C30.88,129.135 32.729,126.95 34.991,125.955C37.801,124.719 38.724,122.498 37.907,118.925C37.251,116.049 37.432,114.444 38.311,115.355C39.189,116.27 41.841,111.238 44.203,104.176C46.565,97.117 48.049,91.34 47.501,91.34C46.953,91.34 48.665,87.423 51.307,82.634C53.947,77.845 55.654,71.935 55.096,69.496C54.54,67.058 54.943,65.956 55.991,67.045C57.041,68.135 58.008,67.48 58.141,65.593C58.274,63.706 58.491,60.82 58.624,59.186C58.757,57.552 59.656,55 60.621,53.512C61.642,51.942 61.797,52.51 60.99,54.864C60.228,57.094 60.573,58.917 61.76,58.917C62.947,58.917 63.377,60.385 62.717,62.182C62.055,63.978 62.868,66.319 64.522,67.386C66.176,68.452 67.048,70.628 66.46,72.226C65.873,73.822 66.216,75.128 67.222,75.128C69.862,75.128 68.961,86 66.062,89.106C64.713,90.555 64.113,93.107 64.728,94.78C65.344,96.456 64.877,97.824 63.69,97.824C62.503,97.824 62.069,99.283 62.725,101.067C63.381,102.85 63.015,104.309 61.911,104.309C60.807,104.309 59.359,107.957 58.693,112.415C58.027,116.873 56.655,120.52 55.648,120.52C54.638,120.52 54.349,121.979 55.005,123.763C55.661,125.546 55.132,127.005 53.832,127.005C52.531,127.005 52.033,127.955 52.724,129.116C53.415,130.277 52.473,133.217 50.632,135.649C47.636,139.611 47.837,139.864 52.566,138.061C55.47,136.956 60.029,135.84 62.696,135.581C65.365,135.322 67.658,134.381 67.795,133.49C67.93,132.598 68.249,128.539 68.502,124.47C68.752,120.4 69.293,116.74 69.702,116.331C70.111,115.923 72.547,112.684 75.116,109.137C79.779,102.697 79.782,102.697 78.487,109.172C77.235,115.437 77.285,115.449 79.995,109.581C82.338,104.507 84.719,103.738 94.476,104.925C100.897,105.706 106.15,105.155 106.15,103.706C106.15,102.253 103.979,101.067 101.325,101.067C98.671,101.067 96.5,99.653 96.5,97.925C96.5,96.2 97.942,95.717 99.706,96.852C102.311,98.531 102.69,97.451 101.73,91.077C100.578,83.409 100.621,83.377 103.61,89.719C106.086,94.968 106.447,95.12 105.505,90.529C104.865,87.41 104.842,82.667 105.451,79.992C106.99,73.261 111.927,73.87 112.002,80.802C112.058,85.993 112.299,85.954 114.835,80.326C116.36,76.941 117.195,73.053 116.692,71.685C116.188,70.317 116.867,68.459 118.201,67.554C119.936,66.38 119.971,65.839 118.326,65.657C117.062,65.518 115.491,66.86 114.835,68.644C114.179,70.427 108.918,71.886 103.141,71.886C92.339,71.886 90.343,68.267 96.5,59.841C98.092,57.662 98.55,55.833 97.517,55.778C96.487,55.72 97.587,53.385 99.963,50.59C102.34,47.792 103.844,44.304 103.303,42.835C102.763,41.366 105.353,39.57 109.061,38.844C112.876,38.095 115.8,38.96 115.8,40.834C115.8,42.656 117.153,40.902 118.807,36.937C120.461,32.968 121.194,28.043 120.438,25.988C119.668,23.89 119.905,23.122 120.98,24.24C122.034,25.333 124.831,20.453 127.193,13.391L131.487,0.555L114.104,0.555C98.471,0.555 96.425,1.262 93.794,7.568C92.187,11.427 91.32,15.804 91.87,17.295C92.418,18.787 91.897,20.009 90.71,20.009C89.523,20.009 89.033,21.316 89.62,22.911C90.208,24.509 89.336,26.685 87.682,27.752C86.028,28.818 85.215,31.159 85.877,32.955C86.537,34.752 86.107,36.22 84.92,36.22C83.733,36.22 83.243,37.527 83.83,39.122C84.418,40.721 83.556,42.89 81.913,43.95C80.205,45.053 79.433,44.505 80.109,42.669C80.757,40.906 80.317,39.463 79.13,39.463C77.943,39.463 77.49,38.056 78.121,36.337C78.754,34.622 77.574,30.365 75.502,26.883C73.429,23.4 72.238,19.698 72.858,18.657C73.477,17.616 72.825,16.767 71.41,16.767C69.995,16.767 69.385,15.846 70.055,14.721C70.725,13.592 70.406,9.945 69.345,6.615C66.537,-2.198 55.154,-1.591 51.334,7.568ZM138.074,3.583C137.462,5.247 139.582,6.485 142.785,6.33C145.989,6.177 148.61,4.815 148.61,3.305C148.61,-0.44 139.466,-0.197 138.074,3.583ZM144.428,19.824C142.106,26.678 141.919,28.87 143.754,27.687C145.154,26.782 146.792,22.885 147.392,19.023C148.477,12.056 148.51,12.049 151.55,18.436C154.528,24.694 154.555,24.671 152.509,17.577C149.743,7.993 148.297,8.395 144.428,19.824ZM130.42,26.101C129.822,27.726 130.63,29.892 132.217,30.916C133.803,31.937 135.1,31.448 135.1,29.827C135.1,25.43 131.671,22.7 130.42,26.101ZM158.26,39.463C159.397,43.029 160.76,45.947 161.29,45.947C161.821,45.947 161.327,43.029 160.19,39.463C159.053,35.896 157.691,32.978 157.16,32.978C156.629,32.978 157.123,35.896 158.26,39.463ZM123.52,45.947C122.383,49.514 121.889,52.432 122.42,52.432C122.951,52.432 124.313,49.514 125.45,45.947C126.587,42.381 127.081,39.463 126.55,39.463C126.019,39.463 124.657,42.381 123.52,45.947ZM142.82,45.947C142.82,47.731 143.741,49.19 144.864,49.19C145.987,49.19 146.371,47.731 145.715,45.947C145.059,44.164 144.14,42.705 143.671,42.705C143.202,42.705 142.82,44.164 142.82,45.947ZM167.296,65.401C169.419,71.643 175.31,88.853 180.384,103.644C185.458,118.436 189.1,131.395 188.478,132.442C187.855,133.486 188.177,136.949 189.192,140.14C190.482,144.183 190.316,146.426 188.642,147.561C186.807,148.81 186.797,149.251 188.598,149.445C189.891,149.584 190.449,151.89 189.839,154.565C189.159,157.538 186.234,159.428 182.314,159.428C176.36,159.428 175.383,157.817 168.634,136.823C164.637,124.392 161.024,114.798 160.603,115.505C159.59,117.207 173.86,160.352 176.481,163.51C177.606,164.865 183.302,165.595 189.14,165.131C198.302,164.408 199.755,163.403 199.755,157.807C199.755,153.245 198.611,151.536 195.895,152.039C193.772,152.431 193.122,151.945 194.448,150.959C195.776,149.97 196.86,147.736 196.86,145.999C196.86,144.257 195.857,143.875 194.631,145.146C193.322,146.508 192.925,146.044 193.668,144.024C194.861,140.785 170.031,64.263 165.529,57.295C164.376,55.512 165.171,59.16 167.296,65.401ZM125.261,110.015L108.667,157.807L75.563,158.695C55.675,159.227 42.46,160.845 42.46,162.748C42.46,166.451 104.102,167.103 107.185,163.432C108.285,162.122 113.366,149.669 118.479,135.763C127.108,112.282 132.622,105.311 131.902,118.783C131.483,126.632 133.477,122.275 141.49,97.824C148.13,77.566 148.27,76.467 145.126,69.487C141.888,62.295 141.687,62.707 125.261,110.015ZM92.028,82.222C91.413,84.806 90.955,84.038 90.863,80.261C90.78,76.843 91.235,74.93 91.876,76.007C92.517,77.083 92.586,79.881 92.028,82.222ZM101.325,78.37C101.981,80.154 101.597,81.613 100.474,81.613C99.351,81.613 98.43,80.154 98.43,78.37C98.43,76.587 98.812,75.128 99.281,75.128C99.75,75.128 100.669,76.587 101.325,78.37ZM94.047,99.783C93.406,100.859 91.741,100.976 90.349,100.039C88.809,99.005 89.266,98.236 91.515,98.08C93.549,97.941 94.688,98.706 94.047,99.783ZM72.641,122.142C71.429,127.449 72.858,127.942 86.85,127.057C91.627,126.752 96.147,125.523 96.894,124.324C97.641,123.124 92.98,122.644 86.534,123.26C78.395,124.035 75.214,123.293 76.121,120.828C76.841,118.877 76.602,117.278 75.59,117.278C74.579,117.278 73.253,119.467 72.641,122.142ZM147.74,138.71L140.334,159.973L129.995,158.89C123.688,158.228 119.903,159.071 120.291,161.049C121.061,164.976 137.15,166.979 140.083,163.517C142.635,160.505 156.761,120.161 155.817,118.578C155.446,117.956 151.812,127.015 147.74,138.71ZM63.69,127.005C63.69,128.788 62.769,130.247 61.646,130.247C60.523,130.247 60.139,128.788 60.795,127.005C61.451,125.222 62.37,123.763 62.839,123.763C63.308,123.763 63.69,125.222 63.69,127.005ZM26.263,150.33C23.781,156.695 21.963,157.891 16.417,156.805C12.676,156.069 9.142,154.189 8.567,152.623C7.99,151.056 9.009,150.736 10.831,151.909C13.336,153.524 13.74,152.924 12.491,149.442C11.186,145.807 11.424,145.596 13.622,148.45C16.859,152.648 23.05,153.099 23.401,149.16C23.534,147.675 23.861,145 24.125,143.217C24.389,141.433 24.716,138.953 24.849,137.705C24.982,136.456 26.04,137.03 27.2,138.979C28.726,141.544 28.468,144.682 26.263,150.33ZM43.425,152.944C42.769,154.727 43.101,156.186 44.162,156.186C45.224,156.186 46.629,154.727 47.285,152.944C47.941,151.16 47.609,149.701 46.548,149.701C45.486,149.701 44.081,151.16 43.425,152.944Z" clip-rule="evenodd" fill-rule="evenodd" fill="url(#pf_0_1_3084)"/>
<path d="M51.462,6.852C49.659,10.603 49.786,11.038 52.11,9.044C53.836,7.562 53.652,8.424 51.659,11.174C49.817,13.709 48.876,16.737 49.566,17.898C50.257,19.059 49.759,20.009 48.459,20.009C47.158,20.009 46.629,21.468 47.285,23.251C47.941,25.035 47.557,26.494 46.434,26.494C45.311,26.494 44.39,28.468 44.39,30.884C44.39,33.299 42.205,39.236 39.534,44.077C36.863,48.917 35.176,54.238 35.788,55.898C36.398,57.558 35.833,58.917 34.532,58.917C33.231,58.917 32.673,59.769 33.293,60.807C33.912,61.848 32.721,65.55 30.649,69.033C28.576,72.515 27.397,76.772 28.03,78.487C28.661,80.206 28.113,81.613 26.812,81.613C25.511,81.613 25.013,82.563 25.704,83.724C26.395,84.884 25.453,87.913 23.612,90.448C21.379,93.528 21.228,94.365 23.16,92.961C24.752,91.803 24.368,93.155 22.309,95.963C20.248,98.771 19.329,101.067 20.265,101.067C21.201,101.067 20.283,103.362 18.221,106.17C16.162,108.978 15.778,110.33 17.37,109.172C19.302,107.768 19.152,108.605 16.919,111.685C15.077,114.221 14.135,117.249 14.826,118.41C15.517,119.57 14.925,120.52 13.51,120.52C12.095,120.52 11.503,121.47 12.194,122.631C12.885,123.792 11.943,126.82 10.102,129.356C7.869,132.436 7.718,133.272 9.65,131.869C11.582,130.465 11.432,131.301 9.198,134.381C7.357,136.917 6.415,139.945 7.106,141.106C7.797,142.267 7.299,143.217 5.999,143.217C4.698,143.217 4.123,144.552 4.723,146.183C5.323,147.814 4.802,149.714 3.567,150.405C2.33,151.099 1.027,154.869 0.672,158.789C0.079,165.306 0.832,165.913 9.503,165.913C22.35,165.913 24.621,163.954 29.174,148.962C31.33,141.861 32.252,136.927 31.224,137.996C30.197,139.063 28.84,137.682 28.209,134.923C27.553,132.053 27.879,130.756 28.971,131.891C30.021,132.981 30.88,132.326 30.88,130.439C30.88,128.552 32.152,127.005 33.708,127.005C35.261,127.005 37.519,123.912 38.726,120.128C40.497,114.568 40.418,113.738 38.311,115.796C36.877,117.194 38.143,114.448 41.121,109.688C44.101,104.931 46.004,99.585 45.349,97.811C44.697,96.035 45.228,94.582 46.529,94.582C47.829,94.582 48.407,93.762 47.81,92.76C47.214,91.758 48.837,87.112 51.417,82.433C53.998,77.758 55.654,71.935 55.096,69.496C54.54,67.058 54.943,65.956 55.991,67.045C57.041,68.135 58.008,67.48 58.141,65.593C58.275,63.706 58.491,60.82 58.624,59.186C58.757,57.552 59.657,55 60.622,53.512C61.642,51.942 61.797,52.51 60.99,54.864C60.228,57.094 60.573,58.917 61.76,58.917C62.947,58.917 63.437,60.223 62.851,61.819C62.262,63.417 63.134,65.593 64.788,66.659C66.442,67.726 67.255,70.067 66.593,71.863C65.933,73.659 66.166,75.128 67.114,75.128C69.656,75.128 68.594,89.135 65.939,90.62C64.688,91.32 64.157,93.227 64.757,94.858C65.358,96.488 64.877,97.824 63.69,97.824C62.503,97.824 62.069,99.283 62.725,101.067C63.381,102.85 63.092,104.309 62.083,104.309C61.075,104.309 59.703,107.957 59.037,112.415C58.371,116.873 56.924,120.52 55.82,120.52C54.716,120.52 54.349,121.979 55.005,123.763C55.661,125.546 55.227,127.005 54.04,127.005C52.853,127.005 52.386,128.373 53.002,130.05C53.618,131.723 52.583,134.66 50.703,136.576C47.901,139.436 48.237,139.702 52.566,138.058C55.47,136.956 60.029,135.84 62.696,135.581C65.365,135.322 67.658,134.381 67.795,133.49C67.93,132.598 68.249,128.539 68.502,124.47C68.753,120.4 69.293,116.74 69.702,116.331C70.111,115.923 72.547,112.684 75.116,109.137C79.779,102.697 79.783,102.698 78.488,109.172C77.235,115.437 77.285,115.449 79.995,109.581C82.338,104.507 84.72,103.738 94.476,104.925C100.897,105.706 106.15,105.155 106.15,103.706C106.15,102.253 103.979,101.067 101.325,101.067C98.671,101.067 96.5,99.653 96.5,97.925C96.5,96.2 97.942,95.717 99.706,96.852C102.311,98.531 102.69,97.451 101.731,91.077C100.578,83.409 100.621,83.377 103.61,89.719C106.087,94.968 106.447,95.12 105.506,90.529C104.865,87.41 104.842,82.667 105.452,79.992C106.99,73.261 111.927,73.87 112.002,80.802C112.058,85.993 112.299,85.954 114.835,80.326C116.36,76.941 117.196,73.053 116.692,71.685C116.188,70.317 116.868,68.459 118.201,67.554C119.936,66.38 119.971,65.839 118.327,65.657C117.062,65.518 115.491,66.86 114.835,68.644C114.179,70.427 108.266,71.863 101.694,71.837C93.267,71.802 90.598,70.861 92.64,68.644C94.232,66.915 94.717,65.479 93.719,65.45C92.719,65.424 93.588,63.258 95.649,60.642C97.708,58.022 98.55,55.833 97.517,55.778C96.487,55.72 97.587,53.385 99.963,50.59C102.34,47.792 103.784,44.145 103.174,42.485C102.562,40.821 104.228,39.463 106.876,39.463C114.92,39.463 122.123,33.5 120.843,27.901C120.216,25.158 120.423,23.66 121.301,24.571C122.179,25.485 124.709,20.816 126.923,14.202L130.947,2.176L113.494,2.721C102.559,3.065 95.228,4.754 93.86,7.251C92.189,10.295 92.357,10.684 94.57,8.898C96.386,7.429 96.217,8.278 94.119,11.174C92.277,13.709 91.336,16.737 92.026,17.898C92.717,19.059 92.22,20.009 90.919,20.009C89.618,20.009 89.093,21.478 89.753,23.274C90.415,25.07 89.602,27.411 87.948,28.478C86.294,29.545 85.422,31.72 86.011,33.319C86.597,34.914 86.157,36.221 85.034,36.221C83.911,36.221 83.206,37.861 83.473,39.868C83.737,41.875 82.749,44.252 81.274,45.153C79.632,46.155 79.115,45.37 79.941,43.127C80.682,41.11 80.317,39.463 79.13,39.463C77.943,39.463 77.509,38.004 78.165,36.221C78.821,34.437 78.387,32.978 77.2,32.978C76.013,32.978 75.583,31.509 76.243,29.713C76.905,27.917 76.092,25.576 74.438,24.509C72.784,23.443 71.912,21.267 72.501,19.669C73.087,18.073 72.597,16.767 71.41,16.767C70.223,16.767 69.789,15.308 70.445,13.524C71.101,11.741 70.717,10.282 69.594,10.282C68.471,10.282 67.768,8.664 68.033,6.686C68.77,1.191 54.112,1.337 51.462,6.852ZM138.1,3.515C137.37,5.5 138.167,7.04 139.925,7.04C141.658,7.04 142.479,8.59 141.767,10.522C141.062,12.435 142.315,12.085 144.548,9.741C146.783,7.396 148.61,4.193 148.61,2.62C148.61,1.048 147.46,1.366 146.055,3.324C144.25,5.84 142.897,5.873 141.448,3.438C139.999,1.003 139.014,1.025 138.1,3.515ZM144.428,19.824C142.106,26.678 141.919,28.87 143.754,27.687C145.154,26.782 146.761,23.083 147.325,19.458C147.973,15.291 149.216,13.771 150.708,15.321C152.216,16.887 152.571,16.42 151.689,14.027C149.554,8.22 147.914,9.53 144.428,19.824ZM129.31,27.768C129.31,28.468 130.613,29.882 132.205,30.91C133.798,31.934 135.1,31.36 135.1,29.635C135.1,27.907 133.798,26.494 132.205,26.494C130.613,26.494 129.31,27.067 129.31,27.768ZM142.82,45.947C142.82,47.731 143.741,49.19 144.864,49.19C145.987,49.19 146.371,47.731 145.715,45.947C145.059,44.164 144.14,42.705 143.671,42.705C143.202,42.705 142.82,44.164 142.82,45.947ZM135.619,80.721C120.112,127.443 117.821,134.699 120.496,128.626C122.067,125.06 124.599,119.279 126.122,115.78C128.386,110.58 129.42,110.152 131.781,113.443C134.218,116.844 135.6,114.691 140.674,99.591C147.336,79.758 147.792,75.679 144.258,67.561C142.106,62.616 141.139,64.091 135.619,80.721ZM170.805,75.128C172.452,80.478 174.233,84.855 174.764,84.855C175.295,84.855 174.382,80.478 172.735,75.128C171.089,69.778 169.308,65.401 168.777,65.401C168.246,65.401 169.159,69.778 170.805,75.128ZM92.028,82.222C91.413,84.806 90.955,84.038 90.863,80.261C90.78,76.843 91.235,74.93 91.876,76.007C92.517,77.083 92.586,79.881 92.028,82.222ZM101.325,78.37C101.981,80.154 101.597,81.613 100.474,81.613C99.351,81.613 98.43,80.154 98.43,78.37C98.43,76.587 98.812,75.128 99.281,75.128C99.75,75.128 100.669,76.587 101.325,78.37ZM178.525,97.824C180.172,103.174 181.953,107.551 182.484,107.551C183.015,107.551 182.102,103.174 180.455,97.824C178.809,92.475 177.028,88.097 176.497,88.097C175.966,88.097 176.879,92.475 178.525,97.824ZM94.047,99.783C93.406,100.859 91.741,100.976 90.349,100.039C88.809,99.005 89.267,98.236 91.515,98.08C93.549,97.941 94.688,98.706 94.047,99.783ZM186.245,120.52C187.892,125.87 189.673,130.247 190.204,130.247C190.735,130.247 189.822,125.87 188.175,120.52C186.529,115.171 184.748,110.794 184.217,110.794C183.686,110.794 184.599,115.171 186.245,120.52ZM153.559,122.813C152.513,127.433 152.733,127.806 154.64,124.628C155.96,122.427 156.552,119.81 155.958,118.815C155.363,117.816 154.285,119.616 153.559,122.813ZM163.085,127.005C164.732,132.355 166.513,136.732 167.044,136.732C167.575,136.732 166.662,132.355 165.015,127.005C163.369,121.655 161.588,117.278 161.057,117.278C160.526,117.278 161.439,121.655 163.085,127.005ZM63.69,127.005C63.69,128.788 62.77,130.247 61.646,130.247C60.523,130.247 60.139,128.788 60.795,127.005C61.451,125.222 62.37,123.763 62.839,123.763C63.308,123.763 63.69,125.222 63.69,127.005ZM145.719,145.12L140.531,159.992L130.092,158.9C118.778,157.716 116.269,163.526 127.313,165.342C137.986,167.093 141.581,163.711 147.275,146.569C154.051,126.156 152.756,124.949 145.719,145.12ZM194.739,145.023C196.968,151.368 198.79,157.204 198.79,157.992C198.79,158.783 193.602,159.428 187.261,159.428C176.4,159.428 175.555,158.861 172.735,149.701C171.089,144.351 169.308,139.974 168.777,139.974C167.252,139.974 173.999,160.783 176.383,163.432C180.287,167.771 198.831,166.263 199.916,161.519C200.85,157.424 193.796,133.49 191.653,133.49C191.122,133.49 192.512,138.681 194.739,145.023ZM26.536,150.544C24.094,156.808 22.28,157.953 16.583,156.834C12.75,156.085 9.143,154.189 8.567,152.623C7.99,151.056 9.009,150.735 10.831,151.909C13.336,153.524 13.74,152.924 12.491,149.442C11.186,145.807 11.424,145.596 13.622,148.45C16.859,152.648 23.05,153.099 23.401,149.16C23.535,147.675 23.861,145 24.125,143.217C24.39,141.433 24.716,138.953 24.849,137.705C24.982,136.456 26.088,137.111 27.308,139.16C28.977,141.965 28.786,144.776 26.536,150.544ZM113.87,143.217C112.733,146.783 112.239,149.701 112.77,149.701C113.301,149.701 114.663,146.783 115.8,143.217C116.937,139.65 117.431,136.732 116.9,136.732C116.37,136.732 115.007,139.65 113.87,143.217ZM44.39,152.944C42.651,154.831 42.412,156.105 43.794,156.137C45.058,156.163 46.629,154.727 47.285,152.944C48.765,148.917 48.098,148.917 44.39,152.944ZM109.045,156.186C108.325,158.141 94.871,159.428 75.156,159.428C54.646,159.428 42.46,160.638 42.46,162.67C42.46,164.7 54.316,165.913 74.168,165.913C100.418,165.913 106.397,165.037 108.908,160.819C110.576,158.014 111.94,155.096 111.94,154.334C111.94,151.812 110.259,152.888 109.045,156.186Z" clip-rule="evenodd" fill-rule="evenodd" fill="url(#pf_0_1_3085)"/>
<path d="M51.487,6.806C49.654,10.613 49.776,11.047 52.111,9.044C53.836,7.562 53.653,8.424 51.659,11.174C49.818,13.709 48.876,16.738 49.567,17.898C50.258,19.059 49.76,20.009 48.459,20.009C47.158,20.009 46.63,21.468 47.286,23.251C47.942,25.035 47.558,26.494 46.435,26.494C45.311,26.494 44.391,28.468 44.391,30.884C44.391,33.299 42.206,39.236 39.535,44.077C36.864,48.918 35.177,54.238 35.789,55.898C36.399,57.558 35.833,58.917 34.532,58.917C33.232,58.917 32.674,59.77 33.293,60.807C33.913,61.848 32.722,65.551 30.649,69.033C28.576,72.515 27.397,76.772 28.03,78.487C28.661,80.206 28.113,81.613 26.812,81.613C25.512,81.613 25.014,82.563 25.705,83.724C26.396,84.884 25.454,87.913 23.612,90.448C21.379,93.528 21.229,94.365 23.161,92.961C24.753,91.804 24.369,93.156 22.31,95.963C20.248,98.771 19.33,101.067 20.266,101.067C21.202,101.067 20.283,103.362 18.222,106.17C16.163,108.978 15.779,110.33 17.371,109.173C19.303,107.769 19.152,108.605 16.919,111.685C15.078,114.221 14.136,117.249 14.827,118.41C15.518,119.571 14.926,120.521 13.511,120.521C12.096,120.521 11.504,121.471 12.195,122.631C12.886,123.792 11.944,126.82 10.102,129.356C7.869,132.436 7.719,133.273 9.651,131.869C11.583,130.465 11.432,131.301 9.199,134.382C7.358,136.917 6.416,139.945 7.107,141.106C7.798,142.267 7.3,143.217 5.999,143.217C4.698,143.217 4.114,144.523 4.7,146.119C5.289,147.717 4.54,149.815 3.039,150.781C1.535,151.751 0.535,155.187 0.811,158.417C1.504,166.467 21.231,169.175 21.231,161.218C21.231,157.81 19.399,156.186 15.555,156.186C12.432,156.186 9.348,154.743 8.699,152.979C7.999,151.076 8.865,150.642 10.832,151.909C13.337,153.524 13.741,152.924 12.492,149.442C11.187,145.807 11.425,145.597 13.623,148.45C16.859,152.649 23.051,153.099 23.402,149.16C23.535,147.675 23.861,145 24.126,143.217C24.39,141.434 24.745,138.882 24.911,137.543C25.077,136.204 26.386,137.708 27.82,140.879C30.128,145.995 30.557,146.067 31.595,141.521C32.24,138.704 31.998,137.193 31.06,138.165C30.122,139.141 28.841,137.682 28.21,134.923C27.581,132.167 27.766,130.637 28.621,131.528C29.478,132.417 31.363,130.38 32.811,127.005C34.258,123.63 36.063,121.51 36.819,122.297C37.578,123.082 38.711,121.471 39.342,118.711C40.041,115.651 39.687,114.529 38.437,115.829C37.308,117 37.493,114.98 38.844,111.342C40.197,107.704 41.998,105.45 42.847,106.332C43.696,107.214 44.499,106.387 44.632,104.5C45.4,93.567 48.401,81.386 49.934,82.978C50.706,83.779 52.445,81.461 53.798,77.823C55.149,74.185 55.334,72.165 54.205,73.335C52.954,74.636 52.601,73.514 53.3,70.453C53.931,67.694 55.222,66.244 56.174,67.233C57.123,68.219 58.009,67.48 58.142,65.593C58.275,63.706 58.491,60.82 58.625,59.186C58.758,57.552 59.657,55 60.622,53.512C61.643,51.943 61.798,52.51 60.991,54.864C60.228,57.095 60.574,58.917 61.761,58.917C62.948,58.917 63.438,60.223 62.851,61.819C62.263,63.417 63.135,65.593 64.789,66.659C66.443,67.726 67.256,70.067 66.594,71.863C65.934,73.66 66.308,75.128 67.425,75.128C70.135,75.128 68.78,89.031 65.914,90.636C64.679,91.327 64.158,93.227 64.758,94.858C65.358,96.489 64.878,97.825 63.691,97.825C62.504,97.825 62.07,99.284 62.726,101.067C63.382,102.85 63.093,104.309 62.083,104.309C61.076,104.309 59.703,107.957 59.038,112.415C58.372,116.873 56.924,120.521 55.82,120.521C54.716,120.521 54.35,121.98 55.006,123.763C55.662,125.546 55.228,127.005 54.041,127.005C52.854,127.005 52.387,128.374 53.003,130.05C53.618,131.723 52.584,134.66 50.704,136.577C47.902,139.436 48.237,139.702 52.566,138.058C55.471,136.956 60.03,135.841 62.697,135.581C65.366,135.322 67.659,134.382 67.796,133.49C67.931,132.598 68.248,128.617 68.497,124.645C69.072,115.472 77.535,103.262 79.579,108.657C80.598,111.345 81.011,111.183 81.032,108.086C81.053,104.812 84.118,104.021 93.61,104.844C100.511,105.441 106.157,104.838 106.155,103.499C106.153,102.159 103.98,101.067 101.326,101.067C98.672,101.067 96.501,99.653 96.501,97.925C96.501,96.2 97.943,95.717 99.707,96.852C102.312,98.531 102.69,97.452 101.731,91.077C100.579,83.409 100.621,83.377 103.611,89.719C106.087,94.968 106.448,95.12 105.506,90.529C104.866,87.41 104.842,82.667 105.452,79.992C106.99,73.261 111.927,73.87 112.003,80.802C112.059,85.993 112.3,85.954 114.836,80.326C116.361,76.941 117.15,72.93 116.59,71.409C116.031,69.889 116.639,68.644 117.939,68.644C119.24,68.644 119.746,67.707 119.065,66.559C118.381,65.414 116.573,66.222 115.046,68.352C113.388,70.664 107.772,71.831 101.129,71.244C90.124,70.278 90.035,70.19 93.729,64.011C95.785,60.574 97.574,56.56 97.707,55.094C97.84,53.632 98.056,50.973 98.19,49.19C98.323,47.407 99.517,46.314 100.843,46.758C102.171,47.206 103.04,45.747 102.773,43.516C102.476,41.013 104.451,39.463 107.944,39.463C111.051,39.463 114.857,37.343 116.399,34.755C117.939,32.165 119.784,31.027 120.499,32.223C121.211,33.423 121.166,31.652 120.4,28.293C119.563,24.626 119.752,22.963 120.877,24.13C121.906,25.2 123.855,23.099 125.208,19.461C126.559,15.823 126.877,13.664 125.914,14.663C124.953,15.664 124.164,14.293 124.164,11.621C124.164,8.95 125.25,7.461 126.578,8.317C127.906,9.173 129.388,8.142 129.871,6.025C131.112,0.601 96.868,1.768 93.861,7.251C92.205,10.272 92.294,10.645 94.231,8.797C96.347,6.781 96.35,7.533 94.249,13.184C92.853,16.939 91.002,20.009 90.132,20.009C89.263,20.009 89.094,21.478 89.754,23.274C90.416,25.07 89.603,27.411 87.949,28.478C86.295,29.545 85.423,31.72 86.011,33.319C86.598,34.914 86.158,36.221 85.035,36.221C83.912,36.221 83.207,37.861 83.473,39.868C83.738,41.875 82.75,44.252 81.275,45.153C79.633,46.155 79.115,45.37 79.941,43.127C80.683,41.11 80.318,39.463 79.131,39.463C77.944,39.463 77.51,38.004 78.166,36.221C78.822,34.437 78.388,32.978 77.201,32.978C76.014,32.978 75.547,31.61 76.163,29.934C76.778,28.261 76.006,25.693 74.449,24.227C72.889,22.762 70.483,17.201 69.099,11.871C67.037,3.918 65.434,2.167 60.172,2.131C56.644,2.105 52.736,4.209 51.487,6.806ZM138.1,3.516C137.371,5.5 138.168,7.04 139.926,7.04C141.91,7.04 142.52,8.518 141.599,11.093C140.692,13.628 141.555,13.362 143.898,10.389C149.586,3.169 149.835,2.611 146.434,4.65C144.705,5.685 142.416,5.062 141.345,3.263C140.034,1.061 138.973,1.145 138.1,3.516ZM144.429,19.824C142.535,25.414 142.138,28.718 143.464,27.852C145.965,26.215 150.915,10.269 148.912,10.302C148.215,10.315 146.198,14.598 144.429,19.824ZM129.311,27.768C129.311,28.468 130.614,29.882 132.206,30.91C133.798,31.934 135.101,31.36 135.101,29.636C135.101,27.907 133.798,26.494 132.206,26.494C130.614,26.494 129.311,27.068 129.311,27.768ZM142.821,45.948C142.821,47.731 143.742,49.19 144.865,49.19C145.988,49.19 146.372,47.731 145.716,45.948C145.06,44.164 144.141,42.705 143.672,42.705C143.203,42.705 142.821,44.164 142.821,45.948ZM140.132,67.434C138.581,74.506 132.596,92.672 129.867,98.596C126.377,106.167 125.455,113.832 128.249,112.029C129.68,111.105 131.432,111.935 132.144,113.867C132.856,115.803 134.259,116.529 135.265,115.485C136.271,114.441 136.595,112.233 135.987,110.576C134.42,106.319 141.204,88.039 143.473,90.396C144.533,91.496 144.726,90.653 143.917,88.457C143.132,86.321 143.359,82.806 144.425,80.65C145.739,77.991 145.575,74.256 143.913,69.046C141.648,61.935 141.366,61.812 140.132,67.434ZM169.901,70.265C169.901,72.048 170.742,75.696 171.771,78.371C172.8,81.046 173.641,81.775 173.641,79.992C173.641,78.209 172.8,74.561 171.771,71.886C170.742,69.211 169.901,68.482 169.901,70.265ZM92.029,82.223C91.413,84.807 90.956,84.038 90.863,80.261C90.78,76.844 91.236,74.931 91.877,76.007C92.517,77.083 92.587,79.882 92.029,82.223ZM101.326,78.371C101.982,80.154 101.598,81.613 100.475,81.613C99.352,81.613 98.431,80.154 98.431,78.371C98.431,76.587 98.813,75.128 99.282,75.128C99.751,75.128 100.67,76.587 101.326,78.371ZM94.048,99.783C93.407,100.859 91.742,100.976 90.35,100.039C88.81,99.005 89.267,98.236 91.516,98.081C93.55,97.941 94.689,98.706 94.048,99.783ZM121.552,122.22C120.209,124.937 119.485,127.79 119.941,128.558C120.398,129.324 121.832,127.103 123.127,123.617C125.93,116.079 124.995,115.252 121.552,122.22ZM63.691,127.005C63.691,128.789 62.77,130.248 61.647,130.248C60.524,130.248 60.14,128.789 60.796,127.005C61.452,125.222 62.371,123.763 62.84,123.763C63.309,123.763 63.691,125.222 63.691,127.005ZM149.497,133.707C148.796,135.607 148.638,137.861 149.144,138.71C149.649,139.559 150.578,138.003 151.207,135.25C152.511,129.538 151.4,128.532 149.497,133.707ZM114.757,140.192C114.056,142.092 113.898,144.345 114.404,145.195C114.909,146.044 115.838,144.488 116.467,141.735C117.771,136.022 116.66,135.017 114.757,140.192ZM193.061,138.353C193.061,140.137 193.902,143.784 194.931,146.459C195.96,149.134 196.801,149.864 196.801,148.08C196.801,146.297 195.96,142.649 194.931,139.974C193.902,137.3 193.061,136.57 193.061,138.353ZM25.052,154.643C23.709,157.36 23.099,160.404 23.694,161.406C24.29,162.408 25.747,160.184 26.932,156.465C29.46,148.528 28.522,147.62 25.052,154.643ZM44.391,152.944C42.652,154.831 42.413,156.105 43.794,156.137C45.059,156.163 46.63,154.727 47.286,152.944C48.766,148.917 48.098,148.917 44.391,152.944ZM108.967,156.403C108.266,158.303 108.108,160.557 108.614,161.406C109.119,162.256 110.048,160.699 110.677,157.947C111.981,152.234 110.87,151.229 108.967,156.403ZM120.147,159.428C120.695,162.849 123.745,164.396 130.426,164.642L139.926,164.989L131.272,163.608C126.512,162.846 121.888,160.502 120.993,158.394C119.869,155.748 119.609,156.066 120.147,159.428ZM15.95,161.711C13.576,162.479 9.234,162.499 6.3,161.756C3.367,161.011 5.308,160.382 10.616,160.356C15.923,160.333 18.324,160.942 15.95,161.711ZM44.148,163.566C44.974,164.95 59.48,165.676 76.383,165.177L107.116,164.272L74.879,162.661C57.15,161.776 43.32,162.181 44.148,163.566ZM182.903,165.021C186.371,165.741 191.582,165.728 194.483,164.989C197.384,164.246 194.545,163.656 188.176,163.676C181.807,163.692 179.435,164.298 182.903,165.021Z" clip-rule="evenodd" fill-rule="evenodd" fill="url(#pf_0_1_3086)"/>
<path d="M51.863,6.229C49.464,11.371 49.531,11.485 52.592,7.454C55.808,3.217 56.829,0.555 55.24,0.555C54.841,0.555 53.32,3.106 51.863,6.229ZM94.323,6.229C91.924,11.371 91.992,11.485 95.052,7.454C98.268,3.217 99.289,0.555 97.7,0.555C97.301,0.555 95.78,3.106 94.323,6.229ZM128.266,4.014C127.565,5.914 127.407,8.168 127.913,9.017C128.418,9.867 129.347,8.31 129.976,5.558C131.281,-0.155 130.169,-1.16 128.266,4.014ZM123.481,18.465C122.138,21.182 121.414,24.035 121.87,24.804C122.327,25.569 123.761,23.348 125.056,19.863C127.859,12.324 126.925,11.497 123.481,18.465ZM36.67,49.189C35.533,52.756 35.039,55.674 35.57,55.674C36.101,55.674 37.463,52.756 38.6,49.189C39.737,45.623 40.231,42.705 39.7,42.705C39.169,42.705 37.807,45.623 36.67,49.189ZM100.36,46.138C100.36,48.025 101.228,48.67 102.29,47.568C103.352,46.466 104.22,44.922 104.22,44.134C104.22,43.347 103.352,42.705 102.29,42.705C101.228,42.705 100.36,44.251 100.36,46.138ZM57.861,60.615C56.518,63.332 55.794,66.185 56.25,66.954C56.707,67.719 58.141,65.498 59.436,62.013C62.239,54.474 61.304,53.647 57.861,60.615ZM140.132,67.434C138.58,74.505 132.595,92.672 129.866,98.595C126.376,106.166 125.454,113.831 128.249,112.028C129.679,111.104 131.431,111.934 132.143,113.867C132.855,115.802 134.259,116.529 135.264,115.485C136.27,114.441 136.594,112.233 135.986,110.576C134.419,106.319 141.203,88.039 143.472,90.396C144.532,91.495 144.725,90.652 143.916,88.457C143.131,86.32 143.359,82.805 144.424,80.649C145.738,77.991 145.574,74.255 143.912,69.045C141.647,61.935 141.365,61.811 140.132,67.434ZM28.95,71.885C27.813,75.452 27.319,78.37 27.85,78.37C28.381,78.37 29.743,75.452 30.88,71.885C32.017,68.319 32.511,65.401 31.98,65.401C31.449,65.401 30.087,68.319 28.95,71.885ZM169.9,70.264C169.9,72.047 170.741,75.695 171.77,78.37C172.799,81.045 173.64,81.774 173.64,79.991C173.64,78.208 172.799,74.56 171.77,71.885C170.741,69.21 169.9,68.481 169.9,70.264ZM52.071,76.827C50.728,79.544 50.004,82.397 50.46,83.165C50.917,83.931 52.351,81.71 53.646,78.224C56.449,70.686 55.514,69.859 52.071,76.827ZM43.346,101.283C42.645,103.183 42.487,105.437 42.993,106.286C43.498,107.136 44.427,105.579 45.056,102.827C46.36,97.114 45.249,96.109 43.346,101.283ZM37.556,117.495C36.855,119.395 36.697,121.648 37.203,122.498C37.708,123.347 38.637,121.791 39.266,119.038C40.57,113.325 39.459,112.32 37.556,117.495ZM121.551,122.219C120.208,124.936 119.484,127.789 119.94,128.558C120.397,129.323 121.831,127.102 123.126,123.616C125.929,116.078 124.995,115.251 121.551,122.219ZM149.496,133.706C148.795,135.606 148.637,137.86 149.143,138.709C149.648,139.559 150.577,138.002 151.206,135.25C152.511,129.537 151.399,128.532 149.496,133.706ZM29.836,140.191C29.135,142.091 28.977,144.344 29.483,145.194C29.988,146.043 30.917,144.487 31.546,141.734C32.85,136.021 31.739,135.016 29.836,140.191ZM114.756,140.191C114.055,142.091 113.897,144.344 114.403,145.194C114.908,146.043 115.837,144.487 116.466,141.734C117.771,136.021 116.659,135.016 114.756,140.191ZM193.06,138.353C193.06,140.136 193.901,143.783 194.93,146.458C195.959,149.133 196.8,149.863 196.8,148.08C196.8,146.296 195.959,142.649 194.93,139.974C193.901,137.299 193.06,136.569 193.06,138.353ZM25.051,154.642C23.708,157.359 23.098,160.404 23.693,161.405C24.289,162.407 25.746,160.183 26.931,156.464C29.459,148.527 28.521,147.619 25.051,154.642ZM108.966,156.403C108.265,158.303 108.107,160.556 108.613,161.405C109.118,162.255 110.047,160.699 110.676,157.946C111.981,152.233 110.869,151.228 108.966,156.403ZM120.146,159.428C120.694,162.848 123.744,164.395 130.426,164.641L139.925,164.988L131.271,163.607C126.512,162.845 121.887,160.501 120.992,158.393C119.868,155.748 119.608,156.065 120.146,159.428ZM1.264,163.48C1.754,164.82 6.448,165.912 11.694,165.912C16.94,165.912 21.23,164.82 21.23,163.48C21.23,162.141 16.536,161.049 10.798,161.049C5.062,161.049 0.772,162.141 1.264,163.48ZM44.147,163.565C44.973,164.949 59.479,165.676 76.382,165.176L107.115,164.272L74.878,162.66C57.149,161.775 43.319,162.18 44.147,163.565ZM182.902,165.021C186.371,165.74 191.582,165.727 194.482,164.988C197.383,164.246 194.544,163.656 188.175,163.675C181.806,163.691 179.434,164.298 182.902,165.021Z" clip-rule="evenodd" fill-rule="evenodd" fill="url(#pf_0_1_3087)"/>
<defs>
<linearGradient id="pf_0_1_3082" x1="99.973" y1="0.302" x2="99.973" y2="165.961" gradientUnits="userSpaceOnUse">
<stop stop-color="#D4CDC5"/>
<stop offset="1" stop-color="#6E6A66"/>
</linearGradient>
<linearGradient id="pf_0_1_3083" x1="99.949" y1="0" x2="99.949" y2="165.963" gradientUnits="userSpaceOnUse">
<stop stop-color="#D4CDC5"/>
<stop offset="1" stop-color="#6E6A66"/>
</linearGradient>
<linearGradient id="pf_0_1_3084" x1="99.878" y1="0.339" x2="99.878" y2="165.913" gradientUnits="userSpaceOnUse">
<stop stop-color="#D4CDC5"/>
<stop offset="1" stop-color="#6E6A66"/>
</linearGradient>
<linearGradient id="pf_0_1_3085" x1="100.259" y1="1.621" x2="100.259" y2="166" gradientUnits="userSpaceOnUse">
<stop stop-color="#D4CDC5"/>
<stop offset="1" stop-color="#6E6A66"/>
</linearGradient>
<linearGradient id="pf_0_1_3086" x1="98.783" y1="1.672" x2="98.783" y2="165.995" gradientUnits="userSpaceOnUse">
<stop stop-color="#D4CDC5"/>
<stop offset="1" stop-color="#6E6A66"/>
</linearGradient>
<linearGradient id="pf_0_1_3087" x1="99.013" y1="0.555" x2="99.013" y2="165.912" gradientUnits="userSpaceOnUse">
<stop stop-color="#D4CDC5"/>
<stop offset="1" stop-color="#6E6A66"/>
</linearGradient>
</defs>
</svg>
