<svg width="206" height="50" viewBox="0 0 206 50" fill="none" xmlns="http://www.w3.org/2000/svg" xmlns:xlink="http://www.w3.org/1999/xlink">
<path d="M54.235,4.381L49.158,4.381L49.158,5.877L52.759,5.877C52.581,7.975 50.823,8.869 49.164,8.869C47.041,8.869 45.189,7.211 45.189,4.887C45.189,2.623 46.955,0.88 49.168,0.88C50.877,0.88 51.883,1.96 51.883,1.96L52.938,0.876C52.938,0.876 51.584,-0.621 49.115,-0.621C45.97,-0.621 43.537,2.014 43.537,4.86C43.537,7.649 45.826,10.368 49.195,10.368C52.158,10.368 54.327,8.353 54.327,5.373C54.327,4.745 54.235,4.381 54.235,4.381Z" fill="#FFFFFF"/>
<path d="M55.192,28.489L66.349,28.489C66.357,28.521 66.55,29.315 66.55,30.668C66.55,37.216 61.784,41.645 55.273,41.645C47.869,41.645 42.841,35.67 42.841,29.541C42.841,23.287 48.187,17.497 55.097,17.498C60.523,17.498 63.499,20.786 63.499,20.786L61.181,23.169C61.181,23.169 58.969,20.793 55.215,20.793C50.35,20.793 46.47,24.625 46.47,29.6C46.47,34.707 50.54,38.351 55.205,38.351C58.851,38.351 62.713,36.385 63.105,31.776L55.192,31.776L55.192,28.489Z" fill="#FFFFFF"/>
<path d="M67.974,33.806C67.974,29.662 71.255,26.109 75.833,26.109C79.596,26.109 83.677,28.756 83.677,33.896C83.677,38.381 80.169,41.631 75.886,41.631C71.156,41.631 67.974,38.012 67.974,33.806ZM80.263,33.876C80.263,30.964 78.13,29.157 75.878,29.157C73.349,29.157 71.404,31.165 71.404,33.853C71.404,36.601 73.373,38.584 75.868,38.584C78.139,38.584 80.263,36.726 80.263,33.876Z" clip-rule="evenodd" fill-rule="evenodd" fill="#FFFFFF"/>
<path d="M93.111,26.109C88.532,26.109 85.251,29.662 85.251,33.806C85.251,38.012 88.434,41.631 93.164,41.631C97.446,41.631 100.955,38.381 100.955,33.896C100.955,28.756 96.874,26.109 93.111,26.109ZM93.156,29.157C95.407,29.157 97.541,30.964 97.541,33.876C97.541,36.726 95.416,38.584 93.145,38.584C90.651,38.584 88.683,36.601 88.683,33.853C88.683,31.165 90.626,29.157 93.156,29.157Z" clip-rule="evenodd" fill-rule="evenodd" fill="#FFFFFF"/>
<path d="M102.529,33.872C102.529,29.771 105.832,26.117 110.034,26.117C111.863,26.117 113.242,26.82 114.249,27.898L114.249,26.584L117.527,26.584L117.527,40.529C117.527,46.009 114.343,48.621 110.164,48.621C106.345,48.621 104.199,46.289 103.133,44.051L106.138,42.804C106.554,43.804 107.752,45.567 110.14,45.567C112.611,45.567 114.249,43.963 114.249,41.285L114.249,39.755C113.374,40.763 112.19,41.641 109.961,41.641C106.358,41.641 102.529,38.543 102.529,33.872ZM110.338,29.159C112.398,29.159 114.514,30.906 114.514,33.888C114.514,36.92 112.403,38.59 110.293,38.59C108.053,38.59 105.968,36.785 105.968,33.917C105.968,30.937 108.133,29.159 110.338,29.159Z" clip-rule="evenodd" fill-rule="evenodd" fill="#FFFFFF"/>
<path d="M125.498,33.849C125.498,29.229 128.826,26.098 132.789,26.098C135.916,26.098 138.278,28.168 139.29,30.646L139.835,31.912L129.352,36.23C129.978,37.387 130.989,38.582 133.187,38.582C135.143,38.582 136.316,37.526 137.017,36.446L139.719,38.231C138.508,39.84 136.478,41.637 133.17,41.637C129.207,41.637 125.498,38.738 125.498,33.849ZM132.926,29.083C134.354,29.083 135.382,29.837 135.819,30.741L128.818,33.646C128.517,31.397 130.663,29.083 132.926,29.083Z" clip-rule="evenodd" fill-rule="evenodd" fill="#FFFFFF"/>
<path d="M123.599,41.176L120.155,41.176L120.155,18.3L123.599,18.3L123.599,41.176Z" fill="#FFFFFF"/>
<path d="M166.32,41.176L169.763,41.176L169.763,18.3L166.32,18.3L166.32,41.176Z" fill="#FFFFFF"/>
<path d="M151.504,41.176L148.061,41.176L148.061,18.3L156.389,18.3C160.427,18.3 163.73,21.579 163.73,25.588C163.73,29.596 160.427,32.875 156.389,32.875L151.504,32.875L151.504,41.176ZM151.504,29.457L151.504,21.718L156.389,21.718C158.527,21.718 160.287,23.466 160.287,25.588C160.287,27.709 158.527,29.457 156.389,29.457L151.504,29.457Z" clip-rule="evenodd" fill-rule="evenodd" fill="#FFFFFF"/>
<path d="M195.184,48.621L205.155,26.099L201.393,26.099L196.882,36.291L192.37,26.099L188.61,26.099L195.001,40.539L191.424,48.621L195.184,48.621Z" fill="#FFFFFF"/>
<path d="M183.855,41.176L187.298,41.176L187.298,32.948C187.837,24.463 177,22.467 172.9,28.584L175.671,30.43C177.676,26.95 183.397,27.751 183.773,31.48C182.053,31.028 180.196,30.7 178.499,30.871C175.85,31.137 173.582,32.807 173.221,35.542C173.027,37.021 173.359,38.843 174.398,39.953C176.018,41.683 178.678,41.916 180.863,41.325C182.093,40.992 183.061,40.267 183.855,39.329L183.855,41.176ZM180.044,38.343C181.929,37.834 183.414,36.466 183.855,34.563C182.891,34.254 182.005,34.004 180.989,33.882C175.072,32.999 176.063,39.421 180.044,38.343Z" clip-rule="evenodd" fill-rule="evenodd" fill="#FFFFFF"/>
<path d="M76.555,10.155L74.988,10.155L74.988,-0.255L76.555,-0.255L76.555,10.155Z" fill="#FFFFFF"/>
<path d="M66.213,10.155L67.78,10.155L67.78,1.3L70.352,1.3L70.352,-0.255L63.641,-0.255L63.641,1.3L66.213,1.3L66.213,10.155Z" fill="#FFFFFF"/>
<path d="M61.988,10.155L55.979,10.155L55.979,-0.255L61.988,-0.255L61.988,1.3L57.546,1.3L57.546,4.172L61.454,4.172L61.454,5.728L57.546,5.728L57.546,8.599L61.988,8.599L61.988,10.155Z" fill="#FFFFFF"/>
<path d="M81.969,10.155L81.969,1.3L84.541,1.3L84.541,-0.255L77.83,-0.255L77.83,1.3L80.403,1.3L80.403,10.155L81.969,10.155Z" fill="#FFFFFF"/>
<path d="M88.573,4.86C88.573,2.014 91.006,-0.621 94.151,-0.621C97.295,-0.621 99.728,2.014 99.728,4.86C99.728,7.627 97.476,10.325 94.151,10.367C90.825,10.325 88.573,7.627 88.573,4.86ZM94.151,8.869C92.049,8.843 90.225,7.193 90.225,4.887C90.225,2.642 91.962,0.908 94.151,0.88C96.34,0.908 98.077,2.642 98.077,4.887C98.077,7.193 96.253,8.843 94.151,8.869Z" clip-rule="evenodd" fill-rule="evenodd" fill="#FFFFFF"/>
<path d="M102.86,10.155L101.293,10.155L101.293,-0.255L102.86,-0.255L107.89,7.324L107.89,-0.255L109.457,-0.255L109.457,10.155L107.893,10.155L102.86,2.572L102.86,10.155Z" fill="#FFFFFF"/>
<path d="M0.752,12.365L18.456,29.915L0.837,47.618C0.323,47.294 0.047,46.592 0.043,45.684L-0.117,14.263C-0.122,13.269 0.242,12.663 0.752,12.365Z" fill="#FFFFFF"/>
<path d="M2.766,12.388L24.294,24.049L19.189,29.179L2.015,12.154C2.275,12.188 2.536,12.264 2.766,12.388Z" fill="#FFFFFF"/>
<path d="M25.252,35.189L19.926,29.909L25.246,24.564L32.573,28.532C34.378,29.509 33.455,30.731 32.573,31.21L25.252,35.189Z" fill="#FFFFFF"/>
<path d="M2.766,47.406C2.603,47.496 2.447,47.567 2.296,47.623L19.194,30.645L24.299,35.706L2.766,47.406Z" fill="#FFFFFF"/>
</svg>
