<svg width="216" height="50" viewBox="0 0 216 50" fill="none" xmlns="http://www.w3.org/2000/svg" xmlns:xlink="http://www.w3.org/1999/xlink">
<path d="M56.946,4.381L51.615,4.381L51.615,5.877L55.396,5.877C55.209,7.975 53.364,8.869 51.622,8.869C49.393,8.869 47.448,7.211 47.448,4.887C47.448,2.623 49.302,0.88 51.626,0.88C53.42,0.88 54.477,1.96 54.477,1.96L55.585,0.876C55.585,0.876 54.163,-0.621 51.57,-0.621C48.268,-0.621 45.714,2.014 45.714,4.86C45.714,7.649 48.116,10.368 51.654,10.368C54.765,10.368 57.043,8.353 57.043,5.373C57.043,4.745 56.946,4.381 56.946,4.381Z" fill="#FFFFFF"/>
<path d="M57.951,28.489L69.666,28.489C69.674,28.521 69.877,29.315 69.877,30.668C69.877,37.216 64.873,41.645 58.036,41.645C50.262,41.645 44.982,35.67 44.982,29.541C44.982,23.287 50.596,17.497 57.851,17.498C63.549,17.498 66.673,20.786 66.673,20.786L64.239,23.169C64.239,23.169 61.917,20.793 57.975,20.793C52.867,20.793 48.793,24.625 48.793,29.6C48.793,34.707 53.067,38.351 57.965,38.351C61.793,38.351 65.849,36.385 66.259,31.776L57.951,31.776L57.951,28.489Z" fill="#FFFFFF"/>
<path d="M71.372,33.806C71.372,29.662 74.817,26.109 79.624,26.109C83.575,26.109 87.86,28.756 87.86,33.896C87.86,38.381 84.177,41.631 79.68,41.631C74.713,41.631 71.372,38.012 71.372,33.806ZM84.276,33.876C84.276,30.964 82.036,29.157 79.672,29.157C77.016,29.157 74.974,31.165 74.974,33.853C74.974,36.601 77.041,38.584 79.661,38.584C82.045,38.584 84.276,36.726 84.276,33.876Z" clip-rule="evenodd" fill-rule="evenodd" fill="#FFFFFF"/>
<path d="M97.766,26.109C92.959,26.109 89.513,29.662 89.513,33.806C89.513,38.012 92.855,41.631 97.822,41.631C102.318,41.631 106.002,38.381 106.002,33.896C106.002,28.756 101.717,26.109 97.766,26.109ZM97.813,29.157C100.177,29.157 102.417,30.964 102.417,33.876C102.417,36.726 100.187,38.584 97.802,38.584C95.183,38.584 93.116,36.601 93.116,33.853C93.116,31.165 95.157,29.157 97.813,29.157Z" clip-rule="evenodd" fill-rule="evenodd" fill="#FFFFFF"/>
<path d="M107.655,33.872C107.655,29.771 111.123,26.117 115.535,26.117C117.456,26.117 118.903,26.82 119.961,27.898L119.961,26.584L123.403,26.584L123.403,40.529C123.403,46.009 120.059,48.621 115.672,48.621C111.662,48.621 109.409,46.289 108.289,44.051L111.444,42.804C111.881,43.804 113.139,45.567 115.646,45.567C118.242,45.567 119.961,43.963 119.961,41.285L119.961,39.755C119.043,40.763 117.799,41.641 115.459,41.641C111.676,41.641 107.655,38.543 107.655,33.872ZM115.854,29.159C118.018,29.159 120.239,30.906 120.239,33.888C120.239,36.92 118.023,38.59 115.807,38.59C113.455,38.59 111.266,36.785 111.266,33.917C111.266,30.937 113.539,29.159 115.854,29.159Z" clip-rule="evenodd" fill-rule="evenodd" fill="#FFFFFF"/>
<path d="M131.772,33.849C131.772,29.229 135.266,26.098 139.428,26.098C142.711,26.098 145.191,28.168 146.255,30.646L146.826,31.912L135.819,36.23C136.477,37.387 137.538,38.582 139.845,38.582C141.9,38.582 143.131,37.526 143.867,36.446L146.705,38.231C145.432,39.84 143.301,41.637 139.828,41.637C135.667,41.637 131.772,38.738 131.772,33.849ZM139.572,29.083C141.072,29.083 142.151,29.837 142.609,30.741L135.259,33.646C134.942,31.397 137.196,29.083 139.572,29.083Z" clip-rule="evenodd" fill-rule="evenodd" fill="#FFFFFF"/>
<path d="M129.778,41.176L126.163,41.176L126.163,18.3L129.778,18.3L129.778,41.176Z" fill="#FFFFFF"/>
<path d="M174.635,41.176L178.25,41.176L178.25,18.3L174.635,18.3L174.635,41.176Z" fill="#FFFFFF"/>
<path d="M159.079,41.176L155.463,41.176L155.463,18.3L164.209,18.3C168.448,18.3 171.916,21.579 171.916,25.588C171.916,29.596 168.448,32.875 164.209,32.875L159.079,32.875L159.079,41.176ZM159.079,29.457L159.079,21.718L164.208,21.718C166.452,21.718 168.301,23.466 168.301,25.588C168.301,27.709 166.452,29.457 164.208,29.457L159.079,29.457Z" clip-rule="evenodd" fill-rule="evenodd" fill="#FFFFFF"/>
<path d="M204.942,48.621L215.41,26.099L211.462,26.099L206.724,36.291L201.988,26.099L198.04,26.099L204.75,40.539L200.994,48.621L204.942,48.621Z" fill="#FFFFFF"/>
<path d="M193.047,41.176L196.662,41.176L196.662,32.948C197.228,24.463 185.85,22.467 181.544,28.584L184.454,30.43C186.559,26.95 192.566,27.751 192.961,31.48C191.155,31.028 189.205,30.7 187.423,30.871C184.642,31.137 182.26,32.807 181.882,35.542C181.678,37.021 182.027,38.843 183.118,39.953C184.819,41.683 187.611,41.916 189.905,41.325C191.197,40.992 192.214,40.267 193.047,39.329L193.047,41.176ZM189.046,38.343C191.025,37.834 192.584,36.466 193.047,34.563C192.035,34.254 191.105,34.004 190.038,33.882C183.825,32.999 184.865,39.421 189.046,38.343Z" clip-rule="evenodd" fill-rule="evenodd" fill="#FFFFFF"/>
<path d="M80.382,10.155L78.737,10.155L78.737,-0.255L80.382,-0.255L80.382,10.155Z" fill="#FFFFFF"/>
<path d="M69.523,10.155L71.168,10.155L71.168,1.3L73.869,1.3L73.869,-0.255L66.822,-0.255L66.822,1.3L69.523,1.3L69.523,10.155Z" fill="#FFFFFF"/>
<path d="M65.087,10.155L58.778,10.155L58.778,-0.255L65.087,-0.255L65.087,1.3L60.423,1.3L60.423,4.172L64.526,4.172L64.526,5.728L60.423,5.728L60.423,8.599L65.087,8.599L65.087,10.155Z" fill="#FFFFFF"/>
<path d="M86.067,10.155L86.067,1.3L88.768,1.3L88.768,-0.255L81.721,-0.255L81.721,1.3L84.422,1.3L84.422,10.155L86.067,10.155Z" fill="#FFFFFF"/>
<path d="M93.001,4.86C93.001,2.014 95.556,-0.621 98.858,-0.621C102.16,-0.621 104.714,2.014 104.714,4.86C104.714,7.627 102.349,10.325 98.858,10.367C95.366,10.325 93.001,7.627 93.001,4.86ZM98.858,8.869C96.651,8.843 94.736,7.193 94.736,4.887C94.736,2.642 96.56,0.908 98.858,0.88C101.156,0.908 102.98,2.642 102.98,4.887C102.98,7.193 101.065,8.843 98.858,8.869Z" clip-rule="evenodd" fill-rule="evenodd" fill="#FFFFFF"/>
<path d="M108.003,10.155L106.357,10.155L106.357,-0.255L108.003,-0.255L113.284,7.324L113.284,-0.255L114.93,-0.255L114.93,10.155L113.287,10.155L108.003,2.572L108.003,10.155Z" fill="#FFFFFF"/>
<path d="M0.789,12.365L19.379,29.915L0.878,47.618C0.338,47.294 0.049,46.592 0.044,45.684L-0.124,14.263C-0.129,13.269 0.254,12.663 0.789,12.365Z" fill="#FFFFFF"/>
<path d="M2.904,12.388L25.509,24.049L20.148,29.179L2.115,12.154C2.388,12.188 2.662,12.264 2.904,12.388Z" fill="#FFFFFF"/>
<path d="M26.514,35.189L20.922,29.909L26.508,24.564L34.201,28.532C36.096,29.509 35.127,30.731 34.201,31.21L26.514,35.189Z" fill="#FFFFFF"/>
<path d="M2.904,47.406C2.733,47.496 2.568,47.567 2.411,47.623L20.153,30.645L25.513,35.706L2.904,47.406Z" fill="#FFFFFF"/>
</svg>
