<svg width="40" height="40" viewBox="0 0 40 40" fill="none" xmlns="http://www.w3.org/2000/svg" xmlns:xlink="http://www.w3.org/1999/xlink">
<path d="M9.091,20C9.091,26.109 13.891,30.909 20,30.909C26.109,30.909 30.909,26.109 30.909,20C30.909,13.891 26.109,9.091 20,9.091C13.891,9.091 9.091,13.891 9.091,20ZM0,20C0,31 9,40 20,40C31,40 40,31 40,20C40,9 31,0 20,0C9,0 0,9 0,20ZM3.636,20C3.636,11 11,3.636 20,3.636C29,3.636 36.364,11 36.364,20C36.364,29 29,36.364 20,36.364C11,36.364 3.636,29 3.636,20Z" clip-rule="evenodd" fill-rule="evenodd" fill="#0D6EFD"/>
</svg>
