<svg width="214" height="52" viewBox="0 0 214 52" fill="none" xmlns="http://www.w3.org/2000/svg" xmlns:xlink="http://www.w3.org/1999/xlink">
<path d="M29.251,-0.621C29.567,2.093 28.43,4.768 26.767,6.734C25.032,8.669 22.257,10.149 19.554,9.959C19.2,7.347 20.569,4.57 22.103,2.876C23.836,0.953 26.845,-0.52 29.251,-0.621Z" fill="#FFFFFF"/>
<path d="M38.1,15.036C37.799,15.206 32.8,18.027 32.854,23.781C32.919,30.729 39.284,33.025 39.36,33.049C39.322,33.211 38.363,36.367 35.976,39.565C33.982,42.385 31.894,45.143 28.576,45.189C26.998,45.225 25.933,44.796 24.823,44.349C23.666,43.883 22.46,43.398 20.573,43.398C18.573,43.398 17.314,43.899 16.099,44.383C15.048,44.801 14.031,45.206 12.597,45.261C9.437,45.371 7.023,42.254 4.957,39.459C0.828,33.756 -2.387,23.387 1.923,16.331C4.012,12.871 7.82,10.642 11.891,10.583C13.684,10.548 15.403,11.201 16.91,11.774C18.063,12.212 19.092,12.603 19.934,12.603C20.674,12.603 21.674,12.227 22.839,11.79C24.675,11.101 26.922,10.258 29.211,10.486C30.777,10.529 35.232,11.07 38.106,15.032L38.1,15.036Z" fill="#FFFFFF"/>
<path d="M60.985,0.928L56.519,0.928L56.519,13.49L60.985,13.49C64.935,13.49 67.255,11.166 67.255,7.205C67.255,3.253 64.925,0.928 60.985,0.928ZM58.177,2.339L58.177,12.08L60.874,12.08C63.885,12.08 65.561,10.339 65.561,7.222C65.561,4.08 63.894,2.339 60.874,2.339L58.177,2.339Z" clip-rule="evenodd" fill-rule="evenodd" fill="#FFFFFF"/>
<path d="M73.656,13.647C71.005,13.647 69.219,11.845 69.219,8.964C69.219,6.073 71.005,4.28 73.656,4.28C76.299,4.28 78.085,6.073 78.085,8.964C78.085,11.845 76.299,13.647 73.656,13.647ZM76.455,8.964C76.455,11.096 75.351,12.315 73.656,12.315C71.962,12.315 70.848,11.096 70.848,8.964C70.848,6.831 71.962,5.612 73.656,5.612C75.351,5.612 76.455,6.831 76.455,8.964Z" clip-rule="evenodd" fill-rule="evenodd" fill="#FFFFFF"/>
<path d="M88.206,13.49L89.836,13.49L92.506,4.437L90.923,4.437L89.007,11.802L88.971,11.802L86.798,4.437L85.251,4.437L83.087,11.802L83.05,11.802L81.135,4.437L79.542,4.437L82.222,13.49L83.851,13.49L86.006,6.482L86.043,6.482L88.206,13.49Z" fill="#FFFFFF"/>
<path d="M95.952,4.437L94.442,4.437L94.442,13.49L96.044,13.49L96.044,8.163C96.044,6.63 97.029,5.621 98.539,5.621C100.013,5.621 100.74,6.422 100.74,7.884L100.74,13.49L102.342,13.49L102.342,7.614C102.342,5.56 101.127,4.28 99.027,4.28C97.545,4.28 96.523,4.907 95.989,5.882L95.952,5.882L95.952,4.437Z" fill="#FFFFFF"/>
<path d="M105.088,0.928L105.088,13.49L106.69,13.49L106.69,0.928L105.088,0.928Z" fill="#FFFFFF"/>
<path d="M109.013,8.964C109.013,11.845 110.799,13.647 113.451,13.647C116.093,13.647 117.88,11.845 117.88,8.964C117.88,6.073 116.093,4.28 113.451,4.28C110.799,4.28 109.013,6.073 109.013,8.964ZM113.451,12.315C115.145,12.315 116.25,11.096 116.25,8.964C116.25,6.831 115.145,5.612 113.451,5.612C111.757,5.612 110.643,6.831 110.643,8.964C110.643,11.096 111.757,12.315 113.451,12.315Z" clip-rule="evenodd" fill-rule="evenodd" fill="#FFFFFF"/>
<path d="M122.919,13.647C121.013,13.647 119.733,12.559 119.733,10.931C119.733,9.381 120.994,8.406 123.204,8.285L125.948,8.137L125.948,7.379C125.948,6.274 125.174,5.612 123.848,5.612C122.615,5.612 121.841,6.16 121.639,7.048L120.092,7.048C120.202,5.481 121.62,4.28 123.885,4.28C126.132,4.28 127.55,5.429 127.55,7.231L127.55,13.49L126.031,13.49L126.031,11.932L125.994,11.932C125.423,12.968 124.208,13.647 122.919,13.647ZM125.948,10.052C125.948,11.358 124.788,12.359 123.278,12.359C122.127,12.359 121.362,11.793 121.362,10.931C121.362,10.078 122.099,9.538 123.388,9.46L125.948,9.312L125.948,10.052Z" clip-rule="evenodd" fill-rule="evenodd" fill="#FFFFFF"/>
<path d="M129.744,8.964C129.744,11.802 131.401,13.647 133.841,13.647C135.222,13.647 136.318,13.003 136.934,11.958L136.962,11.958L136.962,13.49L138.49,13.49L138.49,0.928L136.888,0.928L136.888,5.908L136.852,5.908C136.281,4.916 135.176,4.28 133.804,4.28C131.392,4.28 129.744,6.126 129.744,8.964ZM134.145,5.612C132.451,5.612 131.382,6.918 131.382,8.964C131.382,11.018 132.451,12.315 134.145,12.315C135.793,12.315 136.898,10.992 136.898,8.964C136.898,6.944 135.793,5.612 134.145,5.612Z" clip-rule="evenodd" fill-rule="evenodd" fill="#FFFFFF"/>
<path d="M149.747,13.647C147.095,13.647 145.309,11.845 145.309,8.964C145.309,6.073 147.095,4.28 149.747,4.28C152.389,4.28 154.175,6.073 154.175,8.964C154.175,11.845 152.389,13.647 149.747,13.647ZM152.546,8.964C152.546,11.096 151.441,12.315 149.747,12.315C148.053,12.315 146.938,11.096 146.938,8.964C146.938,6.831 148.053,5.612 149.747,5.612C151.441,5.612 152.546,6.831 152.546,8.964Z" clip-rule="evenodd" fill-rule="evenodd" fill="#FFFFFF"/>
<path d="M157.925,4.437L156.415,4.437L156.415,13.49L158.017,13.49L158.017,8.163C158.017,6.63 159.002,5.621 160.512,5.621C161.986,5.621 162.713,6.422 162.713,7.884L162.713,13.49L164.315,13.49L164.315,7.614C164.315,5.56 163.1,4.28 161,4.28C159.518,4.28 158.496,4.907 157.962,5.882L157.925,5.882L157.925,4.437Z" fill="#FFFFFF"/>
<path d="M173.592,2.252L171.99,2.252L171.99,4.437L170.563,4.437L170.563,5.682L171.99,5.682L171.99,11.14C171.99,12.881 172.671,13.56 174.43,13.56C174.807,13.56 175.249,13.534 175.442,13.49L175.442,12.219C175.332,12.237 174.964,12.263 174.779,12.263C173.96,12.263 173.592,11.889 173.592,11.062L173.592,5.682L175.452,5.682L175.452,4.437L173.592,4.437L173.592,2.252Z" fill="#FFFFFF"/>
<path d="M177.866,0.928L177.866,13.49L179.468,13.49L179.468,8.215C179.468,6.648 180.454,5.621 182.046,5.621C183.547,5.621 184.311,6.482 184.311,7.919L184.311,13.49L185.914,13.49L185.914,7.64C185.914,5.621 184.643,4.28 182.544,4.28C181.089,4.28 180.039,4.872 179.505,5.882L179.468,5.882L179.468,0.928L177.866,0.928Z" fill="#FFFFFF"/>
<path d="M196.504,10.896L194.93,10.896C194.663,11.749 193.77,12.333 192.554,12.333C190.833,12.333 189.755,11.192 189.755,9.46L189.755,9.373L196.624,9.373L196.624,8.798C196.624,6.056 195.031,4.28 192.444,4.28C189.801,4.28 188.107,6.187 188.107,8.998C188.107,11.845 189.774,13.647 192.518,13.647C194.608,13.647 196.228,12.481 196.504,10.896ZM192.416,5.595C190.916,5.595 189.866,6.683 189.765,8.189L194.967,8.189C194.93,6.674 193.926,5.595 192.416,5.595Z" clip-rule="evenodd" fill-rule="evenodd" fill="#FFFFFF"/>
<path d="M72.034,44.285L69.714,37.804L60.046,37.804L57.726,44.285L53.63,44.285L62.788,20.304L67.042,20.304L76.2,44.285L72.034,44.285ZM61.048,34.812L64.827,24.292L64.932,24.292L68.712,34.812L61.048,34.812Z" clip-rule="evenodd" fill-rule="evenodd" fill="#FFFFFF"/>
<path d="M96.814,35.544C96.814,30.009 93.72,26.519 89.027,26.519C86.355,26.519 84.228,27.799 83.139,29.81L83.068,29.81L83.068,26.802L79.395,26.802L79.395,50.069L83.191,50.069L83.191,41.41L83.279,41.41C84.334,43.355 86.443,44.585 89.097,44.585C93.738,44.585 96.814,41.078 96.814,35.544ZM88.025,41.543C91.031,41.543 92.912,39.217 92.912,35.544C92.912,31.887 91.031,29.544 88.025,29.544C85.125,29.544 83.174,31.937 83.174,35.544C83.174,39.183 85.107,41.543 88.025,41.543Z" clip-rule="evenodd" fill-rule="evenodd" fill="#FFFFFF"/>
<path d="M110.221,26.519C114.915,26.519 118.008,30.009 118.008,35.544C118.008,41.078 114.932,44.585 110.292,44.585C107.638,44.585 105.528,43.355 104.474,41.41L104.386,41.41L104.386,50.069L100.589,50.069L100.589,26.802L104.263,26.802L104.263,29.81L104.333,29.81C105.423,27.799 107.55,26.519 110.221,26.519ZM114.106,35.544C114.106,39.217 112.225,41.543 109.22,41.543C106.302,41.543 104.368,39.183 104.368,35.544C104.368,31.937 106.319,29.544 109.22,29.544C112.225,29.544 114.106,31.887 114.106,35.544Z" clip-rule="evenodd" fill-rule="evenodd" fill="#FFFFFF"/>
<path d="M133.152,37.604L129.267,37.604C129.513,41.942 133.31,44.684 138.935,44.684C144.946,44.684 148.726,41.876 148.726,37.388C148.726,33.882 146.563,31.904 141.361,30.741L138.566,30.092C135.296,29.328 133.96,28.331 133.96,26.636C133.96,24.508 136.052,23.046 139.111,23.046C142.169,23.046 144.261,24.492 144.489,26.885L148.321,26.885C148.198,22.747 144.525,19.905 139.163,19.905C133.749,19.905 129.935,22.747 129.935,26.885C129.935,30.225 132.097,32.286 136.755,33.35L140.042,34.098C143.329,34.862 144.718,35.976 144.718,37.837C144.718,39.981 142.415,41.543 139.216,41.543C135.876,41.543 133.433,39.981 133.152,37.604Z" fill="#FFFFFF"/>
<path d="M157.58,22.664L153.766,22.664L153.766,26.802L151.077,26.802L151.077,29.644L153.766,29.644L153.766,39.682C153.766,43.056 155.225,44.402 158.969,44.402C159.813,44.402 160.656,44.335 161.078,44.236L161.078,41.394C160.832,41.444 160.217,41.477 159.83,41.477C158.284,41.477 157.58,40.795 157.58,39.283L157.58,29.644L161.096,29.644L161.096,26.802L157.58,26.802L157.58,22.664Z" fill="#FFFFFF"/>
<path d="M163.799,35.544C163.799,41.178 167.279,44.618 172.57,44.618C177.861,44.618 181.341,41.178 181.341,35.544C181.341,29.926 177.843,26.486 172.57,26.486C167.297,26.486 163.799,29.926 163.799,35.544ZM172.57,41.66C175.558,41.66 177.474,39.433 177.474,35.544C177.474,31.671 175.541,29.444 172.57,29.444C169.599,29.444 167.666,31.671 167.666,35.544C167.666,39.433 169.599,41.66 172.57,41.66Z" clip-rule="evenodd" fill-rule="evenodd" fill="#FFFFFF"/>
<path d="M185.134,26.802L188.755,26.802L188.755,29.777L188.843,29.777C189.458,27.732 191.11,26.519 193.29,26.519C193.835,26.519 194.309,26.602 194.59,26.652L194.59,29.993C194.292,29.876 193.624,29.793 192.885,29.793C190.442,29.793 188.93,31.339 188.93,33.815L188.93,44.285L185.134,44.285L185.134,26.802Z" fill="#FFFFFF"/>
<path d="M210.054,39.162L213.658,39.162C213.13,42.353 209.93,44.63 205.694,44.63C200.264,44.63 196.977,41.157 196.977,35.639C196.977,30.155 200.316,26.498 205.536,26.498C210.67,26.498 213.868,29.922 213.868,35.224L213.868,36.454L200.808,36.454L200.808,36.67C200.808,39.711 202.742,41.722 205.782,41.722C207.944,41.722 209.544,40.691 210.054,39.162ZM200.808,34.15L210.054,34.068C210.054,33.331 209.728,31.966 208.962,31.241C208.196,30.517 207.068,29.968 205.536,29.968C202.452,29.968 200.808,31.916 200.808,34.15Z" clip-rule="evenodd" fill-rule="evenodd" fill="#FFFFFF"/>
</svg>
