<svg width="204" height="52" viewBox="0 0 204 52" fill="none" xmlns="http://www.w3.org/2000/svg" xmlns:xlink="http://www.w3.org/1999/xlink">
<path d="M27.859,-0.621C28.16,2.093 27.076,4.768 25.493,6.734C23.841,8.669 21.197,10.149 18.623,9.959C18.286,7.347 19.59,4.57 21.051,2.876C22.701,0.953 25.567,-0.52 27.859,-0.621Z" fill="#FFFFFF"/>
<path d="M36.287,15.036C35.999,15.206 31.238,18.027 31.29,23.781C31.352,30.729 37.414,33.025 37.486,33.049C37.45,33.211 36.537,36.367 34.263,39.565C32.365,42.385 30.375,45.143 27.216,45.189C25.713,45.225 24.699,44.796 23.641,44.349C22.539,43.883 21.391,43.398 19.594,43.398C17.689,43.398 16.49,43.899 15.333,44.383C14.332,44.801 13.363,45.206 11.998,45.261C8.988,45.371 6.689,42.254 4.722,39.459C0.789,33.756 -2.273,23.387 1.832,16.331C3.822,12.871 7.449,10.642 11.326,10.583C13.033,10.548 14.67,11.201 16.106,11.774C17.203,12.212 18.183,12.603 18.985,12.603C19.69,12.603 20.642,12.227 21.752,11.79C23.501,11.101 25.641,10.258 27.821,10.486C29.312,10.529 33.555,11.07 36.292,15.032L36.287,15.036Z" fill="#FFFFFF"/>
<path d="M58.081,0.928L53.828,0.928L53.828,13.49L58.081,13.49C61.843,13.49 64.053,11.166 64.053,7.205C64.053,3.253 61.834,0.928 58.081,0.928ZM55.407,2.339L55.407,12.08L57.976,12.08C60.843,12.08 62.439,10.339 62.439,7.222C62.439,4.08 60.852,2.339 57.976,2.339L55.407,2.339Z" clip-rule="evenodd" fill-rule="evenodd" fill="#FFFFFF"/>
<path d="M70.149,13.647C67.624,13.647 65.923,11.845 65.923,8.964C65.923,6.073 67.624,4.28 70.149,4.28C72.666,4.28 74.367,6.073 74.367,8.964C74.367,11.845 72.666,13.647 70.149,13.647ZM72.815,8.964C72.815,11.096 71.763,12.315 70.149,12.315C68.536,12.315 67.475,11.096 67.475,8.964C67.475,6.831 68.536,5.612 70.149,5.612C71.763,5.612 72.815,6.831 72.815,8.964Z" clip-rule="evenodd" fill-rule="evenodd" fill="#FFFFFF"/>
<path d="M84.007,13.49L85.559,13.49L88.102,4.437L86.593,4.437L84.769,11.802L84.734,11.802L82.665,4.437L81.192,4.437L79.131,11.802L79.096,11.802L77.272,4.437L75.755,4.437L78.307,13.49L79.859,13.49L81.911,6.482L81.946,6.482L84.007,13.49Z" fill="#FFFFFF"/>
<path d="M91.384,4.437L89.945,4.437L89.945,13.49L91.471,13.49L91.471,8.163C91.471,6.63 92.409,5.621 93.848,5.621C95.251,5.621 95.943,6.422 95.943,7.884L95.943,13.49L97.469,13.49L97.469,7.614C97.469,5.56 96.312,4.28 94.312,4.28C92.901,4.28 91.927,4.907 91.419,5.882L91.384,5.882L91.384,4.437Z" fill="#FFFFFF"/>
<path d="M100.085,0.928L100.085,13.49L101.61,13.49L101.61,0.928L100.085,0.928Z" fill="#FFFFFF"/>
<path d="M103.822,8.964C103.822,11.845 105.524,13.647 108.049,13.647C110.566,13.647 112.267,11.845 112.267,8.964C112.267,6.073 110.566,4.28 108.049,4.28C105.524,4.28 103.822,6.073 103.822,8.964ZM108.049,12.315C109.662,12.315 110.715,11.096 110.715,8.964C110.715,6.831 109.662,5.612 108.049,5.612C106.436,5.612 105.374,6.831 105.374,8.964C105.374,11.096 106.436,12.315 108.049,12.315Z" clip-rule="evenodd" fill-rule="evenodd" fill="#FFFFFF"/>
<path d="M117.066,13.647C115.251,13.647 114.032,12.559 114.032,10.931C114.032,9.381 115.233,8.406 117.338,8.285L119.951,8.137L119.951,7.379C119.951,6.274 119.214,5.612 117.951,5.612C116.776,5.612 116.04,6.16 115.847,7.048L114.374,7.048C114.479,5.481 115.829,4.28 117.986,4.28C120.126,4.28 121.476,5.429 121.476,7.231L121.476,13.49L120.03,13.49L120.03,11.932L119.994,11.932C119.451,12.968 118.293,13.647 117.066,13.647ZM119.951,10.052C119.951,11.358 118.846,12.359 117.408,12.359C116.312,12.359 115.584,11.793 115.584,10.931C115.584,10.078 116.285,9.538 117.513,9.46L119.951,9.312L119.951,10.052Z" clip-rule="evenodd" fill-rule="evenodd" fill="#FFFFFF"/>
<path d="M123.566,8.964C123.566,11.802 125.144,13.647 127.468,13.647C128.783,13.647 129.827,13.003 130.414,11.958L130.441,11.958L130.441,13.49L131.896,13.49L131.896,0.928L130.37,0.928L130.37,5.908L130.335,5.908C129.792,4.916 128.739,4.28 127.433,4.28C125.135,4.28 123.566,6.126 123.566,8.964ZM127.757,5.612C126.144,5.612 125.127,6.918 125.127,8.964C125.127,11.018 126.144,12.315 127.757,12.315C129.327,12.315 130.379,10.992 130.379,8.964C130.379,6.944 129.327,5.612 127.757,5.612Z" clip-rule="evenodd" fill-rule="evenodd" fill="#FFFFFF"/>
<path d="M142.616,13.647C140.091,13.647 138.39,11.845 138.39,8.964C138.39,6.073 140.091,4.28 142.616,4.28C145.133,4.28 146.834,6.073 146.834,8.964C146.834,11.845 145.133,13.647 142.616,13.647ZM145.282,8.964C145.282,11.096 144.23,12.315 142.616,12.315C141.003,12.315 139.942,11.096 139.942,8.964C139.942,6.831 141.003,5.612 142.616,5.612C144.23,5.612 145.282,6.831 145.282,8.964Z" clip-rule="evenodd" fill-rule="evenodd" fill="#FFFFFF"/>
<path d="M150.405,4.437L148.967,4.437L148.967,13.49L150.493,13.49L150.493,8.163C150.493,6.63 151.431,5.621 152.869,5.621C154.272,5.621 154.965,6.422 154.965,7.884L154.965,13.49L156.491,13.49L156.491,7.614C156.491,5.56 155.333,4.28 153.334,4.28C151.922,4.28 150.949,4.907 150.44,5.882L150.405,5.882L150.405,4.437Z" fill="#FFFFFF"/>
<path d="M165.326,2.252L163.8,2.252L163.8,4.437L162.441,4.437L162.441,5.682L163.8,5.682L163.8,11.14C163.8,12.881 164.449,13.56 166.124,13.56C166.483,13.56 166.904,13.534 167.088,13.49L167.088,12.219C166.983,12.237 166.632,12.263 166.457,12.263C165.677,12.263 165.326,11.889 165.326,11.062L165.326,5.682L167.097,5.682L167.097,4.437L165.326,4.437L165.326,2.252Z" fill="#FFFFFF"/>
<path d="M169.397,0.928L169.397,13.49L170.923,13.49L170.923,8.215C170.923,6.648 171.861,5.621 173.378,5.621C174.807,5.621 175.535,6.482 175.535,7.919L175.535,13.49L177.061,13.49L177.061,7.64C177.061,5.621 175.851,4.28 173.852,4.28C172.466,4.28 171.466,4.872 170.958,5.882L170.923,5.882L170.923,0.928L169.397,0.928Z" fill="#FFFFFF"/>
<path d="M187.147,10.896L185.648,10.896C185.394,11.749 184.543,12.333 183.386,12.333C181.746,12.333 180.72,11.192 180.72,9.46L180.72,9.373L187.261,9.373L187.261,8.798C187.261,6.056 185.744,4.28 183.28,4.28C180.764,4.28 179.15,6.187 179.15,8.998C179.15,11.845 180.737,13.647 183.351,13.647C185.341,13.647 186.884,12.481 187.147,10.896ZM183.254,5.595C181.825,5.595 180.825,6.683 180.729,8.189L185.683,8.189C185.648,6.674 184.692,5.595 183.254,5.595Z" clip-rule="evenodd" fill-rule="evenodd" fill="#FFFFFF"/>
<path d="M68.604,44.285L66.394,37.804L57.187,37.804L54.977,44.285L51.077,44.285L59.799,20.304L63.85,20.304L72.572,44.285L68.604,44.285ZM58.141,34.812L61.741,24.292L61.841,24.292L65.44,34.812L58.141,34.812Z" clip-rule="evenodd" fill-rule="evenodd" fill="#FFFFFF"/>
<path d="M92.204,35.544C92.204,30.009 89.258,26.519 84.788,26.519C82.244,26.519 80.218,27.799 79.18,29.81L79.113,29.81L79.113,26.802L75.614,26.802L75.614,50.069L79.23,50.069L79.23,41.41L79.314,41.41C80.318,43.355 82.327,44.585 84.855,44.585C89.275,44.585 92.204,41.078 92.204,35.544ZM83.834,41.543C86.697,41.543 88.488,39.217 88.488,35.544C88.488,31.887 86.697,29.544 83.834,29.544C81.072,29.544 79.214,31.937 79.214,35.544C79.214,39.183 81.055,41.543 83.834,41.543Z" clip-rule="evenodd" fill-rule="evenodd" fill="#FFFFFF"/>
<path d="M104.973,26.519C109.443,26.519 112.389,30.009 112.389,35.544C112.389,41.078 109.46,44.585 105.04,44.585C102.512,44.585 100.504,43.355 99.499,41.41L99.415,41.41L99.415,50.069L95.799,50.069L95.799,26.802L99.298,26.802L99.298,29.81L99.365,29.81C100.403,27.799 102.429,26.519 104.973,26.519ZM108.673,35.544C108.673,39.217 106.882,41.543 104.019,41.543C101.24,41.543 99.399,39.183 99.399,35.544C99.399,31.937 101.257,29.544 104.019,29.544C106.882,29.544 108.673,31.887 108.673,35.544Z" clip-rule="evenodd" fill-rule="evenodd" fill="#FFFFFF"/>
<path d="M126.812,37.604L123.112,37.604C123.346,41.942 126.962,44.684 132.319,44.684C138.045,44.684 141.644,41.876 141.644,37.388C141.644,33.882 139.585,31.904 134.63,30.741L131.968,30.092C128.854,29.328 127.582,28.331 127.582,26.636C127.582,24.508 129.574,23.046 132.487,23.046C135.4,23.046 137.392,24.492 137.609,26.885L141.259,26.885C141.142,22.747 137.643,19.905 132.537,19.905C127.381,19.905 123.748,22.747 123.748,26.885C123.748,30.225 125.807,32.286 130.244,33.35L133.374,34.098C136.504,34.862 137.827,35.976 137.827,37.837C137.827,39.981 135.634,41.543 132.587,41.543C129.406,41.543 127.08,39.981 126.812,37.604Z" fill="#FFFFFF"/>
<path d="M150.077,22.664L146.444,22.664L146.444,26.802L143.883,26.802L143.883,29.644L146.444,29.644L146.444,39.682C146.444,43.056 147.834,44.402 151.4,44.402C152.203,44.402 153.007,44.335 153.408,44.236L153.408,41.394C153.174,41.444 152.588,41.477 152.22,41.477C150.747,41.477 150.077,40.795 150.077,39.283L150.077,29.644L153.425,29.644L153.425,26.802L150.077,26.802L150.077,22.664Z" fill="#FFFFFF"/>
<path d="M155.999,35.544C155.999,41.178 159.314,44.618 164.353,44.618C169.392,44.618 172.706,41.178 172.706,35.544C172.706,29.926 169.375,26.486 164.353,26.486C159.331,26.486 155.999,29.926 155.999,35.544ZM164.353,41.66C167.199,41.66 169.023,39.433 169.023,35.544C169.023,31.671 167.182,29.444 164.353,29.444C161.524,29.444 159.682,31.671 159.682,35.544C159.682,39.433 161.524,41.66 164.353,41.66Z" clip-rule="evenodd" fill-rule="evenodd" fill="#FFFFFF"/>
<path d="M176.318,26.802L179.767,26.802L179.767,29.777L179.85,29.777C180.436,27.732 182.01,26.519 184.086,26.519C184.605,26.519 185.057,26.602 185.325,26.652L185.325,29.993C185.04,29.876 184.404,29.793 183.701,29.793C181.374,29.793 179.934,31.339 179.934,33.815L179.934,44.285L176.318,44.285L176.318,26.802Z" fill="#FFFFFF"/>
<path d="M200.053,39.162L203.485,39.162C202.983,42.353 199.935,44.63 195.901,44.63C190.728,44.63 187.597,41.157 187.597,35.639C187.597,30.155 190.778,26.498 195.75,26.498C200.639,26.498 203.685,29.922 203.685,35.224L203.685,36.454L191.247,36.454L191.247,36.67C191.247,39.711 193.088,41.722 195.984,41.722C198.043,41.722 199.567,40.691 200.053,39.162ZM191.247,34.15L200.053,34.068C200.053,33.331 199.742,31.966 199.012,31.241C198.283,30.517 197.209,29.968 195.75,29.968C192.812,29.968 191.247,31.916 191.247,34.15Z" clip-rule="evenodd" fill-rule="evenodd" fill="#FFFFFF"/>
</svg>
