<svg width="42" height="40" viewBox="0 0 42 40" fill="none" xmlns="http://www.w3.org/2000/svg" xmlns:xlink="http://www.w3.org/1999/xlink">
<path d="M37.4,0L3.8,0C1.49,0 -0.379,1.8 -0.379,4L-0.4,40L8,32L37.4,32C39.71,32 41.6,30.2 41.6,28L41.6,4C41.6,1.8 39.71,0 37.4,0ZM10.1,14L31.099,14C32.254,14 33.199,14.9 33.199,16C33.199,17.1 32.254,18 31.099,18L10.1,18C8.945,18 8,17.1 8,16C8,14.9 8.945,14 10.1,14ZM22.7,24L10.1,24C8.945,24 8,23.1 8,22C8,20.9 8.945,20 10.1,20L22.7,20C23.855,20 24.8,20.9 24.8,22C24.8,23.1 23.855,24 22.7,24ZM31.099,12L10.1,12C8.945,12 8,11.1 8,10C8,8.9 8.945,8 10.1,8L31.099,8C32.254,8 33.199,8.9 33.199,10C33.199,11.1 32.254,12 31.099,12Z" clip-rule="evenodd" fill-rule="evenodd" fill="#8B96A5"/>
</svg>
