<svg width="38" height="30" viewBox="0 0 38 30" fill="none" xmlns="http://www.w3.org/2000/svg" xmlns:xlink="http://www.w3.org/1999/xlink">
<path d="M2.5,11C0.84,11 -0.5,12.34 -0.5,14C-0.5,15.66 0.84,17 2.5,17C4.16,17 5.5,15.66 5.5,14C5.5,12.34 4.16,11 2.5,11ZM2.5,-1C0.84,-1 -0.5,0.34 -0.5,2C-0.5,3.66 0.84,5 2.5,5C4.16,5 5.5,3.66 5.5,2C5.5,0.34 4.16,-1 2.5,-1ZM2.5,23C0.84,23 -0.5,24.36 -0.5,26C-0.5,27.64 0.86,29 2.5,29C4.14,29 5.5,27.64 5.5,26C5.5,24.36 4.16,23 2.5,23ZM8.5,28L36.5,28L36.5,24L8.5,24L8.5,28ZM8.5,16L36.5,16L36.5,12L8.5,12L8.5,16ZM8.5,0L8.5,4L36.5,4L36.5,0L8.5,0Z" fill="#8B96A5"/>
</svg>
