<svg width="36" height="24" viewBox="0 0 36 24" fill="none" xmlns="http://www.w3.org/2000/svg" xmlns:xlink="http://www.w3.org/1999/xlink">
<path d="M17.483,0.41C7.899,0.41 0.139,5.463 0.139,11.688C0.139,17.913 7.899,22.966 17.483,22.966C27.083,22.966 34.861,17.913 34.861,11.688C34.861,5.463 27.083,0.41 17.483,0.41ZM29.514,7.177L24.392,7.177C23.837,5.767 23.038,4.414 21.997,3.162C25.191,3.872 27.847,5.316 29.514,7.177ZM17.5,2.711C18.941,4.064 20.069,5.564 20.816,7.177L14.184,7.177C14.931,5.564 16.059,4.064 17.5,2.711ZM4.063,13.943C3.785,13.222 3.611,12.466 3.611,11.688C3.611,10.91 3.785,10.154 4.063,9.432L9.931,9.432C9.792,10.177 9.688,10.921 9.688,11.688C9.688,12.455 9.792,13.199 9.931,13.943L4.063,13.943ZM5.486,16.199L10.608,16.199C11.163,17.609 11.962,18.962 13.003,20.214C9.809,19.503 7.153,18.071 5.486,16.199ZM10.608,7.177L5.486,7.177C7.153,5.305 9.809,3.872 13.003,3.162C11.962,4.414 11.163,5.767 10.608,7.177ZM17.5,20.665C16.059,19.312 14.931,17.812 14.184,16.199L20.816,16.199C20.069,17.812 18.941,19.312 17.5,20.665ZM21.563,13.943L13.438,13.943C13.281,13.199 13.16,12.455 13.16,11.688C13.16,10.921 13.281,10.165 13.438,9.432L21.563,9.432C21.719,10.165 21.84,10.921 21.84,11.688C21.84,12.455 21.719,13.199 21.563,13.943ZM21.997,20.214C23.038,18.962 23.837,17.609 24.392,16.199L29.514,16.199C27.847,18.06 25.191,19.503 21.997,20.214ZM25.07,13.943C25.208,13.199 25.313,12.455 25.313,11.688C25.313,10.921 25.208,10.177 25.07,9.432L30.938,9.432C31.215,10.154 31.389,10.91 31.389,11.688C31.389,12.466 31.215,13.222 30.938,13.943L25.07,13.943Z" fill="#8B96A5"/>
</svg>
