<svg width="34" height="30" viewBox="0 0 34 30" fill="none" xmlns="http://www.w3.org/2000/svg" xmlns:xlink="http://www.w3.org/1999/xlink">
<path d="M31,10.235L23.815,10.235L17.245,0.395C16.96,-0.025 16.48,-0.235 16,-0.235C15.52,-0.235 15.04,-0.025 14.755,0.41L8.185,10.235L1,10.235C0.175,10.235 -0.5,10.91 -0.5,11.735C-0.5,11.87 -0.485,12.005 -0.44,12.14L3.37,26.045C3.715,27.305 4.87,28.235 6.25,28.235L25.75,28.235C27.13,28.235 28.285,27.305 28.645,26.045L32.455,12.14L32.5,11.735C32.5,10.91 31.825,10.235 31,10.235ZM16,3.935L20.2,10.235L11.8,10.235L16,3.935ZM25.75,25.235L6.265,25.25L2.965,13.235L29.05,13.235L25.75,25.235ZM16,16.235C14.35,16.235 13,17.585 13,19.235C13,20.885 14.35,22.235 16,22.235C17.65,22.235 19,20.885 19,19.235C19,17.585 17.65,16.235 16,16.235Z" fill="#BDC4CD"/>
</svg>
