<svg width="38" height="32" viewBox="0 0 38 32" fill="none" xmlns="http://www.w3.org/2000/svg" xmlns:xlink="http://www.w3.org/1999/xlink">
<path d="M34.667,11.817L26.683,11.817L19.383,0.883C19.067,0.417 18.533,0.183 18,0.183C17.467,0.183 16.933,0.417 16.617,0.9L9.317,11.817L1.333,11.817C0.417,11.817 -0.333,12.567 -0.333,13.483C-0.333,13.633 -0.317,13.783 -0.267,13.933L3.967,29.383C4.35,30.783 5.633,31.817 7.167,31.817L28.833,31.817C30.367,31.817 31.65,30.783 32.05,29.383L36.283,13.933L36.333,13.483C36.333,12.567 35.583,11.817 34.667,11.817ZM18,4.817L22.667,11.817L13.333,11.817L18,4.817ZM28.833,28.483L7.183,28.5L3.517,15.15L32.5,15.15L28.833,28.483ZM18,18.483C16.167,18.483 14.667,19.983 14.667,21.817C14.667,23.65 16.167,25.15 18,25.15C19.833,25.15 21.333,23.65 21.333,21.817C21.333,19.983 19.833,18.483 18,18.483Z" fill="#8B96A5"/>
</svg>
