<svg width="34" height="26" viewBox="0 0 34 26" fill="none" xmlns="http://www.w3.org/2000/svg" xmlns:xlink="http://www.w3.org/1999/xlink">
<path d="M16.583,-0.718L0.958,3.793L0.958,10.56C0.958,16.819 7.625,22.672 16.583,24.093C25.542,22.672 32.208,16.819 32.208,10.56L32.208,3.793L16.583,-0.718ZM28.736,10.56C28.736,15.658 23.562,20.36 16.583,21.759C9.604,20.36 4.43,15.658 4.43,10.56L4.43,5.259L16.583,1.752L28.736,5.259L28.736,10.56ZM8.614,11.225L6.167,12.816L13.111,17.327L27,8.304L24.552,6.703L13.111,14.135L8.614,11.225Z" fill="#8B96A5"/>
</svg>
