<svg width="34" height="34" viewBox="0 0 34 34" fill="none" xmlns="http://www.w3.org/2000/svg" xmlns:xlink="http://www.w3.org/1999/xlink">
<path d="M15.983,-0.667C6.783,-0.667 -0.667,6.8 -0.667,16C-0.667,25.2 6.783,32.667 15.983,32.667C25.2,32.667 32.666,25.2 32.666,16C32.666,6.8 25.2,-0.667 15.983,-0.667ZM27.533,9.333L22.616,9.333C22.083,7.25 21.316,5.25 20.316,3.4C23.383,4.45 25.933,6.583 27.533,9.333ZM16,2.733C17.383,4.733 18.466,6.95 19.183,9.333L12.816,9.333C13.533,6.95 14.616,4.733 16,2.733ZM3.1,19.333C2.833,18.267 2.666,17.15 2.666,16C2.666,14.85 2.833,13.733 3.1,12.667L8.733,12.667C8.6,13.767 8.5,14.867 8.5,16C8.5,17.133 8.6,18.233 8.733,19.333L3.1,19.333ZM4.466,22.667L9.383,22.667C9.916,24.75 10.683,26.75 11.683,28.6C8.616,27.55 6.066,25.433 4.466,22.667ZM9.383,9.333L4.466,9.333C6.066,6.567 8.616,4.45 11.683,3.4C10.683,5.25 9.916,7.25 9.383,9.333ZM16,29.267C14.616,27.267 13.533,25.05 12.816,22.667L19.183,22.667C18.466,25.05 17.383,27.267 16,29.267ZM19.9,19.333L12.1,19.333C11.95,18.233 11.833,17.133 11.833,16C11.833,14.867 11.95,13.75 12.1,12.667L19.9,12.667C20.05,13.75 20.166,14.867 20.166,16C20.166,17.133 20.05,18.233 19.9,19.333ZM20.316,28.6C21.316,26.75 22.083,24.75 22.616,22.667L27.533,22.667C25.933,25.417 23.383,27.55 20.316,28.6ZM23.266,19.333C23.4,18.233 23.5,17.133 23.5,16C23.5,14.867 23.4,13.767 23.266,12.667L28.9,12.667C29.166,13.733 29.333,14.85 29.333,16C29.333,17.15 29.166,18.267 28.9,19.333L23.266,19.333Z" fill="#8B96A5"/>
</svg>
