<svg width="34" height="34" viewBox="0 0 34 34" fill="none" xmlns="http://www.w3.org/2000/svg" xmlns:xlink="http://www.w3.org/1999/xlink">
<path d="M2.667,2.667L29.333,2.667L29.333,22.667L4.617,22.667L2.667,24.617L2.667,2.667ZM2.667,-0.667C0.833,-0.667 -0.65,0.833 -0.65,2.667L-0.667,32.667L6,26L29.333,26C31.167,26 32.667,24.5 32.667,22.667L32.667,2.667C32.667,0.833 31.167,-0.667 29.333,-0.667L2.667,-0.667ZM6,16L26,16L26,19.333L6,19.333L6,16ZM6,11L26,11L26,14.333L6,14.333L6,11ZM6,6L26,6L26,9.333L6,9.333L6,6Z" fill="#8B96A5"/>
</svg>
