<svg width="40" height="38" viewBox="0 0 40 38" fill="none" xmlns="http://www.w3.org/2000/svg" xmlns:xlink="http://www.w3.org/1999/xlink">
<path d="M29,-0.35C25.52,-0.35 22.18,1.27 20,3.83C17.82,1.27 14.48,-0.35 11,-0.35C4.84,-0.35 0,4.49 0,10.65C0,18.21 6.8,24.37 17.1,33.73L20,36.35L22.9,33.71C33.2,24.37 40,18.21 40,10.65C40,4.49 35.16,-0.35 29,-0.35ZM20.2,30.75L20,30.95L19.8,30.75C10.28,22.13 4,16.43 4,10.65C4,6.65 7,3.65 11,3.65C14.08,3.65 17.08,5.63 18.14,8.37L21.88,8.37C22.92,5.63 25.92,3.65 29,3.65C33,3.65 36,6.65 36,10.65C36,16.43 29.72,22.13 20.2,30.75Z" fill="#8B96A5"/>
</svg>
