<svg width="44" height="42" viewBox="0 0 44 42" fill="none" xmlns="http://www.w3.org/2000/svg" xmlns:xlink="http://www.w3.org/1999/xlink">
<path d="M12.83,33.599C10.404,33.599 8.442,35.489 8.442,37.799C8.442,40.109 10.404,41.999 12.83,41.999C15.255,41.999 17.24,40.109 17.24,37.799C17.24,35.489 15.255,33.599 12.83,33.599ZM-0.4,2.1C-0.4,3.255 0.592,4.2 1.805,4.2L4.01,4.2L11.948,20.139L8.971,25.263C7.362,28.077 9.478,31.499 12.83,31.499L37.084,31.499C38.297,31.499 39.289,30.554 39.289,29.399C39.289,28.245 38.297,27.3 37.084,27.3L12.83,27.3L15.255,23.1L31.682,23.1C33.336,23.1 34.791,22.239 35.541,20.937L43.435,7.308C44.25,5.922 43.192,4.2 41.516,4.2L8.883,4.2L7.406,1.197C7.053,0.462 6.259,0 5.421,0L1.805,0C0.592,0 -0.4,0.945 -0.4,2.1ZM34.879,33.599C32.454,33.599 30.491,35.489 30.491,37.799C30.491,40.109 32.454,41.999 34.879,41.999C37.305,41.999 39.289,40.109 39.289,37.799C39.289,35.489 37.305,33.599 34.879,33.599Z" clip-rule="evenodd" fill-rule="evenodd" fill="#8B96A5"/>
</svg>
