<svg width="36" height="36" viewBox="0 0 36 36" fill="none" xmlns="http://www.w3.org/2000/svg" xmlns:xlink="http://www.w3.org/1999/xlink">
<path d="M24.707,22.51L23.116,22.51L22.552,21.97C24.525,19.69 25.713,16.73 25.713,13.51C25.713,6.33 19.854,0.51 12.625,0.51C5.397,0.51 -0.463,6.33 -0.463,13.51C-0.463,20.69 5.397,26.51 12.625,26.51C15.867,26.51 18.847,25.33 21.143,23.37L21.686,23.93L21.686,25.51L31.754,35.49L34.754,32.51L24.707,22.51ZM12.625,22.51C7.612,22.51 3.564,18.49 3.564,13.51C3.564,8.53 7.612,4.51 12.625,4.51C17.639,4.51 21.686,8.53 21.686,13.51C21.686,18.49 17.639,22.51 12.625,22.51Z" fill="#1C1C1C"/>
</svg>
