<svg width="40" height="40" viewBox="0 0 40 40" fill="none" xmlns="http://www.w3.org/2000/svg" xmlns:xlink="http://www.w3.org/1999/xlink">
<path d="M35.322,0L3.105,0C1.091,0 -0.922,1.8 -0.922,4L-0.922,10.02C-0.922,11.46 -0.056,12.7 1.091,13.4L1.091,36C1.091,38.2 3.306,40 5.119,40L33.308,40C35.121,40 37.335,38.2 37.335,36L37.335,13.4C38.483,12.7 39.349,11.46 39.349,10.02L39.349,4C39.349,1.8 37.335,0 35.322,0ZM33.308,36L5.119,36L5.119,14L33.308,14L33.308,36ZM35.322,10L3.105,10L3.105,4L35.322,4L35.322,10Z" fill="#1C1C1C"/>
<path d="M25.254,20L13.173,20L13.173,24L25.254,24L25.254,20Z" fill="#1C1C1C"/>
</svg>
