<svg width="42" height="40" viewBox="0 0 42 40" fill="none" xmlns="http://www.w3.org/2000/svg" xmlns:xlink="http://www.w3.org/1999/xlink">
<path d="M29.093,22C30.593,22 31.913,21.18 32.593,19.94L39.753,6.96C40.493,5.64 39.533,4 38.013,4L8.413,4L6.533,0L-0.007,0L-0.007,4L3.993,4L11.193,19.18L8.493,24.06C7.033,26.74 8.953,30 11.993,30L35.993,30L35.993,26L11.993,26L14.193,22L29.093,22ZM10.313,8L34.613,8L29.093,18L15.053,18L10.313,8ZM11.993,32C9.793,32 8.013,33.8 8.013,36C8.013,38.2 9.793,40 11.993,40C14.193,40 15.993,38.2 15.993,36C15.993,33.8 14.193,32 11.993,32ZM31.993,32C29.793,32 28.013,33.8 28.013,36C28.013,38.2 29.793,40 31.993,40C34.193,40 35.993,38.2 35.993,36C35.993,33.8 34.193,32 31.993,32Z" fill="#1C1C1C"/>
</svg>
