<svg width="50" height="50" viewBox="0 0 50 50" fill="none" xmlns="http://www.w3.org/2000/svg" xmlns:xlink="http://www.w3.org/1999/xlink">
<path d="M25,0C11.215,0 0,7.477 0,16.667C0,19.425 1.035,22.161 3.001,24.587L23.633,49.463C23.908,49.795 24.431,50 25,50C25.569,50 26.092,49.795 26.367,49.463L47.006,24.579C48.965,22.161 50,19.425 50,16.667C50,7.477 38.785,0 25,0ZM25,25C18.108,25 12.5,21.262 12.5,16.667C12.5,12.072 18.108,8.333 25,8.333C31.892,8.333 37.5,12.072 37.5,16.667C37.5,21.262 31.892,25 25,25Z" fill="#000000"/>
</svg>
