<svg width="34" height="34" viewBox="0 0 34 34" fill="none" xmlns="http://www.w3.org/2000/svg" xmlns:xlink="http://www.w3.org/1999/xlink">
<path d="M22.884,20.134L21.436,20.134L20.923,19.639C22.719,17.549 23.801,14.836 23.801,11.884C23.801,5.303 18.466,-0.032 11.884,-0.032C5.303,-0.032 -0.032,5.303 -0.032,11.884C-0.032,18.466 5.303,23.801 11.884,23.801C14.836,23.801 17.549,22.719 19.639,20.923L20.134,21.436L20.134,22.884L29.301,32.033L32.033,29.301L22.884,20.134ZM11.884,20.134C7.319,20.134 3.634,16.449 3.634,11.884C3.634,7.319 7.319,3.634 11.884,3.634C16.449,3.634 20.134,7.319 20.134,11.884C20.134,16.449 16.449,20.134 11.884,20.134Z" fill="#8B96A5"/>
</svg>
