<svg width="44" height="42" viewBox="0 0 44 42" fill="none" xmlns="http://www.w3.org/2000/svg" xmlns:xlink="http://www.w3.org/1999/xlink">
<path d="M12.83,33.599C10.405,33.599 8.442,35.489 8.442,37.799C8.442,40.109 10.405,41.999 12.83,41.999C15.256,41.999 17.24,40.109 17.24,37.799C17.24,35.489 15.256,33.599 12.83,33.599ZM-0.399,2.1C-0.399,3.255 0.593,4.2 1.806,4.2L4.011,4.2L11.948,20.139L8.972,25.263C7.362,28.077 9.479,31.499 12.83,31.499L37.085,31.499C38.298,31.499 39.29,30.554 39.29,29.399C39.29,28.245 38.298,27.3 37.085,27.3L12.83,27.3L15.256,23.1L31.683,23.1C33.336,23.1 34.792,22.239 35.541,20.937L43.435,7.308C44.251,5.922 43.193,4.2 41.517,4.2L8.883,4.2L7.406,1.197C7.053,0.462 6.26,0 5.422,0L1.806,0C0.593,0 -0.399,0.945 -0.399,2.1ZM34.88,33.599C32.454,33.599 30.492,35.489 30.492,37.799C30.492,40.109 32.454,41.999 34.88,41.999C37.305,41.999 39.29,40.109 39.29,37.799C39.29,35.489 37.305,33.599 34.88,33.599Z" clip-rule="evenodd" fill-rule="evenodd" fill="#8B96A5"/>
</svg>
