<svg width="34" height="34" viewBox="0 0 34 34" fill="none" xmlns="http://www.w3.org/2000/svg" xmlns:xlink="http://www.w3.org/1999/xlink">
<path d="M15.983,-0.667C6.783,-0.667 -0.667,6.8 -0.667,16C-0.667,25.2 6.783,32.666 15.983,32.666C25.2,32.666 32.667,25.2 32.667,16C32.667,6.8 25.2,-0.667 15.983,-0.667ZM27.533,9.333L22.617,9.333C22.083,7.25 21.317,5.25 20.317,3.4C23.383,4.45 25.933,6.583 27.533,9.333ZM16,2.733C17.383,4.733 18.467,6.95 19.183,9.333L12.817,9.333C13.533,6.95 14.617,4.733 16,2.733ZM3.1,19.333C2.833,18.266 2.667,17.15 2.667,16C2.667,14.85 2.833,13.733 3.1,12.666L8.733,12.666C8.6,13.766 8.5,14.866 8.5,16C8.5,17.133 8.6,18.233 8.733,19.333L3.1,19.333ZM4.467,22.666L9.383,22.666C9.917,24.75 10.683,26.75 11.683,28.6C8.617,27.55 6.067,25.433 4.467,22.666ZM9.383,9.333L4.467,9.333C6.067,6.566 8.617,4.45 11.683,3.4C10.683,5.25 9.917,7.25 9.383,9.333ZM16,29.266C14.617,27.266 13.533,25.05 12.817,22.666L19.183,22.666C18.467,25.05 17.383,27.266 16,29.266ZM19.9,19.333L12.1,19.333C11.95,18.233 11.833,17.133 11.833,16C11.833,14.866 11.95,13.75 12.1,12.666L19.9,12.666C20.05,13.75 20.167,14.866 20.167,16C20.167,17.133 20.05,18.233 19.9,19.333ZM20.317,28.6C21.317,26.75 22.083,24.75 22.617,22.666L27.533,22.666C25.933,25.416 23.383,27.55 20.317,28.6ZM23.267,19.333C23.4,18.233 23.5,17.133 23.5,16C23.5,14.866 23.4,13.766 23.267,12.666L28.9,12.666C29.167,13.733 29.333,14.85 29.333,16C29.333,17.15 29.167,18.266 28.9,19.333L23.267,19.333Z" fill="#8B96A5"/>
</svg>
