<svg width="40" height="36" viewBox="0 0 40 36" fill="none" xmlns="http://www.w3.org/2000/svg" xmlns:xlink="http://www.w3.org/1999/xlink">
<path d="M20,8L20,0L0,0L0,36L40,36L40,8L20,8ZM8,32L4,32L4,28L8,28L8,32ZM8,24L4,24L4,20L8,20L8,24ZM8,16L4,16L4,12L8,12L8,16ZM8,8L4,8L4,4L8,4L8,8ZM16,32L12,32L12,28L16,28L16,32ZM16,24L12,24L12,20L16,20L16,24ZM16,16L12,16L12,12L16,12L16,16ZM16,8L12,8L12,4L16,4L16,8ZM36,32L20,32L20,28L24,28L24,24L20,24L20,20L24,20L24,16L20,16L20,12L36,12L36,32ZM32,16L28,16L28,20L32,20L32,16ZM32,24L28,24L28,28L32,28L32,24Z" fill="#8B96A5"/>
</svg>
